BenchTwelve-Black.ufo
<glyph name="quotedbl" format="1">
  <advance width="1225"/>
  <unicode hex="0022"/>
  <outline>
    <contour>
      <point x="953" y="689" type="curve" smooth="yes"/>
      <point x="1026" y="689" type="line" smooth="yes"/>
      <point x="1066" y="689"/>
      <point x="1092" y="722"/>
      <point x="1104" y="764" type="curve" smooth="yes"/>
      <point x="1318" y="1443" type="line"/>
      <point x="1325" y="1486"/>
      <point x="1300" y="1521"/>
      <point x="1260" y="1521" type="curve" smooth="yes"/>
      <point x="952" y="1521" type="line" smooth="yes"/>
      <point x="912" y="1521"/>
      <point x="876" y="1486"/>
      <point x="871" y="1443" type="curve"/>
      <point x="896" y="764" type="line" smooth="yes"/>
      <point x="897" y="722"/>
      <point x="913" y="689"/>
    </contour>
    <contour>
      <point x="389" y="689" type="curve" smooth="yes"/>
      <point x="463" y="689" type="line" smooth="yes"/>
      <point x="503" y="689"/>
      <point x="529" y="722"/>
      <point x="540" y="764" type="curve"/>
      <point x="755" y="1443" type="line"/>
      <point x="762" y="1486"/>
      <point x="736" y="1521"/>
      <point x="696" y="1521" type="curve" smooth="yes"/>
      <point x="389" y="1521" type="line" smooth="yes"/>
      <point x="349" y="1521"/>
      <point x="312" y="1486"/>
      <point x="307" y="1443" type="curve"/>
      <point x="332" y="764" type="line" smooth="yes"/>
      <point x="333" y="722"/>
      <point x="349" y="689"/>
    </contour>
  </outline>
</glyph>
<glyph name="dollar" format="1">
  <advance width="2344"/>
  <unicode hex="0024"/>
  <outline>
    <contour>
      <point x="1210" y="931" type="line"/>
      <point x="987" y="948"/>
      <point x="931" y="971"/>
      <point x="940" y="1035" type="curve" smooth="yes"/>
      <point x="950" y="1108"/>
      <point x="1077" y="1124"/>
      <point x="1237" y="1124" type="curve"/>
    </contour>
    <contour>
      <point x="1247" y="315" type="line"/>
      <point x="1275" y="516" type="line"/>
      <point x="1449" y="514"/>
      <point x="1513" y="485"/>
      <point x="1502" y="410" type="curve" smooth="yes"/>
      <point x="1492" y="340"/>
      <point x="1404" y="316"/>
      <point x="1262" y="315" type="curve"/>
    </contour>
    <contour>
      <point x="1083" y="-197" type="curve" smooth="yes"/>
      <point x="1143" y="-197" type="line" smooth="yes"/>
      <point x="1161" y="-197"/>
      <point x="1180" y="-163"/>
      <point x="1186" y="-117" type="curve" smooth="yes"/>
      <point x="1197" y="-40" type="line"/>
      <point x="1881" y="-27"/>
      <point x="2146" y="118"/>
      <point x="2194" y="456" type="curve" smooth="yes"/>
      <point x="2249" y="846"/>
      <point x="1791" y="903"/>
      <point x="1332" y="923" type="curve"/>
      <point x="1360" y="1122" type="line"/>
      <point x="1539" y="1115"/>
      <point x="1765" y="1083"/>
      <point x="1952" y="1016" type="curve" smooth="yes"/>
      <point x="1959" y="1014"/>
      <point x="1967" y="1013"/>
      <point x="1974" y="1013" type="curve" smooth="yes"/>
      <point x="2007" y="1013"/>
      <point x="2037" y="1034"/>
      <point x="2055" y="1062" type="curve" smooth="yes"/>
      <point x="2055" y="1064"/>
      <point x="2160" y="1238"/>
      <point x="2160" y="1239" type="curve" smooth="yes"/>
      <point x="2165" y="1247"/>
      <point x="2168" y="1256"/>
      <point x="2169" y="1265" type="curve" smooth="yes"/>
      <point x="2173" y="1293"/>
      <point x="2161" y="1320"/>
      <point x="2138" y="1331" type="curve" smooth="yes"/>
      <point x="1944" y="1417"/>
      <point x="1706" y="1462"/>
      <point x="1409" y="1472" type="curve"/>
      <point x="1422" y="1563" type="line" smooth="yes"/>
      <point x="1429" y="1610"/>
      <point x="1420" y="1643"/>
      <point x="1402" y="1643" type="curve" smooth="yes"/>
      <point x="1342" y="1643" type="line" smooth="yes"/>
      <point x="1324" y="1643"/>
      <point x="1306" y="1610"/>
      <point x="1299" y="1563" type="curve" smooth="yes"/>
      <point x="1287" y="1475" type="line"/>
      <point x="798" y="1475"/>
      <point x="338" y="1427"/>
      <point x="276" y="989" type="curve" smooth="yes"/>
      <point x="220" y="594"/>
      <point x="672" y="550"/>
      <point x="1153" y="523" type="curve"/>
      <point x="1124" y="317" type="line"/>
      <point x="823" y="326"/>
      <point x="605" y="372"/>
      <point x="385" y="443" type="curve" smooth="yes"/>
      <point x="378" y="445"/>
      <point x="371" y="446"/>
      <point x="364" y="446" type="curve" smooth="yes"/>
      <point x="334" y="446"/>
      <point x="303" y="428"/>
      <point x="285" y="397" type="curve" smooth="yes"/>
      <point x="285" y="397"/>
      <point x="171" y="197"/>
      <point x="171" y="196" type="curve" smooth="yes"/>
      <point x="167" y="188"/>
      <point x="164" y="180"/>
      <point x="163" y="171" type="curve" smooth="yes"/>
      <point x="159" y="143"/>
      <point x="171" y="114"/>
      <point x="195" y="105" type="curve" smooth="yes"/>
      <point x="472" y="-9"/>
      <point x="768" y="-40"/>
      <point x="1074" y="-41" type="curve"/>
      <point x="1063" y="-117" type="line" smooth="yes"/>
      <point x="1057" y="-163"/>
      <point x="1065" y="-197"/>
    </contour>
  </outline>
</glyph>
<glyph name="quotesingle" format="1">
  <advance width="692"/>
  <unicode hex="0027"/>
  <outline>
    <contour>
      <point x="405" y="689" type="curve" smooth="yes"/>
      <point x="478" y="689" type="line" smooth="yes"/>
      <point x="518" y="689"/>
      <point x="544" y="722"/>
      <point x="556" y="764" type="curve" smooth="yes"/>
      <point x="770" y="1443" type="line"/>
      <point x="777" y="1486"/>
      <point x="751" y="1521"/>
      <point x="711" y="1521" type="curve" smooth="yes"/>
      <point x="404" y="1521" type="line" smooth="yes"/>
      <point x="364" y="1521"/>
      <point x="328" y="1486"/>
      <point x="323" y="1443" type="curve"/>
      <point x="347" y="764" type="line" smooth="yes"/>
      <point x="348" y="722"/>
      <point x="365" y="689"/>
    </contour>
  </outline>
</glyph>
<glyph name="parenleft" format="1">
  <advance width="927"/>
  <unicode hex="0028"/>
  <outline>
    <contour>
      <point x="721" y="-143" type="curve" smooth="yes"/>
      <point x="727" y="-143" type="line" smooth="yes"/>
      <point x="761" y="-143"/>
      <point x="798" y="-109"/>
      <point x="803" y="-73" type="curve" smooth="yes"/>
      <point x="815" y="15" type="line" smooth="yes"/>
      <point x="825" y="84"/>
      <point x="810" y="101"/>
      <point x="758" y="132" type="curve" smooth="yes"/>
      <point x="639" y="205"/>
      <point x="607" y="432"/>
      <point x="644" y="698" type="curve" smooth="yes"/>
      <point x="681" y="964"/>
      <point x="783" y="1198"/>
      <point x="917" y="1266" type="curve" smooth="yes"/>
      <point x="979" y="1298"/>
      <point x="997" y="1315"/>
      <point x="1007" y="1384" type="curve" smooth="yes"/>
      <point x="1019" y="1470" type="line" smooth="yes"/>
      <point x="1024" y="1506"/>
      <point x="997" y="1540"/>
      <point x="963" y="1540" type="curve" smooth="yes"/>
      <point x="958" y="1540" type="line" smooth="yes"/>
      <point x="540" y="1490"/>
      <point x="281" y="1098"/>
      <point x="225" y="698" type="curve" smooth="yes"/>
      <point x="169" y="297"/>
      <point x="314" y="-93"/>
    </contour>
  </outline>
</glyph>
<glyph name="plus" format="1">
  <advance width="1188"/>
  <unicode hex="002B"/>
  <outline>
    <contour>
      <point x="536" y="97" type="curve" smooth="yes"/>
      <point x="683" y="97" type="line" smooth="yes"/>
      <point x="723" y="97"/>
      <point x="756" y="129"/>
      <point x="762" y="172" type="curve" smooth="yes"/>
      <point x="800" y="444" type="line" smooth="yes"/>
      <point x="803" y="464"/>
      <point x="819" y="481"/>
      <point x="838" y="481" type="curve" smooth="yes"/>
      <point x="1069" y="481" type="line" smooth="yes"/>
      <point x="1109" y="481"/>
      <point x="1143" y="512"/>
      <point x="1149" y="555" type="curve" smooth="yes"/>
      <point x="1168" y="696" type="line" smooth="yes"/>
      <point x="1174" y="739"/>
      <point x="1150" y="770"/>
      <point x="1110" y="770" type="curve" smooth="yes"/>
      <point x="878" y="770" type="line" smooth="yes"/>
      <point x="859" y="770"/>
      <point x="848" y="787"/>
      <point x="851" y="807" type="curve" smooth="yes"/>
      <point x="890" y="1080" type="line" smooth="yes"/>
      <point x="896" y="1123"/>
      <point x="871" y="1156"/>
      <point x="831" y="1156" type="curve" smooth="yes"/>
      <point x="684" y="1156" type="line" smooth="yes"/>
      <point x="644" y="1156"/>
      <point x="611" y="1123"/>
      <point x="605" y="1080" type="curve" smooth="yes"/>
      <point x="567" y="807" type="line" smooth="yes"/>
      <point x="564" y="787"/>
      <point x="547" y="770"/>
      <point x="528" y="770" type="curve" smooth="yes"/>
      <point x="294" y="770" type="line" smooth="yes"/>
      <point x="254" y="770"/>
      <point x="220" y="739"/>
      <point x="214" y="696" type="curve" smooth="yes"/>
      <point x="194" y="555" type="line" smooth="yes"/>
      <point x="188" y="512"/>
      <point x="213" y="481"/>
      <point x="253" y="481" type="curve" smooth="yes"/>
      <point x="487" y="481" type="line" smooth="yes"/>
      <point x="506" y="481"/>
      <point x="519" y="464"/>
      <point x="516" y="444" type="curve" smooth="yes"/>
      <point x="477" y="172" type="line" smooth="yes"/>
      <point x="471" y="129"/>
      <point x="496" y="97"/>
    </contour>
  </outline>
</glyph>
<glyph name="three" format="1">
  <advance width="2047"/>
  <unicode hex="0033"/>
  <outline>
    <contour>
      <point x="960" y="-40" type="curve" smooth="yes"/>
      <point x="1523" y="-40"/>
      <point x="1925" y="72"/>
      <point x="1973" y="413" type="curve" smooth="yes"/>
      <point x="1998" y="591"/>
      <point x="1913" y="697"/>
      <point x="1722" y="723" type="curve"/>
      <point x="1911" y="743"/>
      <point x="2030" y="844"/>
      <point x="2055" y="1022" type="curve" smooth="yes"/>
      <point x="2103" y="1360"/>
      <point x="1741" y="1474"/>
      <point x="1178" y="1474" type="curve" smooth="yes"/>
      <point x="941" y="1474"/>
      <point x="483" y="1395"/>
      <point x="374" y="1362" type="curve" smooth="yes"/>
      <point x="338" y="1352"/>
      <point x="321" y="1335"/>
      <point x="317" y="1305" type="curve" smooth="yes"/>
      <point x="316" y="1301"/>
      <point x="316" y="1297"/>
      <point x="316" y="1292" type="curve" smooth="yes"/>
      <point x="312" y="1108" type="line" smooth="yes"/>
      <point x="311" y="1077"/>
      <point x="323" y="1064"/>
      <point x="347" y="1064" type="curve" smooth="yes"/>
      <point x="354" y="1064"/>
      <point x="360" y="1065"/>
      <point x="369" y="1067" type="curve" smooth="yes"/>
      <point x="406" y="1074"/>
      <point x="817" y="1165"/>
      <point x="1133" y="1165" type="curve" smooth="yes"/>
      <point x="1258" y="1165"/>
      <point x="1451" y="1162"/>
      <point x="1429" y="1005" type="curve" smooth="yes"/>
      <point x="1416" y="916"/>
      <point x="1369" y="848"/>
      <point x="1162" y="848" type="curve" smooth="yes"/>
      <point x="942" y="848" type="line" smooth="yes"/>
      <point x="912" y="848"/>
      <point x="908" y="819"/>
      <point x="906" y="805" type="curve" smooth="yes"/>
      <point x="883" y="640" type="line" smooth="yes"/>
      <point x="881" y="626"/>
      <point x="877" y="597"/>
      <point x="907" y="597" type="curve" smooth="yes"/>
      <point x="1126" y="597" type="line" smooth="yes"/>
      <point x="1334" y="597"/>
      <point x="1366" y="529"/>
      <point x="1353" y="438" type="curve" smooth="yes"/>
      <point x="1332" y="288"/>
      <point x="1144" y="269"/>
      <point x="1003" y="269" type="curve" smooth="yes"/>
      <point x="692" y="269"/>
      <point x="305" y="360"/>
      <point x="270" y="367" type="curve" smooth="yes"/>
      <point x="262" y="369"/>
      <point x="256" y="370"/>
      <point x="249" y="370" type="curve" smooth="yes"/>
      <point x="225" y="370"/>
      <point x="210" y="357"/>
      <point x="202" y="326" type="curve" smooth="yes"/>
      <point x="155" y="142" type="line" smooth="yes"/>
      <point x="153" y="137"/>
      <point x="153" y="133"/>
      <point x="152" y="129" type="curve" smooth="yes"/>
      <point x="148" y="99"/>
      <point x="160" y="82"/>
      <point x="193" y="72" type="curve" smooth="yes"/>
      <point x="293" y="39"/>
      <point x="714" y="-40"/>
    </contour>
  </outline>
</glyph>
<glyph name="four" format="1">
  <advance width="1925"/>
  <unicode hex="0034"/>
  <outline>
    <contour>
      <point x="1196" y="-151" type="curve" smooth="yes"/>
      <point x="1491" y="-151" type="line" smooth="yes"/>
      <point x="1531" y="-151"/>
      <point x="1567" y="-118"/>
      <point x="1573" y="-75" type="curve" smooth="yes"/>
      <point x="1607" y="172" type="line"/>
      <point x="1759" y="172" type="line" smooth="yes"/>
      <point x="1799" y="172"/>
      <point x="1833" y="204"/>
      <point x="1839" y="247" type="curve" smooth="yes"/>
      <point x="1869" y="456" type="line" smooth="yes"/>
      <point x="1875" y="499"/>
      <point x="1849" y="531"/>
      <point x="1809" y="531" type="curve" smooth="yes"/>
      <point x="1658" y="531" type="line"/>
      <point x="1775" y="1363" type="line" smooth="yes"/>
      <point x="1781" y="1406"/>
      <point x="1755" y="1438"/>
      <point x="1715" y="1438" type="curve" smooth="yes"/>
      <point x="1419" y="1438" type="line" smooth="yes"/>
      <point x="1379" y="1438"/>
      <point x="1345" y="1406"/>
      <point x="1339" y="1363" type="curve" smooth="yes"/>
      <point x="1222" y="531" type="line"/>
      <point x="918" y="531" type="line" smooth="yes"/>
      <point x="900" y="531"/>
      <point x="887" y="546"/>
      <point x="889" y="563" type="curve" smooth="yes"/>
      <point x="889" y="564"/>
      <point x="889" y="567"/>
      <point x="890" y="568" type="curve" smooth="yes"/>
      <point x="1167" y="1363" type="line" smooth="yes"/>
      <point x="1168" y="1366"/>
      <point x="1168" y="1369"/>
      <point x="1169" y="1373" type="curve" smooth="yes"/>
      <point x="1174" y="1410"/>
      <point x="1143" y="1438"/>
      <point x="1106" y="1438" type="curve" smooth="yes"/>
      <point x="688" y="1438" type="line" smooth="yes"/>
      <point x="648" y="1438"/>
      <point x="623" y="1405"/>
      <point x="607" y="1363" type="curve"/>
      <point x="149" y="247" type="line" smooth="yes"/>
      <point x="146" y="235" type="line" smooth="yes"/>
      <point x="141" y="199"/>
      <point x="174" y="172"/>
      <point x="209" y="172" type="curve" smooth="yes"/>
      <point x="1171" y="172" type="line"/>
      <point x="1136" y="-75" type="line" smooth="yes"/>
      <point x="1130" y="-118"/>
      <point x="1156" y="-151"/>
    </contour>
  </outline>
</glyph>
<glyph name="six" format="1">
  <advance width="2152"/>
  <unicode hex="0036"/>
  <outline>
    <contour>
      <point x="1144" y="249" type="curve" smooth="yes"/>
      <point x="953" y="249"/>
      <point x="834" y="297"/>
      <point x="864" y="512" type="curve" smooth="yes"/>
      <point x="882" y="641" type="line"/>
      <point x="1014" y="668"/>
      <point x="1132" y="683"/>
      <point x="1229" y="683" type="curve" smooth="yes"/>
      <point x="1449" y="683"/>
      <point x="1493" y="611"/>
      <point x="1472" y="462" type="curve" smooth="yes"/>
      <point x="1448" y="290"/>
      <point x="1333" y="249"/>
    </contour>
    <contour>
      <point x="1089" y="-40" type="curve" smooth="yes"/>
      <point x="1632" y="-40"/>
      <point x="2039" y="57"/>
      <point x="2093" y="444" type="curve" smooth="yes"/>
      <point x="2132" y="721"/>
      <point x="1907" y="928"/>
      <point x="1304" y="928" type="curve" smooth="yes"/>
      <point x="1176" y="928"/>
      <point x="1054" y="905"/>
      <point x="919" y="884" type="curve"/>
      <point x="923" y="907" type="line"/>
      <point x="954" y="1135"/>
      <point x="1100" y="1162"/>
      <point x="1365" y="1162" type="curve" smooth="yes"/>
      <point x="1647" y="1162"/>
      <point x="1915" y="1081"/>
      <point x="1955" y="1069" type="curve" smooth="yes"/>
      <point x="1962" y="1067"/>
      <point x="1968" y="1066"/>
      <point x="1975" y="1066" type="curve" smooth="yes"/>
      <point x="1997" y="1066"/>
      <point x="2012" y="1078"/>
      <point x="2021" y="1108" type="curve" smooth="yes"/>
      <point x="2073" y="1298" type="line" smooth="yes"/>
      <point x="2075" y="1303"/>
      <point x="2075" y="1307"/>
      <point x="2076" y="1311" type="curve" smooth="yes"/>
      <point x="2080" y="1339"/>
      <point x="2067" y="1356"/>
      <point x="2037" y="1365" type="curve"/>
      <point x="1936" y="1401"/>
      <point x="1573" y="1475"/>
      <point x="1359" y="1475" type="curve" smooth="yes"/>
      <point x="614" y="1475"/>
      <point x="298" y="1227"/>
      <point x="220" y="670" type="curve" smooth="yes"/>
      <point x="153" y="194"/>
      <point x="513" y="-40"/>
    </contour>
  </outline>
</glyph>
<glyph name="eight" format="1">
  <advance width="2101"/>
  <unicode hex="0038"/>
  <outline>
    <contour>
      <point x="1420" y="861" type="curve"/>
      <point x="1309" y="874"/>
      <point x="1202" y="889"/>
      <point x="1148" y="899" type="curve" smooth="yes"/>
      <point x="959" y="931"/>
      <point x="889" y="987"/>
      <point x="903" y="1088" type="curve" smooth="yes"/>
      <point x="923" y="1232"/>
      <point x="1063" y="1277"/>
      <point x="1231" y="1277" type="curve" smooth="yes"/>
      <point x="1398" y="1277"/>
      <point x="1525" y="1214"/>
      <point x="1504" y="1067" type="curve" smooth="yes"/>
      <point x="1493" y="991"/>
      <point x="1443" y="894"/>
    </contour>
    <contour>
      <point x="1081" y="205" type="curve" smooth="yes"/>
      <point x="850" y="205"/>
      <point x="754" y="280"/>
      <point x="781" y="474" type="curve" smooth="yes"/>
      <point x="793" y="559"/>
      <point x="823" y="627"/>
      <point x="870" y="671" type="curve"/>
      <point x="936" y="656"/>
      <point x="1009" y="643"/>
      <point x="1075" y="633" type="curve"/>
      <point x="1270" y="600"/>
      <point x="1470" y="564"/>
      <point x="1450" y="422" type="curve" smooth="yes"/>
      <point x="1428" y="265"/>
      <point x="1321" y="205"/>
    </contour>
    <contour>
      <point x="1046" y="-41" type="curve" smooth="yes"/>
      <point x="1477" y="-41"/>
      <point x="1985" y="49"/>
      <point x="2040" y="437" type="curve" smooth="yes"/>
      <point x="2066" y="625"/>
      <point x="1931" y="724"/>
      <point x="1768" y="789" type="curve"/>
      <point x="1882" y="830"/>
      <point x="2021" y="947"/>
      <point x="2039" y="1075" type="curve" smooth="yes"/>
      <point x="2085" y="1402"/>
      <point x="1638" y="1475"/>
      <point x="1259" y="1475" type="curve" smooth="yes"/>
      <point x="878" y="1475"/>
      <point x="388" y="1425"/>
      <point x="342" y="1099" type="curve" smooth="yes"/>
      <point x="320" y="941"/>
      <point x="458" y="847"/>
      <point x="562" y="797" type="curve"/>
      <point x="402" y="752"/>
      <point x="214" y="627"/>
      <point x="188" y="440" type="curve" smooth="yes"/>
      <point x="129" y="20"/>
      <point x="614" y="-41"/>
    </contour>
  </outline>
</glyph>
<glyph name="nine" format="1">
  <advance width="2138"/>
  <unicode hex="0039"/>
  <outline>
    <contour>
      <point x="1109" y="752" type="curve" smooth="yes"/>
      <point x="890" y="752"/>
      <point x="845" y="824"/>
      <point x="866" y="973" type="curve" smooth="yes"/>
      <point x="890" y="1146"/>
      <point x="1006" y="1187"/>
      <point x="1195" y="1187" type="curve" smooth="yes"/>
      <point x="1387" y="1187"/>
      <point x="1504" y="1138"/>
      <point x="1474" y="924" type="curve" smooth="yes"/>
      <point x="1456" y="794" type="line"/>
      <point x="1324" y="767"/>
      <point x="1206" y="752"/>
    </contour>
    <contour>
      <point x="979" y="-40" type="curve" smooth="yes"/>
      <point x="1724" y="-40"/>
      <point x="2041" y="208"/>
      <point x="2119" y="765" type="curve" smooth="yes"/>
      <point x="2186" y="1241"/>
      <point x="1825" y="1475"/>
      <point x="1249" y="1475" type="curve" smooth="yes"/>
      <point x="707" y="1475"/>
      <point x="312" y="1367"/>
      <point x="257" y="979" type="curve" smooth="yes"/>
      <point x="218" y="702"/>
      <point x="431" y="507"/>
      <point x="1034" y="507" type="curve" smooth="yes"/>
      <point x="1162" y="507"/>
      <point x="1284" y="530"/>
      <point x="1419" y="552" type="curve"/>
      <point x="1416" y="529" type="line"/>
      <point x="1384" y="297"/>
      <point x="1234" y="274"/>
      <point x="968" y="274" type="curve" smooth="yes"/>
      <point x="688" y="274"/>
      <point x="423" y="354"/>
      <point x="383" y="366" type="curve" smooth="yes"/>
      <point x="376" y="368"/>
      <point x="370" y="369"/>
      <point x="363" y="369" type="curve" smooth="yes"/>
      <point x="341" y="369"/>
      <point x="326" y="357"/>
      <point x="318" y="328" type="curve" smooth="yes"/>
      <point x="266" y="138" type="line" smooth="yes"/>
      <point x="264" y="133"/>
      <point x="264" y="128"/>
      <point x="263" y="124" type="curve" smooth="yes"/>
      <point x="259" y="96"/>
      <point x="271" y="80"/>
      <point x="301" y="70" type="curve" smooth="yes"/>
      <point x="402" y="35"/>
      <point x="765" y="-40"/>
    </contour>
  </outline>
</glyph>
<glyph name="less" format="1">
  <advance width="1192"/>
  <unicode hex="003C"/>
  <outline>
    <contour>
      <point x="1001" y="-89" type="curve" smooth="yes"/>
      <point x="1021" y="-89"/>
      <point x="1043" y="-71"/>
      <point x="1047" y="-44" type="curve" smooth="yes"/>
      <point x="1094" y="292" type="line" smooth="yes"/>
      <point x="1100" y="338"/>
      <point x="1081" y="379"/>
      <point x="1045" y="400" type="curve" smooth="yes"/>
      <point x="583" y="654" type="line" smooth="yes"/>
      <point x="577" y="657"/>
      <point x="575" y="663"/>
      <point x="576" y="669" type="curve" smooth="yes"/>
      <point x="577" y="675"/>
      <point x="580" y="681"/>
      <point x="587" y="685" type="curve" smooth="yes"/>
      <point x="1121" y="943" type="line" smooth="yes"/>
      <point x="1163" y="963"/>
      <point x="1194" y="1003"/>
      <point x="1200" y="1048" type="curve" smooth="yes"/>
      <point x="1251" y="1409" type="line" smooth="yes"/>
      <point x="1255" y="1436"/>
      <point x="1238" y="1455"/>
      <point x="1217" y="1455" type="curve" smooth="yes"/>
      <point x="1209" y="1455"/>
      <point x="1202" y="1453"/>
      <point x="1193" y="1449" type="curve" smooth="yes"/>
      <point x="327" y="986" type="line" smooth="yes"/>
      <point x="286" y="964"/>
      <point x="255" y="921"/>
      <point x="249" y="876" type="curve" smooth="yes"/>
      <point x="197" y="505" type="line" smooth="yes"/>
      <point x="191" y="459"/>
      <point x="208" y="414"/>
      <point x="243" y="392" type="curve" smooth="yes"/>
      <point x="979" y="-81" type="line" smooth="yes"/>
      <point x="987" y="-85"/>
      <point x="994" y="-89"/>
    </contour>
  </outline>
</glyph>
<glyph name="equal" format="1">
  <advance width="1061"/>
  <unicode hex="003D"/>
  <outline>
    <contour>
      <point x="287" y="621" type="curve" smooth="yes"/>
      <point x="949" y="621" type="line" smooth="yes"/>
      <point x="989" y="621"/>
      <point x="1023" y="652"/>
      <point x="1029" y="695" type="curve" smooth="yes"/>
      <point x="1042" y="788" type="line" smooth="yes"/>
      <point x="1048" y="831"/>
      <point x="1023" y="862"/>
      <point x="983" y="862" type="curve" smooth="yes"/>
      <point x="321" y="862" type="line" smooth="yes"/>
      <point x="281" y="862"/>
      <point x="248" y="831"/>
      <point x="242" y="788" type="curve" smooth="yes"/>
      <point x="229" y="695" type="line" smooth="yes"/>
      <point x="223" y="652"/>
      <point x="247" y="621"/>
    </contour>
    <contour>
      <point x="232" y="228" type="curve" smooth="yes"/>
      <point x="894" y="228" type="line" smooth="yes"/>
      <point x="934" y="228"/>
      <point x="967" y="259"/>
      <point x="973" y="302" type="curve" smooth="yes"/>
      <point x="986" y="394" type="line" smooth="yes"/>
      <point x="992" y="437"/>
      <point x="968" y="468"/>
      <point x="928" y="468" type="curve" smooth="yes"/>
      <point x="266" y="468" type="line" smooth="yes"/>
      <point x="226" y="468"/>
      <point x="192" y="437"/>
      <point x="186" y="394" type="curve" smooth="yes"/>
      <point x="173" y="302" type="line" smooth="yes"/>
      <point x="167" y="259"/>
      <point x="192" y="228"/>
    </contour>
  </outline>
</glyph>
<glyph name="greater" format="1">
  <advance width="1193"/>
  <unicode hex="003E"/>
  <outline>
    <contour>
      <point x="169" y="-89" type="curve" smooth="yes"/>
      <point x="176" y="-89"/>
      <point x="184" y="-87"/>
      <point x="192" y="-82" type="curve" smooth="yes"/>
      <point x="1058" y="380" type="line" smooth="yes"/>
      <point x="1099" y="402"/>
      <point x="1130" y="445"/>
      <point x="1136" y="491" type="curve" smooth="yes"/>
      <point x="1188" y="862" type="line" smooth="yes"/>
      <point x="1194" y="908"/>
      <point x="1177" y="953"/>
      <point x="1142" y="974" type="curve"/>
      <point x="406" y="1447" type="line" smooth="yes"/>
      <point x="398" y="1452"/>
      <point x="391" y="1455"/>
      <point x="384" y="1455" type="curve" smooth="yes"/>
      <point x="364" y="1455"/>
      <point x="342" y="1436"/>
      <point x="338" y="1410" type="curve" smooth="yes"/>
      <point x="291" y="1074" type="line" smooth="yes"/>
      <point x="285" y="1029"/>
      <point x="304" y="987"/>
      <point x="340" y="967" type="curve" smooth="yes"/>
      <point x="802" y="713" type="line" smooth="yes"/>
      <point x="808" y="710"/>
      <point x="810" y="703"/>
      <point x="809" y="697" type="curve" smooth="yes"/>
      <point x="808" y="691"/>
      <point x="805" y="686"/>
      <point x="798" y="682" type="curve" smooth="yes"/>
      <point x="264" y="423" type="line"/>
      <point x="222" y="404"/>
      <point x="191" y="364"/>
      <point x="185" y="318" type="curve" smooth="yes"/>
      <point x="134" y="-43" type="line" smooth="yes"/>
      <point x="130" y="-70"/>
      <point x="147" y="-89"/>
    </contour>
  </outline>
</glyph>
<glyph name="at" format="1">
  <advance width="2086"/>
  <unicode hex="0040"/>
  <outline>
    <contour>
      <point x="1080" y="283" type="curve" smooth="yes"/>
      <point x="890" y="283"/>
      <point x="823" y="412"/>
      <point x="844" y="559" type="curve" smooth="yes"/>
      <point x="864" y="701"/>
      <point x="953" y="840"/>
      <point x="1158" y="840" type="curve" smooth="yes"/>
      <point x="1312" y="840"/>
      <point x="1467" y="765"/>
      <point x="1439" y="564" type="curve" smooth="yes"/>
      <point x="1409" y="348"/>
      <point x="1236" y="283"/>
    </contour>
    <contour>
      <point x="952" y="-285" type="curve" smooth="yes"/>
      <point x="1086" y="-285"/>
      <point x="1199" y="-264"/>
      <point x="1307" y="-224" type="curve" smooth="yes"/>
      <point x="1323" y="-218"/>
      <point x="1341" y="-193"/>
      <point x="1338" y="-168" type="curve" smooth="yes"/>
      <point x="1330" y="-90" type="line" smooth="yes"/>
      <point x="1327" y="-69"/>
      <point x="1312" y="-55"/>
      <point x="1295" y="-59" type="curve"/>
      <point x="1213" y="-87"/>
      <point x="1112" y="-106"/>
      <point x="1003" y="-106" type="curve" smooth="yes"/>
      <point x="531" y="-106"/>
      <point x="383" y="241"/>
      <point x="432" y="590" type="curve" smooth="yes"/>
      <point x="486" y="971"/>
      <point x="775" y="1285"/>
      <point x="1247" y="1285" type="curve" smooth="yes"/>
      <point x="1713" y="1285"/>
      <point x="1910" y="975"/>
      <point x="1857" y="601" type="curve" smooth="yes"/>
      <point x="1816" y="306"/>
      <point x="1758" y="277"/>
      <point x="1709" y="277" type="curve" smooth="yes"/>
      <point x="1663" y="277"/>
      <point x="1626" y="310"/>
      <point x="1639" y="403" type="curve" smooth="yes"/>
      <point x="1712" y="925" type="line" smooth="yes"/>
      <point x="1717" y="959"/>
      <point x="1693" y="986"/>
      <point x="1659" y="986" type="curve" smooth="yes"/>
      <point x="1644" y="986" type="line" smooth="yes"/>
      <point x="1607" y="986"/>
      <point x="1578" y="974"/>
      <point x="1566" y="936" type="curve"/>
      <point x="1530" y="811" type="line" smooth="yes"/>
      <point x="1527" y="803"/>
      <point x="1526" y="798"/>
      <point x="1523" y="798" type="curve" smooth="yes"/>
      <point x="1520" y="798"/>
      <point x="1518" y="802"/>
      <point x="1515" y="810" type="curve" smooth="yes"/>
      <point x="1477" y="927"/>
      <point x="1346" y="1031"/>
      <point x="1153" y="1031" type="curve" smooth="yes"/>
      <point x="889" y="1031"/>
      <point x="656" y="865"/>
      <point x="615" y="573" type="curve" smooth="yes"/>
      <point x="572" y="264"/>
      <point x="783" y="101"/>
      <point x="1047" y="101" type="curve" smooth="yes"/>
      <point x="1250" y="101"/>
      <point x="1377" y="208"/>
      <point x="1457" y="315" type="curve" smooth="yes"/>
      <point x="1464" y="324"/>
      <point x="1473" y="339"/>
      <point x="1480" y="339" type="curve" smooth="yes"/>
      <point x="1487" y="339"/>
      <point x="1490" y="322"/>
      <point x="1490" y="301" type="curve"/>
      <point x="1482" y="205"/>
      <point x="1573" y="127"/>
      <point x="1685" y="127" type="curve" smooth="yes"/>
      <point x="1825" y="127"/>
      <point x="1995" y="247"/>
      <point x="2045" y="601" type="curve"/>
      <point x="2108" y="1061"/>
      <point x="1846" y="1475"/>
      <point x="1270" y="1475" type="curve" smooth="yes"/>
      <point x="693" y="1475"/>
      <point x="279" y="1089"/>
      <point x="210" y="595" type="curve" smooth="yes"/>
      <point x="145" y="131"/>
      <point x="375" y="-285"/>
    </contour>
  </outline>
</glyph>
<glyph name="B" format="1">
  <advance width="2217"/>
  <unicode hex="0042"/>
  <outline>
    <contour>
      <point x="922" y="861" type="line" smooth="yes"/>
      <point x="903" y="861"/>
      <point x="891" y="879"/>
      <point x="894" y="902" type="curve" smooth="yes"/>
      <point x="923" y="1110" type="line" smooth="yes"/>
      <point x="926" y="1130"/>
      <point x="943" y="1147"/>
      <point x="962" y="1147" type="curve" smooth="yes"/>
      <point x="1273" y="1147" type="line" smooth="yes"/>
      <point x="1427" y="1147"/>
      <point x="1569" y="1147"/>
      <point x="1548" y="997" type="curve" smooth="yes"/>
      <point x="1533" y="887"/>
      <point x="1458" y="866"/>
      <point x="1307" y="861" type="curve"/>
    </contour>
    <contour>
      <point x="848" y="334" type="line" smooth="yes"/>
      <point x="829" y="334"/>
      <point x="816" y="351"/>
      <point x="819" y="371" type="curve" smooth="yes"/>
      <point x="852" y="609" type="line" smooth="yes"/>
      <point x="855" y="629"/>
      <point x="873" y="646"/>
      <point x="892" y="646" type="curve" smooth="yes"/>
      <point x="1261" y="646" type="line" smooth="yes"/>
      <point x="1457" y="646"/>
      <point x="1547" y="630"/>
      <point x="1528" y="496" type="curve" smooth="yes"/>
      <point x="1507" y="347"/>
      <point x="1343" y="334"/>
      <point x="1169" y="334" type="curve" smooth="yes"/>
    </contour>
    <contour>
      <point x="216" y="0" type="curve" smooth="yes"/>
      <point x="1263" y="0" type="line" smooth="yes"/>
      <point x="1727" y="0"/>
      <point x="2108" y="96"/>
      <point x="2154" y="424" type="curve" smooth="yes"/>
      <point x="2177" y="590"/>
      <point x="2089" y="694"/>
      <point x="1955" y="757" type="curve" smooth="yes"/>
      <point x="1948" y="760"/>
      <point x="1945" y="767"/>
      <point x="1946" y="773" type="curve" smooth="yes"/>
      <point x="1947" y="779"/>
      <point x="1950" y="784"/>
      <point x="1956" y="788" type="curve" smooth="yes"/>
      <point x="2059" y="848"/>
      <point x="2133" y="929"/>
      <point x="2149" y="1040" type="curve" smooth="yes"/>
      <point x="2191" y="1339"/>
      <point x="1904" y="1438"/>
      <point x="1506" y="1438" type="curve" smooth="yes"/>
      <point x="418" y="1438" type="line" smooth="yes"/>
      <point x="378" y="1438"/>
      <point x="342" y="1402"/>
      <point x="336" y="1359" type="curve" smooth="yes"/>
      <point x="156" y="77" type="line" smooth="yes"/>
      <point x="150" y="34"/>
      <point x="176" y="0"/>
    </contour>
  </outline>
</glyph>
<glyph name="C" format="1">
  <advance width="2296"/>
  <unicode hex="0043"/>
  <outline>
    <contour>
      <point x="1219" y="-41" type="curve" smooth="yes"/>
      <point x="1623" y="-41"/>
      <point x="2150" y="58"/>
      <point x="2227" y="435" type="curve" smooth="yes"/>
      <point x="2229" y="447"/>
      <point x="2229" y="461"/>
      <point x="2230" y="474" type="curve"/>
      <point x="2229" y="496"/>
      <point x="2215" y="514"/>
      <point x="2194" y="516" type="curve"/>
      <point x="2172" y="520"/>
      <point x="1789" y="555"/>
      <point x="1788" y="555" type="curve" smooth="yes"/>
      <point x="1784" y="555"/>
      <point x="1780" y="556"/>
      <point x="1776" y="556" type="curve" smooth="yes"/>
      <point x="1734" y="556"/>
      <point x="1707" y="536"/>
      <point x="1682" y="494" type="curve"/>
      <point x="1613" y="386"/>
      <point x="1492" y="329"/>
      <point x="1271" y="329" type="curve"/>
      <point x="1022" y="334"/>
      <point x="860" y="418"/>
      <point x="902" y="719" type="curve" smooth="yes"/>
      <point x="943" y="1010"/>
      <point x="1128" y="1103"/>
      <point x="1381" y="1108" type="curve"/>
      <point x="1587" y="1108"/>
      <point x="1694" y="1058"/>
      <point x="1741" y="956" type="curve" smooth="yes"/>
      <point x="1760" y="915"/>
      <point x="1783" y="898"/>
      <point x="1824" y="898" type="curve" smooth="yes"/>
      <point x="1829" y="898"/>
      <point x="1834" y="899"/>
      <point x="1839" y="899" type="curve" smooth="yes"/>
      <point x="1839" y="899"/>
      <point x="2248" y="929"/>
      <point x="2273" y="932" type="curve"/>
      <point x="2279" y="934"/>
      <point x="2285" y="939"/>
      <point x="2287" y="945" type="curve" smooth="yes"/>
      <point x="2287" y="947"/>
      <point x="2288" y="958"/>
      <point x="2288" y="959" type="curve" smooth="yes"/>
      <point x="2301" y="1359"/>
      <point x="1849" y="1475"/>
      <point x="1432" y="1475" type="curve" smooth="yes"/>
      <point x="894" y="1475"/>
      <point x="309" y="1325"/>
      <point x="224" y="719" type="curve" smooth="yes"/>
      <point x="138" y="105"/>
      <point x="681" y="-41"/>
    </contour>
    <contour>
      <point x="1148" y="1438" type="move" name="top"/>
    </contour>
    <contour>
      <point x="1148" y="0" type="move" name="bottom"/>
    </contour>
  </outline>
</glyph>
<glyph name="D" format="1">
  <advance width="2245"/>
  <unicode hex="0044"/>
  <outline>
    <contour>
      <point x="215" y="0" type="curve" smooth="yes"/>
      <point x="1130" y="0" type="line" smooth="yes"/>
      <point x="1668" y="0"/>
      <point x="2124" y="31"/>
      <point x="2222" y="731" type="curve" smooth="yes"/>
      <point x="2297" y="1267"/>
      <point x="1902" y="1438"/>
      <point x="1427" y="1438" type="curve" smooth="yes"/>
      <point x="417" y="1438" type="line" smooth="yes"/>
      <point x="377" y="1438"/>
      <point x="342" y="1404"/>
      <point x="336" y="1361" type="curve" smooth="yes"/>
      <point x="155" y="76" type="line" smooth="yes"/>
      <point x="149" y="33"/>
      <point x="175" y="0"/>
    </contour>
    <contour>
      <point x="849" y="346" type="line" smooth="yes"/>
      <point x="833" y="346"/>
      <point x="818" y="364"/>
      <point x="820" y="381" type="curve" smooth="yes"/>
      <point x="917" y="1065" type="line" smooth="yes"/>
      <point x="919" y="1082"/>
      <point x="938" y="1099"/>
      <point x="954" y="1099" type="curve" smooth="yes"/>
      <point x="1247" y="1099" type="line" smooth="yes"/>
      <point x="1459" y="1099"/>
      <point x="1652" y="1047"/>
      <point x="1607" y="728" type="curve" smooth="yes"/>
      <point x="1559" y="384"/>
      <point x="1380" y="346"/>
      <point x="1116" y="346" type="curve" smooth="yes"/>
      <point x="933" y="346" type="line" smooth="yes"/>
    </contour>
    <contour>
      <point x="1123" y="1438" type="move" name="top"/>
    </contour>
    <contour>
      <point x="1123" y="719" type="move" name="center"/>
    </contour>
  </outline>
</glyph>
<glyph name="G" format="1">
  <advance width="2305"/>
  <unicode hex="0047"/>
  <outline>
    <contour>
      <point x="1140" y="-41" type="curve" smooth="yes"/>
      <point x="1317" y="-41"/>
      <point x="1718" y="-12"/>
      <point x="1922" y="275" type="curve" smooth="yes"/>
      <point x="1927" y="281"/>
      <point x="1932" y="285"/>
      <point x="1937" y="285" type="curve" smooth="yes"/>
      <point x="1943" y="285"/>
      <point x="1948" y="279"/>
      <point x="1949" y="271" type="curve" smooth="yes"/>
      <point x="1950" y="263"/>
      <point x="1995" y="75"/>
      <point x="1995" y="70" type="curve"/>
      <point x="2009" y="13"/>
      <point x="2050" y="0"/>
      <point x="2093" y="0" type="curve" smooth="yes"/>
      <point x="2133" y="0"/>
      <point x="2167" y="34"/>
      <point x="2173" y="77" type="curve" smooth="yes"/>
      <point x="2261" y="700" type="line" smooth="yes"/>
      <point x="2267" y="743"/>
      <point x="2240" y="777"/>
      <point x="2200" y="777" type="curve" smooth="yes"/>
      <point x="1469" y="777" type="line" smooth="yes"/>
      <point x="1429" y="777"/>
      <point x="1393" y="744"/>
      <point x="1387" y="701" type="curve" smooth="yes"/>
      <point x="1377" y="632" type="line" smooth="yes"/>
      <point x="1371" y="589"/>
      <point x="1398" y="556"/>
      <point x="1438" y="556" type="curve" smooth="yes"/>
      <point x="1672" y="556" type="line" smooth="yes"/>
      <point x="1684" y="556"/>
      <point x="1692" y="541"/>
      <point x="1690" y="527" type="curve" smooth="yes"/>
      <point x="1685" y="488"/>
      <point x="1582" y="318"/>
      <point x="1257" y="318" type="curve" smooth="yes"/>
      <point x="1012" y="318"/>
      <point x="861" y="430"/>
      <point x="902" y="719" type="curve" smooth="yes"/>
      <point x="943" y="1010"/>
      <point x="1130" y="1118"/>
      <point x="1383" y="1123" type="curve"/>
      <point x="1585" y="1123"/>
      <point x="1694" y="1064"/>
      <point x="1742" y="976" type="curve" smooth="yes"/>
      <point x="1764" y="936"/>
      <point x="1786" y="915"/>
      <point x="1834" y="915" type="curve" smooth="yes"/>
      <point x="1841" y="915"/>
      <point x="1868" y="919"/>
      <point x="2278" y="950" type="curve" smooth="yes"/>
      <point x="2285" y="951"/>
      <point x="2292" y="956"/>
      <point x="2293" y="963" type="curve" smooth="yes"/>
      <point x="2294" y="971"/>
      <point x="2295" y="980"/>
      <point x="2295" y="989" type="curve" smooth="yes"/>
      <point x="2296" y="1368"/>
      <point x="1840" y="1475"/>
      <point x="1432" y="1475" type="curve" smooth="yes"/>
      <point x="894" y="1475"/>
      <point x="309" y="1325"/>
      <point x="224" y="719" type="curve" smooth="yes"/>
      <point x="144" y="151"/>
      <point x="621" y="-41"/>
    </contour>
    <contour>
      <point x="1153" y="1438" type="move" name="top"/>
    </contour>
    <contour>
      <point x="1153" y="0" type="move" name="bottom"/>
    </contour>
  </outline>
</glyph>
<glyph name="H" format="1">
  <advance width="2217"/>
  <unicode hex="0048"/>
  <outline>
    <contour>
      <point x="215" y="0" type="curve" smooth="yes"/>
      <point x="681" y="0" type="line" smooth="yes"/>
      <point x="721" y="0"/>
      <point x="756" y="33"/>
      <point x="762" y="76" type="curve" smooth="yes"/>
      <point x="827" y="538" type="line" smooth="yes"/>
      <point x="829" y="555"/>
      <point x="847" y="571"/>
      <point x="863" y="571" type="curve" smooth="yes"/>
      <point x="1504" y="571" type="line" smooth="yes"/>
      <point x="1520" y="571"/>
      <point x="1533" y="554"/>
      <point x="1531" y="537" type="curve" smooth="yes"/>
      <point x="1466" y="76" type="line" smooth="yes"/>
      <point x="1460" y="33"/>
      <point x="1485" y="0"/>
      <point x="1525" y="0" type="curve" smooth="yes"/>
      <point x="2001" y="0" type="line" smooth="yes"/>
      <point x="2041" y="0"/>
      <point x="2076" y="33"/>
      <point x="2082" y="76" type="curve" smooth="yes"/>
      <point x="2263" y="1363" type="line" smooth="yes"/>
      <point x="2269" y="1406"/>
      <point x="2243" y="1438"/>
      <point x="2203" y="1438" type="curve" smooth="yes"/>
      <point x="1729" y="1438" type="line" smooth="yes"/>
      <point x="1689" y="1438"/>
      <point x="1654" y="1406"/>
      <point x="1648" y="1363" type="curve" smooth="yes"/>
      <point x="1588" y="940" type="line" smooth="yes"/>
      <point x="1586" y="923"/>
      <point x="1568" y="906"/>
      <point x="1552" y="906" type="curve" smooth="yes"/>
      <point x="905" y="906" type="line" smooth="yes"/>
      <point x="889" y="906"/>
      <point x="876" y="922"/>
      <point x="878" y="939" type="curve" smooth="yes"/>
      <point x="938" y="1363" type="line" smooth="yes"/>
      <point x="944" y="1406"/>
      <point x="919" y="1438"/>
      <point x="879" y="1438" type="curve" smooth="yes"/>
      <point x="417" y="1438" type="line" smooth="yes"/>
      <point x="377" y="1438"/>
      <point x="342" y="1406"/>
      <point x="336" y="1363" type="curve" smooth="yes"/>
      <point x="155" y="76" type="line" smooth="yes"/>
      <point x="149" y="33"/>
      <point x="175" y="0"/>
    </contour>
    <contour>
      <point x="1109" y="1438" type="move" name="top"/>
    </contour>
    <contour>
      <point x="1109" y="719" type="move" name="center"/>
    </contour>
  </outline>
</glyph>
<glyph name="I" format="1">
  <advance width="924"/>
  <unicode hex="0049"/>
  <outline>
    <contour>
      <point x="215" y="0" type="curve" smooth="yes"/>
      <point x="709" y="0" type="line" smooth="yes"/>
      <point x="749" y="0"/>
      <point x="784" y="33"/>
      <point x="790" y="76" type="curve" smooth="yes"/>
      <point x="971" y="1363" type="line" smooth="yes"/>
      <point x="977" y="1406"/>
      <point x="951" y="1438"/>
      <point x="911" y="1438" type="curve" smooth="yes"/>
      <point x="417" y="1438" type="line" smooth="yes"/>
      <point x="377" y="1438"/>
      <point x="342" y="1406"/>
      <point x="336" y="1363" type="curve" smooth="yes"/>
      <point x="155" y="76" type="line" smooth="yes"/>
      <point x="149" y="33"/>
      <point x="175" y="0"/>
    </contour>
    <contour>
      <point x="462" y="1438" type="move" name="top"/>
    </contour>
    <contour>
      <point x="832" y="10" type="move" name="ogonek"/>
    </contour>
  </outline>
</glyph>
<glyph name="J" format="1">
  <advance width="1297"/>
  <unicode hex="004A"/>
  <outline>
    <contour>
      <point x="109" y="-174" type="curve" smooth="yes"/>
      <point x="583" y="-169"/>
      <point x="1146" y="-54"/>
      <point x="1235" y="578" type="curve" smooth="yes"/>
      <point x="1350" y="1397" type="line" smooth="yes"/>
      <point x="1353" y="1420"/>
      <point x="1339" y="1438"/>
      <point x="1317" y="1438" type="curve" smooth="yes"/>
      <point x="728" y="1438" type="line" smooth="yes"/>
      <point x="707" y="1438"/>
      <point x="687" y="1420"/>
      <point x="684" y="1397" type="curve" smooth="yes"/>
      <point x="569" y="578" type="line" smooth="yes"/>
      <point x="527" y="277"/>
      <point x="375" y="199"/>
      <point x="160" y="191" type="curve" smooth="yes"/>
      <point x="141" y="190"/>
      <point x="124" y="174"/>
      <point x="121" y="150" type="curve" smooth="yes"/>
      <point x="81" y="-135" type="line" smooth="yes"/>
      <point x="78" y="-157"/>
      <point x="91" y="-174"/>
    </contour>
    <contour>
      <point x="649" y="1438" type="move" name="top"/>
    </contour>
  </outline>
</glyph>
<glyph name="K" format="1">
  <advance width="2039"/>
  <unicode hex="004B"/>
  <outline>
    <contour>
      <point x="215" y="0" type="curve" smooth="yes"/>
      <point x="709" y="0" type="line" smooth="yes"/>
      <point x="749" y="0"/>
      <point x="784" y="33"/>
      <point x="790" y="76" type="curve" smooth="yes"/>
      <point x="873" y="667" type="line"/>
      <point x="1221" y="64" type="line" smooth="yes"/>
      <point x="1243" y="26"/>
      <point x="1280" y="0"/>
      <point x="1323" y="0" type="curve" smooth="yes"/>
      <point x="1894" y="0" type="line" smooth="yes"/>
      <point x="1915" y="0"/>
      <point x="1932" y="17"/>
      <point x="1935" y="37" type="curve" smooth="yes"/>
      <point x="1936" y="46"/>
      <point x="1935" y="54"/>
      <point x="1930" y="63" type="curve" smooth="yes"/>
      <point x="1493" y="784" type="line" smooth="yes"/>
      <point x="1486" y="795"/>
      <point x="1484" y="803"/>
      <point x="1485" y="810" type="curve" smooth="yes"/>
      <point x="1486" y="820"/>
      <point x="1495" y="829"/>
      <point x="1511" y="845" type="curve" smooth="yes"/>
      <point x="2034" y="1377" type="line" smooth="yes"/>
      <point x="2042" y="1385"/>
      <point x="2046" y="1394"/>
      <point x="2047" y="1403" type="curve" smooth="yes"/>
      <point x="2050" y="1422"/>
      <point x="2038" y="1438"/>
      <point x="2017" y="1438" type="curve" smooth="yes"/>
      <point x="1541" y="1438" type="line" smooth="yes"/>
      <point x="1498" y="1438"/>
      <point x="1450" y="1412"/>
      <point x="1419" y="1378" type="curve" smooth="yes"/>
      <point x="894" y="820" type="line"/>
      <point x="971" y="1363" type="line" smooth="yes"/>
      <point x="977" y="1406"/>
      <point x="951" y="1438"/>
      <point x="911" y="1438" type="curve" smooth="yes"/>
      <point x="417" y="1438" type="line" smooth="yes"/>
      <point x="377" y="1438"/>
      <point x="342" y="1406"/>
      <point x="336" y="1363" type="curve" smooth="yes"/>
      <point x="155" y="76" type="line" smooth="yes"/>
      <point x="149" y="33"/>
      <point x="175" y="0"/>
    </contour>
    <contour>
      <point x="1020" y="1438" type="move" name="top"/>
    </contour>
    <contour>
      <point x="1020" y="0" type="move" name="bottom"/>
    </contour>
  </outline>
</glyph>
<glyph name="M" format="1">
  <advance width="2733"/>
  <unicode hex="004D"/>
  <outline>
    <contour>
      <point x="204" y="0" type="curve" smooth="yes"/>
      <point x="619" y="0" type="line" smooth="yes"/>
      <point x="659" y="0"/>
      <point x="695" y="33"/>
      <point x="701" y="76" type="curve"/>
      <point x="848" y="804" type="line" smooth="yes"/>
      <point x="849" y="811"/>
      <point x="853" y="814"/>
      <point x="857" y="814" type="curve" smooth="yes"/>
      <point x="860" y="814"/>
      <point x="863" y="812"/>
      <point x="864" y="808" type="curve" smooth="yes"/>
      <point x="1162" y="67" type="line" smooth="yes"/>
      <point x="1178" y="26"/>
      <point x="1215" y="0"/>
      <point x="1258" y="0" type="curve" smooth="yes"/>
      <point x="1472" y="0" type="line" smooth="yes"/>
      <point x="1515" y="0"/>
      <point x="1560" y="26"/>
      <point x="1587" y="67" type="curve" smooth="yes"/>
      <point x="2096" y="810" type="line" smooth="yes"/>
      <point x="2098" y="814"/>
      <point x="2103" y="816"/>
      <point x="2106" y="816" type="curve" smooth="yes"/>
      <point x="2110" y="816"/>
      <point x="2113" y="813"/>
      <point x="2112" y="806" type="curve" smooth="yes"/>
      <point x="2053" y="76" type="line"/>
      <point x="2048" y="33"/>
      <point x="2074" y="0"/>
      <point x="2114" y="0" type="curve" smooth="yes"/>
      <point x="2529" y="0" type="line" smooth="yes"/>
      <point x="2569" y="0"/>
      <point x="2603" y="33"/>
      <point x="2609" y="76" type="curve"/>
      <point x="2712" y="1363" type="line"/>
      <point x="2717" y="1405"/>
      <point x="2691" y="1438"/>
      <point x="2652" y="1438" type="curve" smooth="yes"/>
      <point x="2068" y="1438" type="line" smooth="yes"/>
      <point x="2024" y="1438"/>
      <point x="1981" y="1411"/>
      <point x="1955" y="1371" type="curve" smooth="yes"/>
      <point x="1472" y="646" type="line" smooth="yes"/>
      <point x="1466" y="637"/>
      <point x="1459" y="633"/>
      <point x="1454" y="633" type="curve" smooth="yes"/>
      <point x="1448" y="633"/>
      <point x="1443" y="638"/>
      <point x="1440" y="646" type="curve" smooth="yes"/>
      <point x="1164" y="1371" type="line" smooth="yes"/>
      <point x="1149" y="1411"/>
      <point x="1113" y="1438"/>
      <point x="1070" y="1438" type="curve" smooth="yes"/>
      <point x="486" y="1438" type="line" smooth="yes"/>
      <point x="447" y="1438"/>
      <point x="411" y="1405"/>
      <point x="405" y="1363" type="curve"/>
      <point x="145" y="76" type="line"/>
      <point x="138" y="33"/>
      <point x="164" y="0"/>
    </contour>
  </outline>
</glyph>
<glyph name="T" format="1">
  <advance width="1970"/>
  <unicode hex="0054"/>
  <outline>
    <contour>
      <point x="751" y="0" type="curve" smooth="yes"/>
      <point x="1217" y="0" type="line" smooth="yes"/>
      <point x="1257" y="0"/>
      <point x="1292" y="33"/>
      <point x="1298" y="76" type="curve" smooth="yes"/>
      <point x="1437" y="1069" type="line" smooth="yes"/>
      <point x="1440" y="1089"/>
      <point x="1457" y="1104"/>
      <point x="1476" y="1104" type="curve" smooth="yes"/>
      <point x="1956" y="1104" type="line" smooth="yes"/>
      <point x="1996" y="1104"/>
      <point x="2032" y="1138"/>
      <point x="2038" y="1181" type="curve" smooth="yes"/>
      <point x="2063" y="1361" type="line" smooth="yes"/>
      <point x="2069" y="1404"/>
      <point x="2043" y="1438"/>
      <point x="2003" y="1438" type="curve" smooth="yes"/>
      <point x="366" y="1438" type="line" smooth="yes"/>
      <point x="326" y="1438"/>
      <point x="291" y="1404"/>
      <point x="285" y="1361" type="curve" smooth="yes"/>
      <point x="260" y="1181" type="line" smooth="yes"/>
      <point x="254" y="1138"/>
      <point x="279" y="1104"/>
      <point x="319" y="1104" type="curve" smooth="yes"/>
      <point x="803" y="1104" type="line" smooth="yes"/>
      <point x="822" y="1104"/>
      <point x="834" y="1089"/>
      <point x="831" y="1069" type="curve" smooth="yes"/>
      <point x="691" y="76" type="line" smooth="yes"/>
      <point x="685" y="33"/>
      <point x="711" y="0"/>
    </contour>
    <contour>
      <point x="985" y="1438" type="move" name="top"/>
    </contour>
    <contour>
      <point x="985" y="0" type="move" name="bottom"/>
    </contour>
    <contour>
      <point x="985" y="719" type="move" name="center"/>
    </contour>
  </outline>
</glyph>
<glyph name="U" format="1">
  <advance width="2438"/>
  <unicode hex="0055"/>
  <outline>
    <contour>
      <point x="1230" y="-41" type="curve" smooth="yes"/>
      <point x="1694" y="-41"/>
      <point x="2310" y="66"/>
      <point x="2401" y="711" type="curve" smooth="yes"/>
      <point x="2493" y="1363" type="line" smooth="yes"/>
      <point x="2499" y="1406"/>
      <point x="2473" y="1438"/>
      <point x="2433" y="1438" type="curve" smooth="yes"/>
      <point x="1896" y="1438" type="line" smooth="yes"/>
      <point x="1856" y="1438"/>
      <point x="1821" y="1406"/>
      <point x="1815" y="1363" type="curve" smooth="yes"/>
      <point x="1723" y="711" type="line" smooth="yes"/>
      <point x="1679" y="397"/>
      <point x="1512" y="322"/>
      <point x="1281" y="322" type="curve" smooth="yes"/>
      <point x="1050" y="322"/>
      <point x="902" y="397"/>
      <point x="946" y="711" type="curve" smooth="yes"/>
      <point x="1038" y="1363" type="line" smooth="yes"/>
      <point x="1044" y="1406"/>
      <point x="1021" y="1438"/>
      <point x="978" y="1438" type="curve" smooth="yes"/>
      <point x="408" y="1438" type="line" smooth="yes"/>
      <point x="371" y="1438"/>
      <point x="334" y="1406"/>
      <point x="328" y="1363" type="curve" smooth="yes"/>
      <point x="236" y="711" type="line" smooth="yes"/>
      <point x="145" y="66"/>
      <point x="753" y="-41"/>
    </contour>
    <contour>
      <point x="1219" y="1438" type="move" name="top"/>
    </contour>
    <contour>
      <point x="2194" y="10" type="move" name="ogonek"/>
    </contour>
  </outline>
</glyph>
<glyph name="V" format="1">
  <advance width="2173"/>
  <unicode hex="0056"/>
  <outline>
    <contour>
      <point x="850" y="0" type="curve"/>
      <point x="1343" y="0" type="line"/>
      <point x="1386" y="1"/>
      <point x="1430" y="27"/>
      <point x="1455" y="67" type="curve" smooth="yes"/>
      <point x="2293" y="1371" type="line" smooth="yes"/>
      <point x="2298" y="1379"/>
      <point x="2301" y="1386"/>
      <point x="2302" y="1394" type="curve" smooth="yes"/>
      <point x="2305" y="1418"/>
      <point x="2290" y="1438"/>
      <point x="2265" y="1438" type="curve" smooth="yes"/>
      <point x="1835" y="1438" type="line" smooth="yes"/>
      <point x="1792" y="1438"/>
      <point x="1747" y="1412"/>
      <point x="1721" y="1371" type="curve" smooth="yes"/>
      <point x="1199" y="550" type="line"/>
      <point x="903" y="1371" type="line" smooth="yes"/>
      <point x="887" y="1412"/>
      <point x="851" y="1438"/>
      <point x="808" y="1438" type="curve" smooth="yes"/>
      <point x="309" y="1438" type="line" smooth="yes"/>
      <point x="284" y="1438"/>
      <point x="265" y="1419"/>
      <point x="262" y="1396" type="curve" smooth="yes"/>
      <point x="261" y="1388"/>
      <point x="262" y="1379"/>
      <point x="265" y="1371" type="curve" smooth="yes"/>
      <point x="755" y="67" type="line" smooth="yes"/>
      <point x="770" y="27"/>
      <point x="807" y="1"/>
    </contour>
  </outline>
</glyph>
<glyph name="Z" format="1">
  <advance width="1916"/>
  <unicode hex="005A"/>
  <outline>
    <contour>
      <point x="202" y="0" type="curve" smooth="yes"/>
      <point x="1717" y="0" type="line" smooth="yes"/>
      <point x="1757" y="0"/>
      <point x="1791" y="34"/>
      <point x="1797" y="77" type="curve" smooth="yes"/>
      <point x="1825" y="273" type="line" smooth="yes"/>
      <point x="1831" y="316"/>
      <point x="1806" y="350"/>
      <point x="1766" y="350" type="curve" smooth="yes"/>
      <point x="1021" y="350" type="line" smooth="yes"/>
      <point x="1013" y="350"/>
      <point x="1008" y="356"/>
      <point x="1009" y="364" type="curve" smooth="yes"/>
      <point x="1010" y="368"/>
      <point x="1012" y="371"/>
      <point x="1016" y="375" type="curve" smooth="yes"/>
      <point x="1851" y="1083" type="line" smooth="yes"/>
      <point x="1885" y="1112"/>
      <point x="1913" y="1160"/>
      <point x="1920" y="1207" type="curve" smooth="yes"/>
      <point x="1941" y="1361" type="line" smooth="yes"/>
      <point x="1947" y="1404"/>
      <point x="1922" y="1438"/>
      <point x="1882" y="1438" type="curve" smooth="yes"/>
      <point x="432" y="1438" type="line" smooth="yes"/>
      <point x="392" y="1438"/>
      <point x="357" y="1404"/>
      <point x="351" y="1361" type="curve" smooth="yes"/>
      <point x="324" y="1167" type="line" smooth="yes"/>
      <point x="318" y="1124"/>
      <point x="343" y="1090"/>
      <point x="383" y="1090" type="curve" smooth="yes"/>
      <point x="1039" y="1090" type="line" smooth="yes"/>
      <point x="1049" y="1090"/>
      <point x="1053" y="1083"/>
      <point x="1052" y="1075" type="curve" smooth="yes"/>
      <point x="1051" y="1071"/>
      <point x="1049" y="1067"/>
      <point x="1044" y="1062" type="curve" smooth="yes"/>
      <point x="231" y="361" type="line"/>
      <point x="196" y="333"/>
      <point x="171" y="287"/>
      <point x="165" y="244" type="curve" smooth="yes"/>
      <point x="142" y="77" type="line" smooth="yes"/>
      <point x="136" y="34"/>
      <point x="162" y="0"/>
    </contour>
    <contour>
      <point x="958" y="1438" type="move" name="top"/>
    </contour>
  </outline>
</glyph>
<glyph name="bracketleft" format="1">
  <advance width="1281"/>
  <unicode hex="005B"/>
  <outline>
    <contour>
      <point x="194" y="-174" type="curve" smooth="yes"/>
      <point x="1069" y="-174" type="line" smooth="yes"/>
      <point x="1109" y="-174"/>
      <point x="1143" y="-143"/>
      <point x="1149" y="-100" type="curve" smooth="yes"/>
      <point x="1177" y="102" type="line" smooth="yes"/>
      <point x="1183" y="145"/>
      <point x="1158" y="176"/>
      <point x="1118" y="176" type="curve" smooth="yes"/>
      <point x="767" y="176" type="line" smooth="yes"/>
      <point x="748" y="176"/>
      <point x="736" y="192"/>
      <point x="739" y="212" type="curve" smooth="yes"/>
      <point x="885" y="1251" type="line" smooth="yes"/>
      <point x="888" y="1271"/>
      <point x="904" y="1286"/>
      <point x="923" y="1286" type="curve" smooth="yes"/>
      <point x="1274" y="1286" type="line" smooth="yes"/>
      <point x="1314" y="1286"/>
      <point x="1348" y="1317"/>
      <point x="1354" y="1360" type="curve" smooth="yes"/>
      <point x="1383" y="1564" type="line" smooth="yes"/>
      <point x="1389" y="1607"/>
      <point x="1363" y="1638"/>
      <point x="1323" y="1638" type="curve" smooth="yes"/>
      <point x="448" y="1638" type="line" smooth="yes"/>
      <point x="408" y="1638"/>
      <point x="372" y="1604"/>
      <point x="366" y="1561" type="curve" smooth="yes"/>
      <point x="133" y="-97" type="line" smooth="yes"/>
      <point x="127" y="-140"/>
      <point x="154" y="-174"/>
    </contour>
  </outline>
</glyph>
<glyph name="asciicircum" format="1">
  <advance width="1212"/>
  <unicode hex="005E"/>
  <outline>
    <contour>
      <point x="-47" y="201" type="curve" smooth="yes"/>
      <point x="268" y="201" type="line" smooth="yes"/>
      <point x="311" y="201"/>
      <point x="353" y="229"/>
      <point x="377" y="270" type="curve" smooth="yes"/>
      <point x="683" y="802" type="line" smooth="yes"/>
      <point x="687" y="809"/>
      <point x="693" y="812"/>
      <point x="699" y="812" type="curve" smooth="yes"/>
      <point x="705" y="812"/>
      <point x="709" y="809"/>
      <point x="712" y="802" type="curve" smooth="yes"/>
      <point x="870" y="270" type="line" smooth="yes"/>
      <point x="882" y="229"/>
      <point x="916" y="201"/>
      <point x="959" y="201" type="curve" smooth="yes"/>
      <point x="1295" y="201" type="line" smooth="yes"/>
      <point x="1320" y="201"/>
      <point x="1341" y="223"/>
      <point x="1344" y="247" type="curve" smooth="yes"/>
      <point x="1345" y="255"/>
      <point x="1345" y="262"/>
      <point x="1342" y="269" type="curve" smooth="yes"/>
      <point x="1037" y="1139" type="line" smooth="yes"/>
      <point x="1022" y="1180"/>
      <point x="988" y="1207"/>
      <point x="944" y="1207" type="curve" smooth="yes"/>
      <point x="602" y="1207" type="line" smooth="yes"/>
      <point x="558" y="1207"/>
      <point x="515" y="1180"/>
      <point x="489" y="1140" type="curve" smooth="yes"/>
      <point x="-75" y="268" type="line" smooth="yes"/>
      <point x="-80" y="261"/>
      <point x="-83" y="253"/>
      <point x="-84" y="246" type="curve" smooth="yes"/>
      <point x="-87" y="223"/>
      <point x="-72" y="201"/>
    </contour>
  </outline>
</glyph>
<glyph name="underscore" format="1">
  <advance width="1078"/>
  <unicode hex="005F"/>
  <outline>
    <contour>
      <point x="112" y="-277" type="curve" smooth="yes"/>
      <point x="885" y="-277" type="line" smooth="yes"/>
      <point x="925" y="-277"/>
      <point x="949" y="-246"/>
      <point x="955" y="-203" type="curve" smooth="yes"/>
      <point x="974" y="-73" type="line" smooth="yes"/>
      <point x="980" y="-30"/>
      <point x="964" y="0"/>
      <point x="924" y="0" type="curve" smooth="yes"/>
      <point x="151" y="0" type="line" smooth="yes"/>
      <point x="111" y="0"/>
      <point x="87" y="-30"/>
      <point x="81" y="-73" type="curve" smooth="yes"/>
      <point x="62" y="-203" type="line" smooth="yes"/>
      <point x="56" y="-246"/>
      <point x="72" y="-277"/>
    </contour>
  </outline>
</glyph>
<glyph name="grave" format="1">
  <advance width="1596"/>
  <unicode hex="0060"/>
  <outline>
    <contour>
      <point x="983" y="1172" type="curve" smooth="yes"/>
      <point x="1106" y="1172" type="line" smooth="yes"/>
      <point x="1110" y="1172" type="line" smooth="yes"/>
      <point x="1131" y="1172"/>
      <point x="1143" y="1179"/>
      <point x="1146" y="1202" type="curve" smooth="yes"/>
      <point x="1147" y="1210"/>
      <point x="1147" y="1221"/>
      <point x="1146" y="1234" type="curve" smooth="yes"/>
      <point x="1135" y="1563" type="line" smooth="yes"/>
      <point x="1133" y="1601"/>
      <point x="1120" y="1614"/>
      <point x="1084" y="1615" type="curve"/>
      <point x="1083" y="1618"/>
      <point x="861" y="1618"/>
      <point x="858" y="1618" type="curve" smooth="yes"/>
      <point x="842" y="1618"/>
      <point x="811" y="1608"/>
      <point x="809" y="1594" type="curve"/>
      <point x="806" y="1591"/>
      <point x="805" y="1588"/>
      <point x="804" y="1584" type="curve" smooth="yes"/>
      <point x="803" y="1576"/>
      <point x="806" y="1566"/>
      <point x="811" y="1555" type="curve" smooth="yes"/>
      <point x="936" y="1211" type="line"/>
      <point x="943" y="1195"/>
      <point x="949" y="1172"/>
    </contour>
    <contour>
      <point x="975.279" y="1006" type="move" name="_top"/>
    </contour>
  </outline>
</glyph>
<glyph name="f" format="1">
  <advance width="1423"/>
  <unicode hex="0066"/>
  <outline>
    <contour>
      <point x="400" y="0" type="curve" smooth="yes"/>
      <point x="774" y="0" type="line" smooth="yes"/>
      <point x="812" y="0"/>
      <point x="847" y="34"/>
      <point x="853" y="77" type="curve" smooth="yes"/>
      <point x="950" y="762" type="line" smooth="yes"/>
      <point x="953" y="782"/>
      <point x="957" y="799"/>
      <point x="975" y="799" type="curve" smooth="yes"/>
      <point x="1330" y="799" type="line" smooth="yes"/>
      <point x="1369" y="799"/>
      <point x="1392" y="808"/>
      <point x="1398" y="851" type="curve" smooth="yes"/>
      <point x="1412" y="951" type="line" smooth="yes"/>
      <point x="1418" y="994"/>
      <point x="1398" y="1006"/>
      <point x="1359" y="1006" type="curve" smooth="yes"/>
      <point x="990" y="1006" type="line" smooth="yes"/>
      <point x="986" y="1006"/>
      <point x="985" y="1010"/>
      <point x="985" y="1013" type="curve" smooth="yes"/>
      <point x="992" y="1062" type="line" smooth="yes"/>
      <point x="1005" y="1158"/>
      <point x="1097" y="1199"/>
      <point x="1245" y="1199" type="curve" smooth="yes"/>
      <point x="1304" y="1199"/>
      <point x="1425" y="1181"/>
      <point x="1429" y="1181" type="curve" smooth="yes"/>
      <point x="1460" y="1181"/>
      <point x="1468" y="1193"/>
      <point x="1473" y="1230" type="curve" smooth="yes"/>
      <point x="1493" y="1377" type="line" smooth="yes"/>
      <point x="1497" y="1405"/>
      <point x="1481" y="1431"/>
      <point x="1457" y="1438" type="curve"/>
      <point x="1365" y="1456"/>
      <point x="1244" y="1475"/>
      <point x="1126" y="1475" type="curve" smooth="yes"/>
      <point x="836" y="1475"/>
      <point x="543" y="1367"/>
      <point x="479" y="1044" type="curve" smooth="yes"/>
      <point x="475" y="1022"/>
      <point x="473" y="1006"/>
      <point x="453" y="1006" type="curve" smooth="yes"/>
      <point x="318" y="1006" type="line" smooth="yes"/>
      <point x="279" y="1006"/>
      <point x="255" y="988"/>
      <point x="249" y="945" type="curve" smooth="yes"/>
      <point x="236" y="851" type="line" smooth="yes"/>
      <point x="230" y="808"/>
      <point x="250" y="799"/>
      <point x="289" y="799" type="curve" smooth="yes"/>
      <point x="426" y="799" type="line" smooth="yes"/>
      <point x="444" y="799"/>
      <point x="442" y="782"/>
      <point x="439" y="762" type="curve" smooth="yes"/>
      <point x="342" y="77" type="line" smooth="yes"/>
      <point x="336" y="34"/>
      <point x="362" y="0"/>
    </contour>
  </outline>
</glyph>
<glyph name="g" format="1">
  <advance width="1577"/>
  <unicode hex="0067"/>
  <outline>
    <contour>
      <point x="829" y="518" type="curve" smooth="yes"/>
      <point x="667" y="518"/>
      <point x="612" y="592"/>
      <point x="624" y="679" type="curve" smooth="yes"/>
      <point x="635" y="758"/>
      <point x="708" y="832"/>
      <point x="873" y="832" type="curve" smooth="yes"/>
      <point x="1034" y="832"/>
      <point x="1091" y="754"/>
      <point x="1079" y="667" type="curve" smooth="yes"/>
      <point x="1068" y="588"/>
      <point x="996" y="518"/>
    </contour>
    <contour>
      <point x="699" y="-437" type="curve" smooth="yes"/>
      <point x="504" y="-437"/>
      <point x="428" y="-389"/>
      <point x="435" y="-340" type="curve" smooth="yes"/>
      <point x="440" y="-302"/>
      <point x="551" y="-204"/>
      <point x="575" y="-204" type="curve" smooth="yes"/>
      <point x="956" y="-204" type="line" smooth="yes"/>
      <point x="1061" y="-204"/>
      <point x="1117" y="-262"/>
      <point x="1110" y="-314" type="curve" smooth="yes"/>
      <point x="1101" y="-375"/>
      <point x="1075" y="-437"/>
    </contour>
    <contour>
      <point x="671" y="-732" type="curve" smooth="yes"/>
      <point x="1245" y="-732"/>
      <point x="1405" y="-534"/>
      <point x="1441" y="-281" type="curve" smooth="yes"/>
      <point x="1471" y="-69"/>
      <point x="1382" y="130"/>
      <point x="979" y="130" type="curve" smooth="yes"/>
      <point x="707" y="130" type="line" smooth="yes"/>
      <point x="538" y="130"/>
      <point x="457" y="143"/>
      <point x="466" y="204" type="curve" smooth="yes"/>
      <point x="469" y="222"/>
      <point x="484" y="261"/>
      <point x="497" y="278" type="curve"/>
      <point x="508" y="294"/>
      <point x="534" y="308"/>
      <point x="550" y="304" type="curve" smooth="yes"/>
      <point x="622" y="286"/>
      <point x="718" y="275"/>
      <point x="830" y="275" type="curve" smooth="yes"/>
      <point x="1280" y="275"/>
      <point x="1441" y="465"/>
      <point x="1471" y="675" type="curve" smooth="yes"/>
      <point x="1489" y="804"/>
      <point x="1408" y="913"/>
      <point x="1274" y="976" type="curve"/>
      <point x="1260" y="984"/>
      <point x="1256" y="1005"/>
      <point x="1267" y="1021" type="curve" smooth="yes"/>
      <point x="1476" y="1316" type="line" smooth="yes"/>
      <point x="1481" y="1323"/>
      <point x="1484" y="1330"/>
      <point x="1485" y="1338" type="curve" smooth="yes"/>
      <point x="1488" y="1360"/>
      <point x="1476" y="1380"/>
      <point x="1454" y="1380" type="curve" smooth="yes"/>
      <point x="1261" y="1380" type="line" smooth="yes"/>
      <point x="1222" y="1380"/>
      <point x="1184" y="1348"/>
      <point x="1170" y="1306" type="curve" smooth="yes"/>
      <point x="1088" y="1070" type="line" smooth="yes"/>
      <point x="1082" y="1051"/>
      <point x="1061" y="1036"/>
      <point x="1044" y="1039" type="curve" smooth="yes"/>
      <point x="1003" y="1044"/>
      <point x="959" y="1053"/>
      <point x="906" y="1053" type="curve" smooth="yes"/>
      <point x="443" y="1053"/>
      <point x="253" y="875"/>
      <point x="225" y="675" type="curve" smooth="yes"/>
      <point x="211" y="577"/>
      <point x="252" y="474"/>
      <point x="331" y="397" type="curve" smooth="yes"/>
      <point x="337" y="392"/>
      <point x="339" y="386"/>
      <point x="338" y="379" type="curve" smooth="yes"/>
      <point x="337" y="371"/>
      <point x="332" y="363"/>
      <point x="323" y="358" type="curve" smooth="yes"/>
      <point x="239" y="305"/>
      <point x="166" y="207"/>
      <point x="152" y="105" type="curve" smooth="yes"/>
      <point x="138" y="8"/>
      <point x="198" y="-85"/>
      <point x="299" y="-138" type="curve" smooth="yes"/>
      <point x="305" y="-142"/>
      <point x="309" y="-147"/>
      <point x="308" y="-154" type="curve" smooth="yes"/>
      <point x="307" y="-159"/>
      <point x="302" y="-166"/>
      <point x="296" y="-169" type="curve" smooth="yes"/>
      <point x="171" y="-248"/>
      <point x="94" y="-388"/>
      <point x="82" y="-472" type="curve" smooth="yes"/>
      <point x="61" y="-621"/>
      <point x="242" y="-732"/>
    </contour>
    <contour>
      <point x="789" y="1006" type="move" name="top"/>
    </contour>
  </outline>
</glyph>
<glyph name="h" format="1">
  <advance width="1817"/>
  <unicode hex="0068"/>
  <outline>
    <contour>
      <point x="212" y="0" type="curve" smooth="yes"/>
      <point x="567" y="0" type="line" smooth="yes"/>
      <point x="605" y="0"/>
      <point x="639" y="33"/>
      <point x="645" y="76" type="curve" smooth="yes"/>
      <point x="706" y="513" type="line" smooth="yes"/>
      <point x="725" y="646"/>
      <point x="852" y="781"/>
      <point x="1029" y="781" type="curve" smooth="yes"/>
      <point x="1196" y="781"/>
      <point x="1273" y="658"/>
      <point x="1253" y="513" type="curve" smooth="yes"/>
      <point x="1191" y="76" type="line" smooth="yes"/>
      <point x="1185" y="33"/>
      <point x="1209" y="0"/>
      <point x="1248" y="0" type="curve" smooth="yes"/>
      <point x="1620" y="0" type="line" smooth="yes"/>
      <point x="1659" y="0"/>
      <point x="1692" y="33"/>
      <point x="1698" y="76" type="curve" smooth="yes"/>
      <point x="1760" y="518" type="line" smooth="yes"/>
      <point x="1809" y="868"/>
      <point x="1549" y="1053"/>
      <point x="1236" y="1053" type="curve" smooth="yes"/>
      <point x="1080" y="1053"/>
      <point x="918" y="1006"/>
      <point x="786" y="909" type="curve" smooth="yes"/>
      <point x="783" y="907"/>
      <point x="779" y="906"/>
      <point x="776" y="906" type="curve" smooth="yes"/>
      <point x="768" y="906"/>
      <point x="762" y="912"/>
      <point x="764" y="923" type="curve" smooth="yes"/>
      <point x="826" y="1362" type="line" smooth="yes"/>
      <point x="832" y="1405"/>
      <point x="807" y="1438"/>
      <point x="769" y="1438" type="curve" smooth="yes"/>
      <point x="414" y="1438" type="line" smooth="yes"/>
      <point x="376" y="1438"/>
      <point x="342" y="1405"/>
      <point x="336" y="1362" type="curve" smooth="yes"/>
      <point x="155" y="76" type="line" smooth="yes"/>
      <point x="149" y="33"/>
      <point x="174" y="0"/>
    </contour>
    <contour>
      <point x="909" y="1006" type="move" name="top"/>
    </contour>
    <contour>
      <point x="909" y="503" type="move" name="center"/>
    </contour>
  </outline>
</glyph>
<glyph name="i" format="1">
  <advance width="779"/>
  <unicode hex="0069"/>
  <outline>
    <contour>
      <point x="376" y="1156" type="curve" smooth="yes"/>
      <point x="730" y="1156" type="line" smooth="yes"/>
      <point x="768" y="1156"/>
      <point x="801" y="1189"/>
      <point x="807" y="1232" type="curve" smooth="yes"/>
      <point x="837" y="1441" type="line" smooth="yes"/>
      <point x="843" y="1484"/>
      <point x="819" y="1516"/>
      <point x="781" y="1516" type="curve" smooth="yes"/>
      <point x="426" y="1516" type="line" smooth="yes"/>
      <point x="388" y="1516"/>
      <point x="354" y="1484"/>
      <point x="348" y="1441" type="curve" smooth="yes"/>
      <point x="319" y="1232" type="line" smooth="yes"/>
      <point x="313" y="1189"/>
      <point x="338" y="1156"/>
    </contour>
    <contour>
      <point x="213" y="0" type="curve" smooth="yes"/>
      <point x="567" y="0" type="line" smooth="yes"/>
      <point x="605" y="0"/>
      <point x="639" y="33"/>
      <point x="645" y="76" type="curve" smooth="yes"/>
      <point x="765" y="931" type="line" smooth="yes"/>
      <point x="771" y="974"/>
      <point x="747" y="1006"/>
      <point x="709" y="1006" type="curve" smooth="yes"/>
      <point x="355" y="1006" type="line" smooth="yes"/>
      <point x="317" y="1006"/>
      <point x="282" y="974"/>
      <point x="276" y="931" type="curve" smooth="yes"/>
      <point x="156" y="76" type="line" smooth="yes"/>
      <point x="150" y="33"/>
      <point x="175" y="0"/>
    </contour>
  </outline>
</glyph>
<glyph name="q" format="1">
  <advance width="1827"/>
  <unicode hex="0071"/>
  <outline>
    <contour>
      <point x="939" y="213" type="curve" smooth="yes"/>
      <point x="765" y="213"/>
      <point x="679" y="341"/>
      <point x="701" y="498" type="curve" smooth="yes"/>
      <point x="722" y="648"/>
      <point x="843" y="781"/>
      <point x="1020" y="781" type="curve" smooth="yes"/>
      <point x="1205" y="781"/>
      <point x="1289" y="649"/>
      <point x="1268" y="498" type="curve" smooth="yes"/>
      <point x="1246" y="344"/>
      <point x="1123" y="213"/>
    </contour>
    <contour>
      <point x="1220" y="-318" type="curve" smooth="yes"/>
      <point x="1575" y="-318" type="line" smooth="yes"/>
      <point x="1613" y="-318"/>
      <point x="1646" y="-286"/>
      <point x="1652" y="-243" type="curve" smooth="yes"/>
      <point x="1816" y="924" type="line" smooth="yes"/>
      <point x="1822" y="967"/>
      <point x="1800" y="999"/>
      <point x="1762" y="999" type="curve" smooth="yes"/>
      <point x="1677" y="999" type="line" smooth="yes"/>
      <point x="1638" y="999"/>
      <point x="1595" y="975"/>
      <point x="1566" y="933" type="curve"/>
      <point x="1564" y="927"/>
      <point x="1480" y="816"/>
      <point x="1478" y="811" type="curve"/>
      <point x="1472" y="803"/>
      <point x="1465" y="799"/>
      <point x="1459" y="799" type="curve" smooth="yes"/>
      <point x="1453" y="799"/>
      <point x="1447" y="803"/>
      <point x="1442" y="809" type="curve" smooth="yes"/>
      <point x="1350" y="971"/>
      <point x="1146" y="1053"/>
      <point x="933" y="1053" type="curve" smooth="yes"/>
      <point x="604" y="1053"/>
      <point x="244" y="883"/>
      <point x="192" y="511" type="curve" smooth="yes"/>
      <point x="137" y="119"/>
      <point x="443" y="-41"/>
      <point x="749" y="-41" type="curve" smooth="yes"/>
      <point x="911" y="-41"/>
      <point x="1072" y="-3"/>
      <point x="1184" y="76" type="curve" smooth="yes"/>
      <point x="1187" y="78"/>
      <point x="1190" y="80"/>
      <point x="1194" y="80" type="curve" smooth="yes"/>
      <point x="1202" y="80"/>
      <point x="1209" y="72"/>
      <point x="1207" y="61" type="curve" smooth="yes"/>
      <point x="1164" y="-243" type="line" smooth="yes"/>
      <point x="1158" y="-286"/>
      <point x="1182" y="-318"/>
    </contour>
  </outline>
</glyph>
<glyph name="r" format="1">
  <advance width="1228"/>
  <unicode hex="0072"/>
  <outline>
    <contour>
      <point x="208" y="0" type="curve" smooth="yes"/>
      <point x="566" y="0" type="line" smooth="yes"/>
      <point x="605" y="0"/>
      <point x="638" y="33"/>
      <point x="644" y="76" type="curve" smooth="yes"/>
      <point x="699" y="466" type="line" smooth="yes"/>
      <point x="714" y="572"/>
      <point x="808" y="742"/>
      <point x="1003" y="742" type="curve" smooth="yes"/>
      <point x="1169" y="742" type="line" smooth="yes"/>
      <point x="1202" y="742"/>
      <point x="1216" y="774"/>
      <point x="1221" y="807" type="curve" smooth="yes"/>
      <point x="1247" y="990" type="line" smooth="yes"/>
      <point x="1252" y="1026"/>
      <point x="1233" y="1053"/>
      <point x="1124" y="1053" type="curve" smooth="yes"/>
      <point x="943" y="1053"/>
      <point x="780" y="995"/>
      <point x="618" y="813" type="curve" smooth="yes"/>
      <point x="612" y="806"/>
      <point x="604" y="801"/>
      <point x="597" y="801" type="curve" smooth="yes"/>
      <point x="590" y="801"/>
      <point x="583" y="806"/>
      <point x="580" y="814" type="curve" smooth="yes"/>
      <point x="528" y="942" type="line" smooth="yes"/>
      <point x="512" y="983"/>
      <point x="500" y="1006"/>
      <point x="458" y="1006" type="curve" smooth="yes"/>
      <point x="332" y="1006" type="line" smooth="yes"/>
      <point x="293" y="1006"/>
      <point x="276" y="972"/>
      <point x="270" y="929" type="curve" smooth="yes"/>
      <point x="150" y="76" type="line" smooth="yes"/>
      <point x="144" y="33"/>
      <point x="169" y="0"/>
    </contour>
    <contour>
      <point x="614" y="1006" type="move" name="top"/>
    </contour>
    <contour>
      <point x="614" y="0" type="move" name="bottom"/>
    </contour>
  </outline>
</glyph>
<glyph name="s" format="1">
  <advance width="1642"/>
  <unicode hex="0073"/>
  <outline>
    <contour>
      <point x="803" y="-41" type="curve" smooth="yes"/>
      <point x="1208" y="-41"/>
      <point x="1536" y="30"/>
      <point x="1575" y="307" type="curve" smooth="yes"/>
      <point x="1620" y="630"/>
      <point x="1273" y="642"/>
      <point x="988" y="662" type="curve" smooth="yes"/>
      <point x="753" y="678"/>
      <point x="640" y="677"/>
      <point x="648" y="733" type="curve" smooth="yes"/>
      <point x="654" y="775"/>
      <point x="716" y="803"/>
      <point x="936" y="803" type="curve" smooth="yes"/>
      <point x="1150" y="803"/>
      <point x="1275" y="782"/>
      <point x="1389" y="736" type="curve" smooth="yes"/>
      <point x="1398" y="733"/>
      <point x="1407" y="731"/>
      <point x="1416" y="731" type="curve" smooth="yes"/>
      <point x="1445" y="731"/>
      <point x="1474" y="747"/>
      <point x="1491" y="776" type="curve" smooth="yes"/>
      <point x="1545" y="870" type="line" smooth="yes"/>
      <point x="1550" y="879"/>
      <point x="1554" y="888"/>
      <point x="1555" y="898" type="curve" smooth="yes"/>
      <point x="1559" y="926"/>
      <point x="1548" y="954"/>
      <point x="1526" y="964" type="curve" smooth="yes"/>
      <point x="1347" y="1047"/>
      <point x="1155" y="1053"/>
      <point x="940" y="1053" type="curve" smooth="yes"/>
      <point x="718" y="1053"/>
      <point x="278" y="1020"/>
      <point x="233" y="703" type="curve" smooth="yes"/>
      <point x="195" y="432"/>
      <point x="572" y="408"/>
      <point x="847" y="387" type="curve" smooth="yes"/>
      <point x="1100" y="368"/>
      <point x="1143" y="362"/>
      <point x="1133" y="294" type="curve" smooth="yes"/>
      <point x="1125" y="239"/>
      <point x="1064" y="218"/>
      <point x="922" y="218" type="curve" smooth="yes"/>
      <point x="702" y="218"/>
      <point x="511" y="240"/>
      <point x="328" y="306" type="curve" smooth="yes"/>
      <point x="320" y="309"/>
      <point x="313" y="310"/>
      <point x="305" y="310" type="curve" smooth="yes"/>
      <point x="276" y="310"/>
      <point x="246" y="291"/>
      <point x="227" y="259" type="curve" smooth="yes"/>
      <point x="165" y="154" type="line" smooth="yes"/>
      <point x="161" y="146"/>
      <point x="158" y="137"/>
      <point x="157" y="128" type="curve" smooth="yes"/>
      <point x="153" y="99"/>
      <point x="164" y="69"/>
      <point x="187" y="59" type="curve" smooth="yes"/>
      <point x="356" y="-18"/>
      <point x="621" y="-41"/>
    </contour>
    <contour>
      <point x="821" y="1006" type="move" name="top"/>
    </contour>
    <contour>
      <point x="821" y="0" type="move" name="bottom"/>
    </contour>
  </outline>
</glyph>
<glyph name="u" format="1">
  <advance width="1829"/>
  <unicode hex="0075"/>
  <outline>
    <contour>
      <point x="776" y="-42" type="curve" smooth="yes"/>
      <point x="989" y="-42"/>
      <point x="1215" y="38"/>
      <point x="1354" y="198" type="curve" smooth="yes"/>
      <point x="1360" y="205"/>
      <point x="1368" y="210"/>
      <point x="1375" y="210" type="curve" smooth="yes"/>
      <point x="1382" y="210"/>
      <point x="1388" y="205"/>
      <point x="1391" y="197" type="curve" smooth="yes"/>
      <point x="1444" y="64" type="line" smooth="yes"/>
      <point x="1459" y="24"/>
      <point x="1495" y="0"/>
      <point x="1537" y="0" type="curve" smooth="yes"/>
      <point x="1624" y="0" type="line" smooth="yes"/>
      <point x="1663" y="0"/>
      <point x="1696" y="34"/>
      <point x="1702" y="77" type="curve" smooth="yes"/>
      <point x="1823" y="941" type="line" smooth="yes"/>
      <point x="1829" y="984"/>
      <point x="1804" y="1016"/>
      <point x="1765" y="1016" type="curve" smooth="yes"/>
      <point x="1407" y="1016" type="line" smooth="yes"/>
      <point x="1368" y="1016"/>
      <point x="1335" y="984"/>
      <point x="1329" y="941" type="curve" smooth="yes"/>
      <point x="1267" y="499" type="line" smooth="yes"/>
      <point x="1248" y="366"/>
      <point x="1119" y="231"/>
      <point x="943" y="231" type="curve" smooth="yes"/>
      <point x="775" y="231"/>
      <point x="699" y="354"/>
      <point x="719" y="499" type="curve" smooth="yes"/>
      <point x="781" y="941" type="line" smooth="yes"/>
      <point x="787" y="984"/>
      <point x="763" y="1016"/>
      <point x="724" y="1016" type="curve" smooth="yes"/>
      <point x="343" y="1016" type="line" smooth="yes"/>
      <point x="304" y="1016"/>
      <point x="270" y="984"/>
      <point x="264" y="941" type="curve" smooth="yes"/>
      <point x="201" y="493" type="line" smooth="yes"/>
      <point x="150" y="131"/>
      <point x="443" y="-42"/>
    </contour>
    <contour>
      <point x="915" y="1006" type="move" name="top"/>
    </contour>
    <contour>
      <point x="1646" y="10" type="move" name="ogonek"/>
    </contour>
  </outline>
</glyph>
<glyph name="v" format="1">
  <advance width="1746"/>
  <unicode hex="0076"/>
  <outline>
    <contour>
      <point x="641" y="0" type="curve" smooth="yes"/>
      <point x="1100" y="0" type="line" smooth="yes"/>
      <point x="1141" y="0"/>
      <point x="1185" y="27"/>
      <point x="1211" y="67" type="curve" smooth="yes"/>
      <point x="1765" y="939" type="line" smooth="yes"/>
      <point x="1772" y="948"/>
      <point x="1775" y="957"/>
      <point x="1776" y="964" type="curve" smooth="yes"/>
      <point x="1779" y="986"/>
      <point x="1765" y="1006"/>
      <point x="1741" y="1006" type="curve" smooth="yes"/>
      <point x="1388" y="1006" type="line" smooth="yes"/>
      <point x="1347" y="1006"/>
      <point x="1306" y="979"/>
      <point x="1281" y="937" type="curve"/>
      <point x="975" y="393" type="line" smooth="yes"/>
      <point x="971" y="386"/>
      <point x="965" y="383"/>
      <point x="960" y="383" type="curve" smooth="yes"/>
      <point x="955" y="383"/>
      <point x="950" y="386"/>
      <point x="947" y="393" type="curve" smooth="yes"/>
      <point x="782" y="937" type="line" smooth="yes"/>
      <point x="770" y="979"/>
      <point x="737" y="1006"/>
      <point x="697" y="1006" type="curve" smooth="yes"/>
      <point x="287" y="1006" type="line" smooth="yes"/>
      <point x="263" y="1006"/>
      <point x="243" y="986"/>
      <point x="240" y="963" type="curve" smooth="yes"/>
      <point x="239" y="954"/>
      <point x="239" y="947"/>
      <point x="242" y="938" type="curve" smooth="yes"/>
      <point x="551" y="68" type="line" smooth="yes"/>
      <point x="566" y="27"/>
      <point x="600" y="0"/>
    </contour>
  </outline>
</glyph>
<glyph name="w" format="1">
  <advance width="2416"/>
  <unicode hex="0077"/>
  <outline>
    <contour>
      <point x="514" y="0" type="curve" smooth="yes"/>
      <point x="975" y="0" type="line" smooth="yes"/>
      <point x="1015" y="0"/>
      <point x="1056" y="30"/>
      <point x="1074" y="73" type="curve"/>
      <point x="1255" y="480" type="line" smooth="yes"/>
      <point x="1257" y="485"/>
      <point x="1261" y="488"/>
      <point x="1265" y="488" type="curve" smooth="yes"/>
      <point x="1269" y="488"/>
      <point x="1272" y="485"/>
      <point x="1273" y="480" type="curve" smooth="yes"/>
      <point x="1337" y="73" type="line"/>
      <point x="1343" y="30"/>
      <point x="1374" y="0"/>
      <point x="1414" y="0" type="curve" smooth="yes"/>
      <point x="1875" y="0" type="line" smooth="yes"/>
      <point x="1915" y="0"/>
      <point x="1958" y="28"/>
      <point x="1980" y="70" type="curve" smooth="yes"/>
      <point x="2429" y="936" type="line" smooth="yes"/>
      <point x="2434" y="944"/>
      <point x="2436" y="952"/>
      <point x="2437" y="959" type="curve" smooth="yes"/>
      <point x="2441" y="984"/>
      <point x="2425" y="1006"/>
      <point x="2399" y="1006" type="curve" smooth="yes"/>
      <point x="2060" y="1006" type="line" smooth="yes"/>
      <point x="2020" y="1006"/>
      <point x="1982" y="977"/>
      <point x="1964" y="933" type="curve" smooth="yes"/>
      <point x="1745" y="396" type="line" smooth="yes"/>
      <point x="1743" y="391"/>
      <point x="1738" y="388"/>
      <point x="1734" y="388" type="curve" smooth="yes"/>
      <point x="1730" y="388"/>
      <point x="1726" y="390"/>
      <point x="1726" y="395" type="curve" smooth="yes"/>
      <point x="1634" y="934" type="line" smooth="yes"/>
      <point x="1627" y="977"/>
      <point x="1597" y="1006"/>
      <point x="1558" y="1006" type="curve" smooth="yes"/>
      <point x="1185" y="1006" type="line" smooth="yes"/>
      <point x="1145" y="1006"/>
      <point x="1105" y="978"/>
      <point x="1086" y="934" type="curve" smooth="yes"/>
      <point x="846" y="395" type="line" smooth="yes"/>
      <point x="845" y="391"/>
      <point x="840" y="387"/>
      <point x="836" y="387" type="curve" smooth="yes"/>
      <point x="832" y="387"/>
      <point x="829" y="390"/>
      <point x="828" y="396" type="curve" smooth="yes"/>
      <point x="764" y="932" type="line"/>
      <point x="760" y="976"/>
      <point x="732" y="1006"/>
      <point x="692" y="1006" type="curve" smooth="yes"/>
      <point x="297" y="1006" type="line" smooth="yes"/>
      <point x="270" y="1006"/>
      <point x="249" y="983"/>
      <point x="245" y="957" type="curve" smooth="yes"/>
      <point x="244" y="950"/>
      <point x="243" y="942"/>
      <point x="245" y="935" type="curve" smooth="yes"/>
      <point x="432" y="71" type="line" smooth="yes"/>
      <point x="441" y="29"/>
      <point x="474" y="0"/>
    </contour>
    <contour>
      <point x="1208" y="1006" type="move" name="top"/>
    </contour>
  </outline>
</glyph>
<glyph name="x" format="1">
  <advance width="1974"/>
  <unicode hex="0078"/>
  <outline>
    <contour>
      <point x="167" y="0" type="curve" smooth="yes"/>
      <point x="614" y="0" type="line" smooth="yes"/>
      <point x="656" y="0"/>
      <point x="708" y="18"/>
      <point x="745" y="47" type="curve" smooth="yes"/>
      <point x="756" y="55"/>
      <point x="923" y="182"/>
      <point x="950" y="204" type="curve" smooth="yes"/>
      <point x="959" y="211"/>
      <point x="969" y="214"/>
      <point x="976" y="214" type="curve" smooth="yes"/>
      <point x="985" y="214"/>
      <point x="993" y="210"/>
      <point x="999" y="203" type="curve" smooth="yes"/>
      <point x="1020" y="181"/>
      <point x="1134" y="57"/>
      <point x="1141" y="50" type="curve" smooth="yes"/>
      <point x="1168" y="20"/>
      <point x="1213" y="0"/>
      <point x="1255" y="0" type="curve" smooth="yes"/>
      <point x="1838" y="0" type="line" smooth="yes"/>
      <point x="1853" y="0"/>
      <point x="1865" y="13"/>
      <point x="1867" y="27" type="curve" smooth="yes"/>
      <point x="1868" y="35"/>
      <point x="1867" y="43"/>
      <point x="1861" y="48" type="curve" smooth="yes"/>
      <point x="1836" y="74"/>
      <point x="1403" y="523"/>
      <point x="1385" y="542" type="curve" smooth="yes"/>
      <point x="1380" y="547"/>
      <point x="1378" y="555"/>
      <point x="1379" y="562" type="curve" smooth="yes"/>
      <point x="1380" y="571"/>
      <point x="1385" y="578"/>
      <point x="1392" y="583" type="curve" smooth="yes"/>
      <point x="1423" y="608"/>
      <point x="1876" y="943"/>
      <point x="1897" y="960" type="curve" smooth="yes"/>
      <point x="1905" y="966"/>
      <point x="1909" y="973"/>
      <point x="1910" y="981" type="curve" smooth="yes"/>
      <point x="1912" y="993"/>
      <point x="1904" y="1006"/>
      <point x="1890" y="1006" type="curve" smooth="yes"/>
      <point x="1472" y="1006" type="line" smooth="yes"/>
      <point x="1430" y="1006"/>
      <point x="1383" y="987"/>
      <point x="1346" y="958" type="curve" smooth="yes"/>
      <point x="1336" y="950"/>
      <point x="1195" y="838"/>
      <point x="1165" y="814" type="curve" smooth="yes"/>
      <point x="1158" y="809"/>
      <point x="1150" y="806"/>
      <point x="1142" y="806" type="curve" smooth="yes"/>
      <point x="1132" y="806"/>
      <point x="1124" y="809"/>
      <point x="1119" y="815" type="curve" smooth="yes"/>
      <point x="1095" y="840"/>
      <point x="996" y="948"/>
      <point x="987" y="956" type="curve"/>
      <point x="959" y="987"/>
      <point x="917" y="1006"/>
      <point x="875" y="1006" type="curve" smooth="yes"/>
      <point x="291" y="1006" type="line" smooth="yes"/>
      <point x="276" y="1006"/>
      <point x="264" y="993"/>
      <point x="262" y="979" type="curve" smooth="yes"/>
      <point x="261" y="971"/>
      <point x="262" y="963"/>
      <point x="268" y="958" type="curve" smooth="yes"/>
      <point x="277" y="948"/>
      <point x="686" y="525"/>
      <point x="714" y="497" type="curve" smooth="yes"/>
      <point x="720" y="492"/>
      <point x="721" y="483"/>
      <point x="720" y="476" type="curve" smooth="yes"/>
      <point x="719" y="468"/>
      <point x="715" y="461"/>
      <point x="707" y="456" type="curve"/>
      <point x="680" y="434"/>
      <point x="187" y="68"/>
      <point x="159" y="46" type="curve" smooth="yes"/>
      <point x="152" y="40"/>
      <point x="148" y="33"/>
      <point x="147" y="26" type="curve" smooth="yes"/>
      <point x="145" y="13"/>
      <point x="153" y="0"/>
    </contour>
  </outline>
</glyph>
<glyph name="y" format="1">
  <advance width="1656"/>
  <unicode hex="0079"/>
  <outline>
    <contour>
      <point x="458" y="-657" type="curve" smooth="yes"/>
      <point x="734" y="-657"/>
      <point x="876" y="-508"/>
      <point x="1009" y="-269" type="curve"/>
      <point x="1679" y="936" type="line" smooth="yes"/>
      <point x="1684" y="943"/>
      <point x="1686" y="950"/>
      <point x="1687" y="957" type="curve" smooth="yes"/>
      <point x="1691" y="983"/>
      <point x="1675" y="1006"/>
      <point x="1649" y="1006" type="curve" smooth="yes"/>
      <point x="1349" y="1006" type="line" smooth="yes"/>
      <point x="1308" y="1006"/>
      <point x="1268" y="979"/>
      <point x="1247" y="934" type="curve" smooth="yes"/>
      <point x="1247" y="934"/>
      <point x="983" y="397"/>
      <point x="979" y="390" type="curve" smooth="yes"/>
      <point x="974" y="381"/>
      <point x="968" y="377"/>
      <point x="963" y="377" type="curve" smooth="yes"/>
      <point x="957" y="377"/>
      <point x="952" y="381"/>
      <point x="951" y="387" type="curve" smooth="yes"/>
      <point x="774" y="937" type="line"/>
      <point x="762" y="980"/>
      <point x="728" y="1006"/>
      <point x="688" y="1006" type="curve" smooth="yes"/>
      <point x="277" y="1006" type="line" smooth="yes"/>
      <point x="254" y="1006"/>
      <point x="235" y="987"/>
      <point x="232" y="964" type="curve" smooth="yes"/>
      <point x="231" y="957"/>
      <point x="232" y="948"/>
      <point x="235" y="940" type="curve" smooth="yes"/>
      <point x="648" y="-113" type="line" smooth="yes"/>
      <point x="660" y="-146"/>
      <point x="688" y="-207"/>
      <point x="684" y="-233" type="curve"/>
      <point x="658" y="-342"/>
      <point x="577" y="-371"/>
      <point x="493" y="-371" type="curve" smooth="yes"/>
      <point x="465" y="-371"/>
      <point x="377" y="-361"/>
      <point x="333" y="-344" type="curve" smooth="yes"/>
      <point x="327" y="-342"/>
      <point x="319" y="-340"/>
      <point x="313" y="-340" type="curve" smooth="yes"/>
      <point x="291" y="-340"/>
      <point x="265" y="-352"/>
      <point x="253" y="-375" type="curve" smooth="yes"/>
      <point x="189" y="-498" type="line" smooth="yes"/>
      <point x="183" y="-510"/>
      <point x="180" y="-522"/>
      <point x="178" y="-534" type="curve" smooth="yes"/>
      <point x="174" y="-563"/>
      <point x="180" y="-586"/>
      <point x="197" y="-596" type="curve" smooth="yes"/>
      <point x="261" y="-638"/>
      <point x="354" y="-657"/>
    </contour>
    <contour>
      <point x="828" y="1006" type="move" name="top"/>
    </contour>
  </outline>
</glyph>
<glyph name="braceleft" format="1">
  <advance width="1084"/>
  <unicode hex="007B"/>
  <outline>
    <contour>
      <point x="659" y="-123" type="curve" smooth="yes"/>
      <point x="880" y="-123" type="line" smooth="yes"/>
      <point x="919" y="-123"/>
      <point x="956" y="-91"/>
      <point x="962" y="-49" type="curve" smooth="yes"/>
      <point x="976" y="52" type="line" smooth="yes"/>
      <point x="983" y="104"/>
      <point x="964" y="132"/>
      <point x="918" y="141" type="curve" smooth="yes"/>
      <point x="804" y="165"/>
      <point x="788" y="179"/>
      <point x="806" y="310" type="curve" smooth="yes"/>
      <point x="820" y="412" type="line" smooth="yes"/>
      <point x="835" y="522"/>
      <point x="805" y="654"/>
      <point x="682" y="695" type="curve" smooth="yes"/>
      <point x="676" y="697"/>
      <point x="674" y="704"/>
      <point x="675" y="710" type="curve" smooth="yes"/>
      <point x="676" y="716"/>
      <point x="679" y="723"/>
      <point x="686" y="725" type="curve" smooth="yes"/>
      <point x="825" y="762"/>
      <point x="888" y="896"/>
      <point x="904" y="1008" type="curve" smooth="yes"/>
      <point x="918" y="1110" type="line" smooth="yes"/>
      <point x="936" y="1239"/>
      <point x="956" y="1255"/>
      <point x="1077" y="1279" type="curve" smooth="yes"/>
      <point x="1126" y="1288"/>
      <point x="1154" y="1316"/>
      <point x="1161" y="1368" type="curve" smooth="yes"/>
      <point x="1175" y="1469" type="line" smooth="yes"/>
      <point x="1181" y="1511"/>
      <point x="1153" y="1543"/>
      <point x="1114" y="1543" type="curve" smooth="yes"/>
      <point x="893" y="1543" type="line" smooth="yes"/>
      <point x="672" y="1543"/>
      <point x="597" y="1399"/>
      <point x="544" y="1228" type="curve"/>
      <point x="487" y="1037"/>
      <point x="451" y="886"/>
      <point x="307" y="851" type="curve" smooth="yes"/>
      <point x="253" y="837"/>
      <point x="228" y="807"/>
      <point x="214" y="710" type="curve" smooth="yes"/>
      <point x="202" y="623"/>
      <point x="217" y="583"/>
      <point x="267" y="569" type="curve" smooth="yes"/>
      <point x="402" y="534"/>
      <point x="395" y="383"/>
      <point x="398" y="192" type="curve"/>
      <point x="403" y="21"/>
      <point x="438" y="-123"/>
    </contour>
  </outline>
</glyph>
<glyph name="bar" format="1">
  <advance width="572"/>
  <unicode hex="007C"/>
  <outline>
    <contour>
      <point x="197" y="-150" type="curve" smooth="yes"/>
      <point x="333" y="-150" type="line" smooth="yes"/>
      <point x="373" y="-150"/>
      <point x="409" y="-119"/>
      <point x="415" y="-76" type="curve" smooth="yes"/>
      <point x="634" y="1481" type="line" smooth="yes"/>
      <point x="640" y="1524"/>
      <point x="612" y="1555"/>
      <point x="572" y="1555" type="curve" smooth="yes"/>
      <point x="437" y="1555" type="line" smooth="yes"/>
      <point x="397" y="1555"/>
      <point x="361" y="1524"/>
      <point x="355" y="1481" type="curve" smooth="yes"/>
      <point x="136" y="-76" type="line" smooth="yes"/>
      <point x="130" y="-119"/>
      <point x="157" y="-150"/>
    </contour>
  </outline>
</glyph>
<glyph name="asciitilde" format="1">
  <advance width="1467"/>
  <unicode hex="007E"/>
  <outline>
    <contour>
      <point x="602" y="795" type="curve" smooth="yes"/>
      <point x="783" y="795"/>
      <point x="940" y="911"/>
      <point x="1112" y="911" type="curve" smooth="yes"/>
      <point x="1185" y="911"/>
      <point x="1265" y="877"/>
      <point x="1341" y="829" type="curve"/>
      <point x="1351" y="821"/>
      <point x="1362" y="818"/>
      <point x="1371" y="818" type="curve" smooth="yes"/>
      <point x="1399" y="818"/>
      <point x="1416" y="845"/>
      <point x="1428" y="872" type="curve" smooth="yes"/>
      <point x="1434" y="885"/>
      <point x="1485" y="971"/>
      <point x="1488" y="995" type="curve" smooth="yes"/>
      <point x="1491" y="1018"/>
      <point x="1479" y="1033"/>
      <point x="1457" y="1045" type="curve"/>
      <point x="1338" y="1119"/>
      <point x="1232" y="1153"/>
      <point x="1130" y="1153" type="curve" smooth="yes"/>
      <point x="937" y="1153"/>
      <point x="791" y="1036"/>
      <point x="634" y="1036" type="curve" smooth="yes"/>
      <point x="562" y="1036"/>
      <point x="491" y="1069"/>
      <point x="407" y="1129" type="curve" smooth="yes"/>
      <point x="396" y="1137"/>
      <point x="386" y="1143"/>
      <point x="374" y="1143" type="curve" smooth="yes"/>
      <point x="356" y="1143"/>
      <point x="341" y="1131"/>
      <point x="326" y="1107" type="curve"/>
      <point x="261" y="1007" type="line" smooth="yes"/>
      <point x="254" y="998"/>
      <point x="250" y="990"/>
      <point x="249" y="982" type="curve" smooth="yes"/>
      <point x="246" y="962"/>
      <point x="259" y="942"/>
      <point x="279" y="928" type="curve"/>
      <point x="388" y="838"/>
      <point x="488" y="795"/>
    </contour>
  </outline>
</glyph>
<glyph name="cent" format="1">
  <advance width="1635"/>
  <unicode hex="00A2"/>
  <outline>
    <contour>
      <point x="903" y="257" type="line"/>
      <point x="775" y="284"/>
      <point x="686" y="359"/>
      <point x="707" y="506" type="curve" smooth="yes"/>
      <point x="728" y="654"/>
      <point x="839" y="726"/>
      <point x="972" y="749" type="curve"/>
    </contour>
    <contour>
      <point x="901" y="-204" type="curve" smooth="yes"/>
      <point x="950" y="-204" type="line" smooth="yes"/>
      <point x="990" y="-204"/>
      <point x="1014" y="-190"/>
      <point x="1020" y="-147" type="curve" smooth="yes"/>
      <point x="1040" y="-3" type="line"/>
      <point x="1190" y="8"/>
      <point x="1341" y="38"/>
      <point x="1462" y="77" type="curve" smooth="yes"/>
      <point x="1492" y="86"/>
      <point x="1513" y="113"/>
      <point x="1517" y="141" type="curve" smooth="yes"/>
      <point x="1518" y="148"/>
      <point x="1518" y="155"/>
      <point x="1517" y="162" type="curve" smooth="yes"/>
      <point x="1510" y="197"/>
      <point x="1503" y="233"/>
      <point x="1497" y="266" type="curve" smooth="yes"/>
      <point x="1491" y="294"/>
      <point x="1469" y="311"/>
      <point x="1441" y="311" type="curve" smooth="yes"/>
      <point x="1433" y="311"/>
      <point x="1426" y="310"/>
      <point x="1417" y="307" type="curve" smooth="yes"/>
      <point x="1327" y="280"/>
      <point x="1198" y="251"/>
      <point x="1075" y="245" type="curve"/>
      <point x="1147" y="756" type="line"/>
      <point x="1267" y="747"/>
      <point x="1378" y="715"/>
      <point x="1460" y="683" type="curve" smooth="yes"/>
      <point x="1468" y="680"/>
      <point x="1478" y="679"/>
      <point x="1486" y="679" type="curve" smooth="yes"/>
      <point x="1513" y="679"/>
      <point x="1539" y="693"/>
      <point x="1554" y="723" type="curve" smooth="yes"/>
      <point x="1569" y="753"/>
      <point x="1590" y="794"/>
      <point x="1606" y="825" type="curve" smooth="yes"/>
      <point x="1610" y="832"/>
      <point x="1612" y="840"/>
      <point x="1613" y="848" type="curve" smooth="yes"/>
      <point x="1617" y="876"/>
      <point x="1604" y="904"/>
      <point x="1579" y="916" type="curve" smooth="yes"/>
      <point x="1475" y="963"/>
      <point x="1332" y="995"/>
      <point x="1182" y="1007" type="curve"/>
      <point x="1211" y="1214" type="line" smooth="yes"/>
      <point x="1217" y="1257"/>
      <point x="1197" y="1271"/>
      <point x="1157" y="1271" type="curve" smooth="yes"/>
      <point x="1108" y="1271" type="line" smooth="yes"/>
      <point x="1068" y="1271"/>
      <point x="1044" y="1257"/>
      <point x="1038" y="1214" type="curve" smooth="yes"/>
      <point x="1009" y="1012" type="line"/>
      <point x="636" y="1002"/>
      <point x="239" y="865"/>
      <point x="189" y="506" type="curve" smooth="yes"/>
      <point x="137" y="138"/>
      <point x="488" y="6"/>
      <point x="866" y="-5" type="curve"/>
      <point x="846" y="-147" type="line" smooth="yes"/>
      <point x="840" y="-190"/>
      <point x="861" y="-204"/>
    </contour>
  </outline>
</glyph>
<glyph name="sterling" format="1">
  <advance width="2041"/>
  <unicode hex="00A3"/>
  <outline>
    <contour>
      <point x="202" y="0" type="curve" smooth="yes"/>
      <point x="1845" y="0" type="line" smooth="yes"/>
      <point x="1875" y="0"/>
      <point x="1905" y="19"/>
      <point x="1910" y="54" type="curve" smooth="yes"/>
      <point x="1930" y="195" type="line" smooth="yes"/>
      <point x="1936" y="237"/>
      <point x="1911" y="256"/>
      <point x="1881" y="256" type="curve" smooth="yes"/>
      <point x="1129" y="256" type="line" smooth="yes"/>
      <point x="1022" y="256"/>
      <point x="1021" y="270"/>
      <point x="1033" y="356" type="curve" smooth="yes"/>
      <point x="1068" y="603" type="line"/>
      <point x="1441" y="603" type="line" smooth="yes"/>
      <point x="1481" y="603"/>
      <point x="1515" y="635"/>
      <point x="1521" y="678" type="curve" smooth="yes"/>
      <point x="1533" y="768" type="line" smooth="yes"/>
      <point x="1539" y="811"/>
      <point x="1515" y="843"/>
      <point x="1475" y="843" type="curve" smooth="yes"/>
      <point x="1103" y="843" type="line"/>
      <point x="1112" y="906" type="line"/>
      <point x="1143" y="1135"/>
      <point x="1270" y="1164"/>
      <point x="1511" y="1164" type="curve" smooth="yes"/>
      <point x="1680" y="1164"/>
      <point x="1946" y="1105"/>
      <point x="1981" y="1098" type="curve" smooth="yes"/>
      <point x="1989" y="1096"/>
      <point x="1995" y="1095"/>
      <point x="2002" y="1095" type="curve" smooth="yes"/>
      <point x="2026" y="1095"/>
      <point x="2040" y="1108"/>
      <point x="2049" y="1139" type="curve" smooth="yes"/>
      <point x="2066" y="1203"/>
      <point x="2091" y="1270"/>
      <point x="2100" y="1336" type="curve" smooth="yes"/>
      <point x="2104" y="1366"/>
      <point x="2091" y="1383"/>
      <point x="2058" y="1393" type="curve" smooth="yes"/>
      <point x="1958" y="1426"/>
      <point x="1701" y="1475"/>
      <point x="1479" y="1475" type="curve" smooth="yes"/>
      <point x="826" y="1475"/>
      <point x="557" y="1265"/>
      <point x="445" y="843" type="curve"/>
      <point x="320" y="843" type="line" smooth="yes"/>
      <point x="280" y="843"/>
      <point x="247" y="811"/>
      <point x="241" y="768" type="curve" smooth="yes"/>
      <point x="228" y="678" type="line" smooth="yes"/>
      <point x="222" y="635"/>
      <point x="246" y="603"/>
      <point x="286" y="603" type="curve" smooth="yes"/>
      <point x="396" y="603" type="line" smooth="yes"/>
      <point x="419" y="603"/>
      <point x="424" y="587"/>
      <point x="420" y="560" type="curve" smooth="yes"/>
      <point x="385" y="314" type="line" smooth="yes"/>
      <point x="379" y="271"/>
      <point x="374" y="256"/>
      <point x="347" y="256" type="curve" smooth="yes"/>
      <point x="238" y="256" type="line" smooth="yes"/>
      <point x="198" y="256"/>
      <point x="164" y="224"/>
      <point x="158" y="181" type="curve" smooth="yes"/>
      <point x="143" y="75" type="line" smooth="yes"/>
      <point x="137" y="32"/>
      <point x="162" y="0"/>
    </contour>
  </outline>
</glyph>
<glyph name="currency" format="1">
  <advance width="1260"/>
  <unicode hex="00A4"/>
  <outline>
    <contour>
      <point x="711" y="580" type="curve" smooth="yes"/>
      <point x="468" y="580"/>
      <point x="404" y="769"/>
      <point x="427" y="931" type="curve" smooth="yes"/>
      <point x="451" y="1102"/>
      <point x="567" y="1285"/>
      <point x="810" y="1285" type="curve" smooth="yes"/>
      <point x="1052" y="1285"/>
      <point x="1117" y="1102"/>
      <point x="1093" y="931" type="curve" smooth="yes"/>
      <point x="1070" y="769"/>
      <point x="953" y="580"/>
    </contour>
    <contour>
      <point x="689" y="426" type="curve" smooth="yes"/>
      <point x="814" y="426"/>
      <point x="916" y="459"/>
      <point x="1004" y="515" type="curve"/>
      <point x="1029" y="484" type="line" smooth="yes"/>
      <point x="1045" y="463"/>
      <point x="1058" y="445"/>
      <point x="1076" y="445" type="curve" smooth="yes"/>
      <point x="1083" y="445"/>
      <point x="1092" y="449"/>
      <point x="1101" y="457" type="curve" smooth="yes"/>
      <point x="1136" y="490" type="line" smooth="yes"/>
      <point x="1147" y="500"/>
      <point x="1152" y="509"/>
      <point x="1153" y="518" type="curve" smooth="yes"/>
      <point x="1156" y="537"/>
      <point x="1142" y="554"/>
      <point x="1125" y="575" type="curve" smooth="yes"/>
      <point x="1106" y="599" type="line"/>
      <point x="1190" y="689"/>
      <point x="1244" y="805"/>
      <point x="1262" y="931" type="curve" smooth="yes"/>
      <point x="1280" y="1059"/>
      <point x="1258" y="1177"/>
      <point x="1197" y="1268" type="curve"/>
      <point x="1226" y="1295" type="line" smooth="yes"/>
      <point x="1248" y="1316"/>
      <point x="1268" y="1334"/>
      <point x="1271" y="1352" type="curve" smooth="yes"/>
      <point x="1272" y="1360"/>
      <point x="1269" y="1368"/>
      <point x="1263" y="1377" type="curve" smooth="yes"/>
      <point x="1237" y="1409" type="line" smooth="yes"/>
      <point x="1229" y="1419"/>
      <point x="1221" y="1423"/>
      <point x="1213" y="1423" type="curve" smooth="yes"/>
      <point x="1195" y="1423"/>
      <point x="1176" y="1406"/>
      <point x="1154" y="1385" type="curve" smooth="yes"/>
      <point x="1119" y="1352" type="line"/>
      <point x="1048" y="1407"/>
      <point x="955" y="1440"/>
      <point x="832" y="1440" type="curve" smooth="yes"/>
      <point x="709" y="1440"/>
      <point x="607" y="1407"/>
      <point x="520" y="1352" type="curve"/>
      <point x="493" y="1386" type="line" smooth="yes"/>
      <point x="477" y="1406"/>
      <point x="464" y="1423"/>
      <point x="446" y="1423" type="curve" smooth="yes"/>
      <point x="438" y="1423"/>
      <point x="428" y="1419"/>
      <point x="417" y="1409" type="curve" smooth="yes"/>
      <point x="383" y="1377" type="line" smooth="yes"/>
      <point x="374" y="1369"/>
      <point x="369" y="1360"/>
      <point x="368" y="1352" type="curve" smooth="yes"/>
      <point x="365" y="1334"/>
      <point x="379" y="1316"/>
      <point x="396" y="1295" type="curve" smooth="yes"/>
      <point x="417" y="1268" type="line"/>
      <point x="331" y="1177"/>
      <point x="276" y="1059"/>
      <point x="258" y="931" type="curve" smooth="yes"/>
      <point x="240" y="805"/>
      <point x="261" y="688"/>
      <point x="321" y="599" type="curve"/>
      <point x="295" y="574" type="line" smooth="yes"/>
      <point x="274" y="554"/>
      <point x="255" y="537"/>
      <point x="252" y="518" type="curve" smooth="yes"/>
      <point x="251" y="509"/>
      <point x="253" y="499"/>
      <point x="261" y="489" type="curve" smooth="yes"/>
      <point x="286" y="457" type="line" smooth="yes"/>
      <point x="292" y="448"/>
      <point x="301" y="445"/>
      <point x="308" y="445" type="curve" smooth="yes"/>
      <point x="325" y="445"/>
      <point x="345" y="463"/>
      <point x="367" y="484" type="curve" smooth="yes"/>
      <point x="400" y="515" type="line"/>
      <point x="471" y="459"/>
      <point x="564" y="426"/>
    </contour>
  </outline>
</glyph>
<glyph name="yen" format="1">
  <advance width="2080"/>
  <unicode hex="00A5"/>
  <outline>
    <contour>
      <point x="798" y="0" type="curve" smooth="yes"/>
      <point x="1292" y="0" type="line" smooth="yes"/>
      <point x="1332" y="0"/>
      <point x="1366" y="33"/>
      <point x="1372" y="76" type="curve" smooth="yes"/>
      <point x="1392" y="216" type="line"/>
      <point x="1665" y="216" type="line" smooth="yes"/>
      <point x="1705" y="216"/>
      <point x="1713" y="247"/>
      <point x="1719" y="290" type="curve" smooth="yes"/>
      <point x="1723" y="321" type="line" smooth="yes"/>
      <point x="1729" y="364"/>
      <point x="1730" y="395"/>
      <point x="1690" y="395" type="curve" smooth="yes"/>
      <point x="1417" y="395" type="line"/>
      <point x="1509" y="555" type="line"/>
      <point x="1742" y="555" type="line" smooth="yes"/>
      <point x="1782" y="555"/>
      <point x="1790" y="586"/>
      <point x="1796" y="629" type="curve" smooth="yes"/>
      <point x="1801" y="660" type="line" smooth="yes"/>
      <point x="1807" y="703"/>
      <point x="1807" y="734"/>
      <point x="1767" y="734" type="curve" smooth="yes"/>
      <point x="1641" y="734" type="line"/>
      <point x="2187" y="1375" type="line" smooth="yes"/>
      <point x="2195" y="1384"/>
      <point x="2200" y="1393"/>
      <point x="2201" y="1402" type="curve" smooth="yes"/>
      <point x="2204" y="1421"/>
      <point x="2190" y="1438"/>
      <point x="2169" y="1438" type="curve" smooth="yes"/>
      <point x="1734" y="1438" type="line" smooth="yes"/>
      <point x="1690" y="1438"/>
      <point x="1644" y="1413"/>
      <point x="1612" y="1374" type="curve" smooth="yes"/>
      <point x="1212" y="889" type="line"/>
      <point x="940" y="1375" type="line" smooth="yes"/>
      <point x="918" y="1414"/>
      <point x="877" y="1438"/>
      <point x="834" y="1438" type="curve" smooth="yes"/>
      <point x="309" y="1438" type="line" smooth="yes"/>
      <point x="288" y="1438"/>
      <point x="272" y="1421"/>
      <point x="269" y="1403" type="curve" smooth="yes"/>
      <point x="268" y="1395"/>
      <point x="271" y="1385"/>
      <point x="276" y="1376" type="curve" smooth="yes"/>
      <point x="649" y="734" type="line"/>
      <point x="511" y="734" type="line" smooth="yes"/>
      <point x="471" y="734"/>
      <point x="463" y="703"/>
      <point x="457" y="660" type="curve" smooth="yes"/>
      <point x="452" y="629" type="line" smooth="yes"/>
      <point x="446" y="586"/>
      <point x="446" y="555"/>
      <point x="486" y="555" type="curve" smooth="yes"/>
      <point x="734" y="555" type="line"/>
      <point x="783" y="395" type="line"/>
      <point x="523" y="395" type="line" smooth="yes"/>
      <point x="483" y="395"/>
      <point x="475" y="364"/>
      <point x="469" y="321" type="curve" smooth="yes"/>
      <point x="464" y="290" type="line" smooth="yes"/>
      <point x="458" y="247"/>
      <point x="457" y="216"/>
      <point x="497" y="216" type="curve" smooth="yes"/>
      <point x="758" y="216" type="line"/>
      <point x="738" y="76" type="line" smooth="yes"/>
      <point x="732" y="33"/>
      <point x="758" y="0"/>
    </contour>
  </outline>
</glyph>
<glyph name="brokenbar" format="1">
  <advance width="567"/>
  <unicode hex="00A6"/>
  <outline>
    <contour>
      <point x="330" y="819" type="curve" smooth="yes"/>
      <point x="468" y="819" type="line" smooth="yes"/>
      <point x="508" y="819"/>
      <point x="542" y="853"/>
      <point x="548" y="896" type="curve" smooth="yes"/>
      <point x="630" y="1478" type="line" smooth="yes"/>
      <point x="636" y="1521"/>
      <point x="612" y="1555"/>
      <point x="572" y="1555" type="curve" smooth="yes"/>
      <point x="433" y="1555" type="line" smooth="yes"/>
      <point x="393" y="1555"/>
      <point x="359" y="1521"/>
      <point x="353" y="1478" type="curve" smooth="yes"/>
      <point x="272" y="896" type="line" smooth="yes"/>
      <point x="266" y="853"/>
      <point x="290" y="819"/>
    </contour>
    <contour>
      <point x="193" y="-150" type="curve" smooth="yes"/>
      <point x="332" y="-150" type="line" smooth="yes"/>
      <point x="372" y="-150"/>
      <point x="406" y="-116"/>
      <point x="412" y="-73" type="curve" smooth="yes"/>
      <point x="493" y="509" type="line" smooth="yes"/>
      <point x="499" y="552"/>
      <point x="475" y="586"/>
      <point x="435" y="586" type="curve" smooth="yes"/>
      <point x="297" y="586" type="line" smooth="yes"/>
      <point x="257" y="586"/>
      <point x="223" y="552"/>
      <point x="217" y="509" type="curve" smooth="yes"/>
      <point x="135" y="-73" type="line" smooth="yes"/>
      <point x="129" y="-116"/>
      <point x="153" y="-150"/>
    </contour>
  </outline>
</glyph>
<glyph name="section" format="1">
  <advance width="1723"/>
  <unicode hex="00A7"/>
  <outline>
    <contour>
      <point x="1298" y="639" type="curve"/>
      <point x="1216" y="651"/>
      <point x="1111" y="654"/>
      <point x="1026" y="662" type="curve" smooth="yes"/>
      <point x="676" y="692"/>
      <point x="615" y="707"/>
      <point x="622" y="760" type="curve" smooth="yes"/>
      <point x="628" y="806"/>
      <point x="659" y="837"/>
      <point x="666" y="844" type="curve"/>
      <point x="735" y="827"/>
      <point x="850" y="815"/>
      <point x="938" y="809" type="curve" smooth="yes"/>
      <point x="1200" y="790"/>
      <point x="1349" y="784"/>
      <point x="1339" y="716" type="curve" smooth="yes"/>
      <point x="1334" y="677"/>
      <point x="1298" y="639"/>
    </contour>
    <contour>
      <point x="835" y="-41" type="curve" smooth="yes"/>
      <point x="1254" y="-41"/>
      <point x="1593" y="31"/>
      <point x="1632" y="307" type="curve" smooth="yes"/>
      <point x="1646" y="407"/>
      <point x="1623" y="477"/>
      <point x="1573" y="526" type="curve"/>
      <point x="1636" y="577"/>
      <point x="1680" y="644"/>
      <point x="1692" y="729" type="curve" smooth="yes"/>
      <point x="1737" y="1052"/>
      <point x="1379" y="1064"/>
      <point x="1085" y="1084" type="curve" smooth="yes"/>
      <point x="841" y="1100"/>
      <point x="724" y="1099"/>
      <point x="732" y="1155" type="curve" smooth="yes"/>
      <point x="738" y="1197"/>
      <point x="801" y="1225"/>
      <point x="1029" y="1225" type="curve" smooth="yes"/>
      <point x="1250" y="1225"/>
      <point x="1380" y="1204"/>
      <point x="1498" y="1158" type="curve" smooth="yes"/>
      <point x="1507" y="1155"/>
      <point x="1517" y="1153"/>
      <point x="1526" y="1153" type="curve" smooth="yes"/>
      <point x="1556" y="1153"/>
      <point x="1586" y="1169"/>
      <point x="1603" y="1198" type="curve" smooth="yes"/>
      <point x="1658" y="1292" type="line" smooth="yes"/>
      <point x="1663" y="1301"/>
      <point x="1667" y="1311"/>
      <point x="1668" y="1321" type="curve" smooth="yes"/>
      <point x="1672" y="1348"/>
      <point x="1661" y="1376"/>
      <point x="1638" y="1386" type="curve" smooth="yes"/>
      <point x="1452" y="1469"/>
      <point x="1253" y="1475"/>
      <point x="1030" y="1475" type="curve" smooth="yes"/>
      <point x="799" y="1475"/>
      <point x="344" y="1443"/>
      <point x="299" y="1126" type="curve" smooth="yes"/>
      <point x="286" y="1035"/>
      <point x="323" y="971"/>
      <point x="387" y="926" type="curve"/>
      <point x="311" y="874"/>
      <point x="254" y="801"/>
      <point x="240" y="704" type="curve" smooth="yes"/>
      <point x="202" y="432"/>
      <point x="594" y="408"/>
      <point x="879" y="387" type="curve" smooth="yes"/>
      <point x="1141" y="368"/>
      <point x="1187" y="362"/>
      <point x="1177" y="294" type="curve" smooth="yes"/>
      <point x="1169" y="239"/>
      <point x="1106" y="218"/>
      <point x="958" y="218" type="curve" smooth="yes"/>
      <point x="729" y="218"/>
      <point x="531" y="240"/>
      <point x="340" y="306" type="curve" smooth="yes"/>
      <point x="332" y="309"/>
      <point x="324" y="310"/>
      <point x="316" y="310" type="curve" smooth="yes"/>
      <point x="286" y="310"/>
      <point x="255" y="291"/>
      <point x="236" y="259" type="curve" smooth="yes"/>
      <point x="173" y="154" type="line" smooth="yes"/>
      <point x="168" y="146"/>
      <point x="165" y="136"/>
      <point x="164" y="127" type="curve" smooth="yes"/>
      <point x="160" y="98"/>
      <point x="172" y="69"/>
      <point x="195" y="59" type="curve" smooth="yes"/>
      <point x="370" y="-18"/>
      <point x="646" y="-41"/>
    </contour>
  </outline>
</glyph>
<glyph name="ordfeminine" format="1">
  <advance width="1814"/>
  <unicode hex="00AA"/>
  <outline>
    <contour>
      <point x="651" y="718" type="curve" smooth="yes"/>
      <point x="566" y="718"/>
      <point x="530" y="749"/>
      <point x="537" y="802" type="curve" smooth="yes"/>
      <point x="549" y="886"/>
      <point x="706" y="924"/>
      <point x="956" y="958" type="curve" smooth="yes"/>
      <point x="960" y="959"/>
      <point x="983" y="960"/>
      <point x="986" y="960" type="curve" smooth="yes"/>
      <point x="1007" y="960"/>
      <point x="1006" y="944"/>
      <point x="1004" y="932" type="curve" smooth="yes"/>
      <point x="987" y="813"/>
      <point x="829" y="718"/>
    </contour>
    <contour>
      <point x="547" y="533" type="curve" smooth="yes"/>
      <point x="821" y="533"/>
      <point x="1018" y="622"/>
      <point x="1120" y="753" type="curve" smooth="yes"/>
      <point x="1126" y="761"/>
      <point x="1130" y="766"/>
      <point x="1134" y="766" type="curve" smooth="yes"/>
      <point x="1138" y="766"/>
      <point x="1142" y="760"/>
      <point x="1143" y="750" type="curve" smooth="yes"/>
      <point x="1146" y="730"/>
      <point x="1169" y="663"/>
      <point x="1181" y="625" type="curve" smooth="yes"/>
      <point x="1191" y="589"/>
      <point x="1218" y="568"/>
      <point x="1248" y="568" type="curve" smooth="yes"/>
      <point x="1340" y="568" type="line" smooth="yes"/>
      <point x="1367" y="568"/>
      <point x="1390" y="593"/>
      <point x="1395" y="626" type="curve" smooth="yes"/>
      <point x="1462" y="1103" type="line" smooth="yes"/>
      <point x="1504" y="1401"/>
      <point x="1209" y="1474"/>
      <point x="844" y="1474" type="curve" smooth="yes"/>
      <point x="480" y="1474"/>
      <point x="288" y="1419"/>
      <point x="222" y="1296" type="curve" smooth="yes"/>
      <point x="216" y="1285"/>
      <point x="210" y="1271"/>
      <point x="208" y="1258" type="curve" smooth="yes"/>
      <point x="206" y="1243"/>
      <point x="216" y="1227"/>
      <point x="229" y="1226" type="curve" smooth="yes"/>
      <point x="515" y="1197" type="line" smooth="yes"/>
      <point x="522" y="1196"/>
      <point x="527" y="1195"/>
      <point x="531" y="1195" type="curve" smooth="yes"/>
      <point x="547" y="1195"/>
      <point x="560" y="1202"/>
      <point x="580" y="1220" type="curve" smooth="yes"/>
      <point x="648" y="1279"/>
      <point x="761" y="1298"/>
      <point x="825" y="1298" type="curve" smooth="yes"/>
      <point x="989" y="1298"/>
      <point x="1037" y="1237"/>
      <point x="1022" y="1130" type="curve" smooth="yes"/>
      <point x="1020" y="1118" type="line" smooth="yes"/>
      <point x="1015" y="1081"/>
      <point x="168" y="1127"/>
      <point x="118" y="774" type="curve" smooth="yes"/>
      <point x="97" y="621"/>
      <point x="270" y="533"/>
    </contour>
  </outline>
</glyph>
<glyph name="registered" format="1">
  <advance width="1767"/>
  <unicode hex="00AE"/>
  <outline>
    <contour>
      <point x="877" y="-41" type="curve" smooth="yes"/>
      <point x="1383" y="-41"/>
      <point x="1686" y="318"/>
      <point x="1742" y="717" type="curve" smooth="yes"/>
      <point x="1798" y="1116"/>
      <point x="1596" y="1475"/>
      <point x="1090" y="1475" type="curve" smooth="yes"/>
      <point x="584" y="1475"/>
      <point x="281" y="1116"/>
      <point x="225" y="717" type="curve" smooth="yes"/>
      <point x="169" y="318"/>
      <point x="371" y="-41"/>
    </contour>
    <contour>
      <point x="903" y="124" type="curve" smooth="yes"/>
      <point x="485" y="124"/>
      <point x="373" y="440"/>
      <point x="411" y="713" type="curve" smooth="yes"/>
      <point x="451" y="998"/>
      <point x="651" y="1307"/>
      <point x="1069" y="1307" type="curve" smooth="yes"/>
      <point x="1487" y="1307"/>
      <point x="1599" y="998"/>
      <point x="1559" y="713" type="curve" smooth="yes"/>
      <point x="1521" y="440"/>
      <point x="1321" y="124"/>
    </contour>
    <contour>
      <point x="882" y="756" type="line" smooth="yes"/>
      <point x="875" y="756"/>
      <point x="868" y="764"/>
      <point x="869" y="773" type="curve" smooth="yes"/>
      <point x="883" y="866" type="line" smooth="yes"/>
      <point x="884" y="875"/>
      <point x="893" y="883"/>
      <point x="900" y="883" type="curve" smooth="yes"/>
      <point x="1055" y="883" type="line" smooth="yes"/>
      <point x="1100" y="883"/>
      <point x="1158" y="881"/>
      <point x="1149" y="818" type="curve" smooth="yes"/>
      <point x="1144" y="783"/>
      <point x="1113" y="756"/>
      <point x="1081" y="756" type="curve" smooth="yes"/>
    </contour>
    <contour>
      <point x="575" y="387" type="curve" smooth="yes"/>
      <point x="785" y="387" type="line" smooth="yes"/>
      <point x="802" y="387"/>
      <point x="817" y="403"/>
      <point x="820" y="422" type="curve" smooth="yes"/>
      <point x="845" y="602" type="line" smooth="yes"/>
      <point x="846" y="612"/>
      <point x="856" y="620"/>
      <point x="863" y="620" type="curve" smooth="yes"/>
      <point x="1012" y="620" type="line" smooth="yes"/>
      <point x="1058" y="620"/>
      <point x="1070" y="620"/>
      <point x="1082" y="587" type="curve" smooth="yes"/>
      <point x="1097" y="548"/>
      <point x="1092" y="464"/>
      <point x="1092" y="418" type="curve"/>
      <point x="1093" y="394"/>
      <point x="1102" y="387"/>
      <point x="1126" y="387" type="curve" smooth="yes"/>
      <point x="1344" y="387" type="line" smooth="yes"/>
      <point x="1355" y="387"/>
      <point x="1361" y="397"/>
      <point x="1363" y="409" type="curve" smooth="yes"/>
      <point x="1364" y="419"/>
      <point x="1364" y="444"/>
      <point x="1365" y="472" type="curve" smooth="yes"/>
      <point x="1368" y="589"/>
      <point x="1347" y="668"/>
      <point x="1253" y="688" type="curve" smooth="yes"/>
      <point x="1252" y="688"/>
      <point x="1252" y="689"/>
      <point x="1252" y="690" type="curve" smooth="yes"/>
      <point x="1252" y="691"/>
      <point x="1252" y="692"/>
      <point x="1253" y="692" type="curve" smooth="yes"/>
      <point x="1339" y="705"/>
      <point x="1415" y="755"/>
      <point x="1429" y="853" type="curve" smooth="yes"/>
      <point x="1456" y="1047"/>
      <point x="1302" y="1049"/>
      <point x="1106" y="1049" type="curve" smooth="yes"/>
      <point x="668" y="1049" type="line" smooth="yes"/>
      <point x="651" y="1049"/>
      <point x="637" y="1034"/>
      <point x="634" y="1014" type="curve" smooth="yes"/>
      <point x="550" y="422" type="line" smooth="yes"/>
      <point x="547" y="403"/>
      <point x="558" y="387"/>
    </contour>
  </outline>
</glyph>
<glyph name="acute" format="1">
  <advance width="1596"/>
  <unicode hex="00B4"/>
  <outline>
    <contour>
      <point x="901" y="1170" type="curve" smooth="yes"/>
      <point x="1023" y="1170" type="line" smooth="yes"/>
      <point x="1055" y="1170"/>
      <point x="1066" y="1189"/>
      <point x="1080" y="1209" type="curve" smooth="yes"/>
      <point x="1304" y="1553" type="line" smooth="yes"/>
      <point x="1312" y="1565"/>
      <point x="1318" y="1579"/>
      <point x="1320" y="1590" type="curve" smooth="yes"/>
      <point x="1322" y="1606"/>
      <point x="1317" y="1618"/>
      <point x="1298" y="1618" type="curve" smooth="yes"/>
      <point x="1056" y="1618" type="line" smooth="yes"/>
      <point x="1015" y="1618"/>
      <point x="997" y="1606"/>
      <point x="984" y="1563" type="curve" smooth="yes"/>
      <point x="879" y="1237" type="line" smooth="yes"/>
      <point x="874" y="1223"/>
      <point x="871" y="1212"/>
      <point x="870" y="1203" type="curve" smooth="yes"/>
      <point x="867" y="1179"/>
      <point x="875" y="1170"/>
    </contour>
    <contour>
      <point x="798" y="1006" type="move" name="_top"/>
    </contour>
  </outline>
</glyph>
<glyph name="onequarter" format="1">
  <advance width="3019"/>
  <unicode hex="00BC"/>
  <outline>
    <contour>
      <point x="974" y="-207" type="curve" smooth="yes"/>
      <point x="992" y="-207"/>
      <point x="1029" y="-196"/>
      <point x="1039" y="-179" type="curve"/>
      <point x="1045" y="-179"/>
      <point x="2120" y="1619"/>
      <point x="2114" y="1619" type="curve"/>
      <point x="2121" y="1630"/>
      <point x="2100" y="1644"/>
      <point x="2075" y="1645" type="curve" smooth="yes"/>
      <point x="2065" y="1646"/>
      <point x="1840" y="1646"/>
      <point x="1839" y="1646" type="curve" smooth="yes"/>
      <point x="1821" y="1646"/>
      <point x="1786" y="1636"/>
      <point x="1776" y="1619" type="curve"/>
      <point x="1770" y="1619"/>
      <point x="693" y="-178"/>
      <point x="700" y="-178" type="curve"/>
      <point x="692" y="-189"/>
      <point x="710" y="-203"/>
      <point x="733" y="-204" type="curve" smooth="yes"/>
      <point x="745" y="-205"/>
      <point x="973" y="-207"/>
    </contour>
    <contour>
      <point x="447" y="449" type="curve" smooth="yes"/>
      <point x="455" y="449"/>
      <point x="751" y="455"/>
      <point x="752" y="464" type="curve"/>
      <point x="772" y="464"/>
      <point x="828" y="755"/>
      <point x="831" y="776" type="curve" smooth="yes"/>
      <point x="832" y="785"/>
      <point x="917" y="1429"/>
      <point x="909" y="1429" type="curve"/>
      <point x="912" y="1451"/>
      <point x="759" y="1453"/>
      <point x="739" y="1453" type="curve" smooth="yes"/>
      <point x="731" y="1453"/>
      <point x="284" y="1405"/>
      <point x="283" y="1396" type="curve"/>
      <point x="263" y="1396"/>
      <point x="242" y="1351"/>
      <point x="239" y="1330" type="curve" smooth="yes"/>
      <point x="238" y="1321"/>
      <point x="227" y="1201"/>
      <point x="235" y="1201" type="curve"/>
      <point x="232" y="1180"/>
      <point x="292" y="1168"/>
      <point x="312" y="1168" type="curve" smooth="yes"/>
      <point x="315" y="1168"/>
      <point x="369" y="1171"/>
      <point x="396" y="1171" type="curve" smooth="yes"/>
      <point x="405" y="1171"/>
      <point x="411" y="1171"/>
      <point x="411" y="1170" type="curve"/>
      <point x="420" y="1170"/>
      <point x="396" y="947"/>
      <point x="395" y="937" type="curve" smooth="yes"/>
      <point x="394" y="928"/>
      <point x="338" y="488"/>
      <point x="346" y="488" type="curve"/>
      <point x="343" y="466"/>
      <point x="427" y="449"/>
    </contour>
    <contour>
      <point x="2446" y="-106" type="curve" smooth="yes"/>
      <point x="2653" y="-105" type="line" smooth="yes"/>
      <point x="2681" y="-105"/>
      <point x="2705" y="-83"/>
      <point x="2709" y="-53" type="curve" smooth="yes"/>
      <point x="2733" y="120" type="line"/>
      <point x="2839" y="120" type="line" smooth="yes"/>
      <point x="2868" y="120"/>
      <point x="2892" y="143"/>
      <point x="2896" y="173" type="curve" smooth="yes"/>
      <point x="2916" y="319" type="line" smooth="yes"/>
      <point x="2920" y="349"/>
      <point x="2904" y="372"/>
      <point x="2875" y="372" type="curve" smooth="yes"/>
      <point x="2769" y="372" type="line"/>
      <point x="2850" y="954" type="line" smooth="yes"/>
      <point x="2854" y="984"/>
      <point x="2837" y="1007"/>
      <point x="2809" y="1007" type="curve" smooth="yes"/>
      <point x="2602" y="1007" type="line" smooth="yes"/>
      <point x="2574" y="1007"/>
      <point x="2549" y="984"/>
      <point x="2545" y="954" type="curve" smooth="yes"/>
      <point x="2464" y="372" type="line"/>
      <point x="2251" y="372" type="line" smooth="yes"/>
      <point x="2239" y="372"/>
      <point x="2228" y="382"/>
      <point x="2230" y="394" type="curve" smooth="yes"/>
      <point x="2231" y="397" type="line"/>
      <point x="2425" y="953" type="line" smooth="yes"/>
      <point x="2425" y="956"/>
      <point x="2427" y="958"/>
      <point x="2427" y="961" type="curve" smooth="yes"/>
      <point x="2431" y="987"/>
      <point x="2410" y="1007"/>
      <point x="2384" y="1007" type="curve" smooth="yes"/>
      <point x="2091" y="1007" type="line" smooth="yes"/>
      <point x="2063" y="1007"/>
      <point x="2045" y="983"/>
      <point x="2034" y="954" type="curve"/>
      <point x="1713" y="173" type="line" smooth="yes"/>
      <point x="1713" y="170"/>
      <point x="1711" y="167"/>
      <point x="1711" y="164" type="curve" smooth="yes"/>
      <point x="1707" y="139"/>
      <point x="1730" y="120"/>
      <point x="1755" y="120" type="curve" smooth="yes"/>
      <point x="2428" y="120" type="line"/>
      <point x="2404" y="-53" type="line" smooth="yes"/>
      <point x="2400" y="-83"/>
      <point x="2418" y="-106"/>
    </contour>
  </outline>
</glyph>
<glyph name="onehalf" format="1">
  <advance width="3398"/>
  <unicode hex="00BD"/>
  <outline>
    <contour>
      <point x="1087" y="-206" type="curve" smooth="yes"/>
      <point x="1105" y="-206"/>
      <point x="1141" y="-195"/>
      <point x="1152" y="-178" type="curve"/>
      <point x="1158" y="-178"/>
      <point x="2233" y="1620"/>
      <point x="2228" y="1620" type="curve"/>
      <point x="2234" y="1632"/>
      <point x="2217" y="1645"/>
      <point x="2194" y="1646" type="curve" smooth="yes"/>
      <point x="2182" y="1647"/>
      <point x="1954" y="1648"/>
      <point x="1953" y="1648" type="curve" smooth="yes"/>
      <point x="1935" y="1648"/>
      <point x="1899" y="1637"/>
      <point x="1888" y="1620" type="curve"/>
      <point x="1883" y="1620"/>
      <point x="807" y="-176"/>
      <point x="813" y="-176" type="curve"/>
      <point x="806" y="-188"/>
      <point x="822" y="-202"/>
      <point x="845" y="-203" type="curve" smooth="yes"/>
      <point x="857" y="-204"/>
      <point x="1086" y="-206"/>
    </contour>
    <contour>
      <point x="515" y="431" type="curve" smooth="yes"/>
      <point x="876" y="431" type="line" smooth="yes"/>
      <point x="904" y="431"/>
      <point x="928" y="454"/>
      <point x="932" y="484" type="curve" smooth="yes"/>
      <point x="1059" y="1384" type="line" smooth="yes"/>
      <point x="1063" y="1415"/>
      <point x="1045" y="1437"/>
      <point x="1017" y="1437" type="curve"/>
      <point x="437" y="1381" type="line"/>
      <point x="409" y="1381"/>
      <point x="385" y="1359"/>
      <point x="381" y="1329" type="curve" smooth="yes"/>
      <point x="361" y="1189" type="line" smooth="yes"/>
      <point x="357" y="1159"/>
      <point x="375" y="1136"/>
      <point x="403" y="1136" type="curve"/>
      <point x="543" y="1151" type="line"/>
      <point x="556" y="1151"/>
      <point x="565" y="1139"/>
      <point x="563" y="1125" type="curve" smooth="yes"/>
      <point x="473" y="484" type="line" smooth="yes"/>
      <point x="469" y="454"/>
      <point x="487" y="431"/>
    </contour>
    <contour>
      <point x="2285" y="0" type="curve" smooth="yes"/>
      <point x="2292" y="0"/>
      <point x="3091" y="3"/>
      <point x="3092" y="13" type="curve"/>
      <point x="3112" y="13"/>
      <point x="3124" y="50"/>
      <point x="3127" y="74" type="curve" smooth="yes"/>
      <point x="3128" y="84"/>
      <point x="3139" y="184"/>
      <point x="3132" y="184" type="curve"/>
      <point x="3135" y="207"/>
      <point x="2903" y="216"/>
      <point x="2887" y="216" type="curve" smooth="yes"/>
      <point x="2880" y="216"/>
      <point x="2424" y="219"/>
      <point x="2424" y="223" type="curve"/>
      <point x="2407" y="228"/>
      <point x="2401" y="239"/>
      <point x="2406" y="254" type="curve"/>
      <point x="2479" y="352"/>
      <point x="2674" y="285"/>
      <point x="2696" y="427" type="curve"/>
      <point x="2873" y="546"/>
      <point x="3070" y="545"/>
      <point x="3091" y="691" type="curve" smooth="yes"/>
      <point x="3096" y="727"/>
      <point x="3091" y="773"/>
      <point x="3071" y="831" type="curve"/>
      <point x="3036" y="986"/>
      <point x="2849" y="1019"/>
      <point x="2622" y="1019" type="curve" smooth="yes"/>
      <point x="2575" y="1019"/>
      <point x="2527" y="1018"/>
      <point x="2478" y="1016" type="curve" smooth="yes"/>
      <point x="2350" y="1013"/>
      <point x="2168" y="973"/>
      <point x="2091" y="931" type="curve" smooth="yes"/>
      <point x="2082" y="927"/>
      <point x="2076" y="915"/>
      <point x="2074" y="899" type="curve" smooth="yes"/>
      <point x="2073" y="890"/>
      <point x="2072" y="879"/>
      <point x="2073" y="867" type="curve" smooth="yes"/>
      <point x="2074" y="860"/>
      <point x="2083" y="787"/>
      <point x="2102" y="754" type="curve"/>
      <point x="2106" y="743"/>
      <point x="2117" y="740"/>
      <point x="2138" y="741" type="curve"/>
      <point x="2150" y="743"/>
      <point x="2233" y="767"/>
      <point x="2303" y="770" type="curve" smooth="yes"/>
      <point x="2370" y="773"/>
      <point x="2499" y="791"/>
      <point x="2621" y="791" type="curve" smooth="yes"/>
      <point x="2670" y="791"/>
      <point x="2719" y="788"/>
      <point x="2761" y="780" type="curve"/>
      <point x="2785" y="765"/>
      <point x="2794" y="755"/>
      <point x="2793" y="748" type="curve" smooth="yes"/>
      <point x="2789" y="720"/>
      <point x="2629" y="727"/>
      <point x="2584" y="556" type="curve"/>
      <point x="2568" y="445"/>
      <point x="2023" y="568"/>
      <point x="1922" y="129" type="curve"/>
      <point x="1920" y="112"/>
      <point x="1913" y="51"/>
      <point x="1924" y="46" type="curve"/>
      <point x="1920" y="18"/>
      <point x="2254" y="0"/>
    </contour>
  </outline>
</glyph>
<glyph name="multiply" format="1">
  <advance width="1101"/>
  <unicode hex="00D7"/>
  <outline>
    <contour>
      <point x="332" y="193" type="curve" smooth="yes"/>
      <point x="351" y="193"/>
      <point x="369" y="201"/>
      <point x="386" y="216" type="curve" smooth="yes"/>
      <point x="388" y="219"/>
      <point x="592" y="409"/>
      <point x="611" y="427" type="curve"/>
      <point x="627" y="408"/>
      <point x="777" y="218"/>
      <point x="778" y="217" type="curve" smooth="yes"/>
      <point x="790" y="202"/>
      <point x="807" y="195"/>
      <point x="825" y="195" type="curve" smooth="yes"/>
      <point x="844" y="195"/>
      <point x="864" y="202"/>
      <point x="880" y="217" type="curve" smooth="yes"/>
      <point x="996" y="326" type="line" smooth="yes"/>
      <point x="1012" y="341"/>
      <point x="1021" y="361"/>
      <point x="1024" y="380" type="curve" smooth="yes"/>
      <point x="1027" y="400"/>
      <point x="1025" y="419"/>
      <point x="1011" y="435" type="curve" smooth="yes"/>
      <point x="845" y="646" type="line"/>
      <point x="865" y="666"/>
      <point x="1069" y="857"/>
      <point x="1070" y="858" type="curve" smooth="yes"/>
      <point x="1086" y="873"/>
      <point x="1096" y="893"/>
      <point x="1099" y="912" type="curve" smooth="yes"/>
      <point x="1102" y="932"/>
      <point x="1097" y="952"/>
      <point x="1085" y="967" type="curve" smooth="yes"/>
      <point x="999" y="1076" type="line" smooth="yes"/>
      <point x="987" y="1092"/>
      <point x="971" y="1099"/>
      <point x="952" y="1099" type="curve" smooth="yes"/>
      <point x="933" y="1099"/>
      <point x="915" y="1092"/>
      <point x="898" y="1076" type="curve" smooth="yes"/>
      <point x="897" y="1074"/>
      <point x="692" y="884"/>
      <point x="672" y="864" type="curve"/>
      <point x="657" y="883"/>
      <point x="506" y="1074"/>
      <point x="505" y="1074" type="curve" smooth="yes"/>
      <point x="493" y="1090"/>
      <point x="477" y="1097"/>
      <point x="458" y="1097" type="curve" smooth="yes"/>
      <point x="439" y="1097"/>
      <point x="421" y="1089"/>
      <point x="404" y="1074" type="curve" smooth="yes"/>
      <point x="286" y="964" type="line" smooth="yes"/>
      <point x="270" y="949"/>
      <point x="260" y="930"/>
      <point x="257" y="910" type="curve" smooth="yes"/>
      <point x="254" y="890"/>
      <point x="259" y="871"/>
      <point x="271" y="855" type="curve" smooth="yes"/>
      <point x="274" y="853"/>
      <point x="424" y="664"/>
      <point x="438" y="646" type="curve"/>
      <point x="419" y="627"/>
      <point x="214" y="436"/>
      <point x="213" y="435" type="curve" smooth="yes"/>
      <point x="197" y="420"/>
      <point x="188" y="401"/>
      <point x="185" y="381" type="curve" smooth="yes"/>
      <point x="182" y="361"/>
      <point x="185" y="342"/>
      <point x="197" y="326" type="curve" smooth="yes"/>
      <point x="285" y="216" type="line" smooth="yes"/>
      <point x="297" y="201"/>
      <point x="314" y="193"/>
    </contour>
  </outline>
</glyph>
<glyph name="germandbls" format="1">
  <advance width="1834"/>
  <unicode hex="00DF"/>
  <outline>
    <contour>
      <point x="209" y="0" type="curve" smooth="yes"/>
      <point x="555" y="0" type="line" smooth="yes"/>
      <point x="618" y="0"/>
      <point x="643" y="43"/>
      <point x="651" y="103" type="curve" smooth="yes"/>
      <point x="765" y="920" type="line" smooth="yes"/>
      <point x="787" y="1077"/>
      <point x="865" y="1147"/>
      <point x="1029" y="1147" type="curve" smooth="yes"/>
      <point x="1217" y="1147"/>
      <point x="1341" y="1136"/>
      <point x="1321" y="997" type="curve" smooth="yes"/>
      <point x="1307" y="897"/>
      <point x="1239" y="865"/>
      <point x="1067" y="861" type="curve"/>
      <point x="971" y="861" type="line" smooth="yes"/>
      <point x="929" y="861"/>
      <point x="918" y="832"/>
      <point x="915" y="811" type="curve" smooth="yes"/>
      <point x="898" y="689" type="line" smooth="yes"/>
      <point x="895" y="670"/>
      <point x="905" y="646"/>
      <point x="941" y="646" type="curve" smooth="yes"/>
      <point x="1022" y="646" type="line" smooth="yes"/>
      <point x="1240" y="646"/>
      <point x="1319" y="623"/>
      <point x="1301" y="497" type="curve" smooth="yes"/>
      <point x="1281" y="356"/>
      <point x="1173" y="334"/>
      <point x="963" y="334" type="curve" smooth="yes"/>
      <point x="901" y="334" type="line" smooth="yes"/>
      <point x="896" y="334" type="line" smooth="yes"/>
      <point x="855" y="334"/>
      <point x="838" y="299"/>
      <point x="835" y="277" type="curve" smooth="yes"/>
      <point x="807" y="73" type="line" smooth="yes"/>
      <point x="802" y="37"/>
      <point x="808" y="0"/>
      <point x="851" y="0" type="curve" smooth="yes"/>
      <point x="910" y="0" type="line" smooth="yes"/>
      <point x="1356" y="0"/>
      <point x="1728" y="96"/>
      <point x="1774" y="424" type="curve" smooth="yes"/>
      <point x="1797" y="590"/>
      <point x="1712" y="697"/>
      <point x="1579" y="758" type="curve" smooth="yes"/>
      <point x="1566" y="764"/>
      <point x="1567" y="779"/>
      <point x="1580" y="787" type="curve" smooth="yes"/>
      <point x="1683" y="847"/>
      <point x="1732" y="929"/>
      <point x="1748" y="1040" type="curve" smooth="yes"/>
      <point x="1790" y="1339"/>
      <point x="1511" y="1438"/>
      <point x="1128" y="1438" type="curve" smooth="yes"/>
      <point x="945" y="1438" type="line" smooth="yes"/>
      <point x="417" y="1438"/>
      <point x="315" y="1232"/>
      <point x="278" y="969" type="curve" smooth="yes"/>
      <point x="153" y="77" type="line" smooth="yes"/>
      <point x="147" y="34"/>
      <point x="170" y="0"/>
    </contour>
  </outline>
</glyph>
<glyph name="eth" format="1">
  <advance width="1843"/>
  <unicode hex="00F0"/>
  <outline>
    <contour>
      <point x="952" y="249" type="curve" smooth="yes"/>
      <point x="769" y="249"/>
      <point x="644" y="290"/>
      <point x="668" y="462" type="curve" smooth="yes"/>
      <point x="689" y="611"/>
      <point x="777" y="683"/>
      <point x="993" y="683" type="curve" smooth="yes"/>
      <point x="1169" y="683"/>
      <point x="1317" y="618"/>
      <point x="1297" y="478" type="curve" smooth="yes"/>
      <point x="1271" y="296"/>
      <point x="1134" y="249"/>
    </contour>
    <contour>
      <point x="900" y="-40" type="curve" smooth="yes"/>
      <point x="1445" y="-40"/>
      <point x="1744" y="182"/>
      <point x="1805" y="613" type="curve" smooth="yes"/>
      <point x="1850" y="936"/>
      <point x="1647" y="1189"/>
      <point x="1323" y="1358" type="curve"/>
      <point x="1356" y="1391"/>
      <point x="1404" y="1441"/>
      <point x="1433" y="1470" type="curve" smooth="yes"/>
      <point x="1443" y="1480"/>
      <point x="1448" y="1493"/>
      <point x="1450" y="1505" type="curve" smooth="yes"/>
      <point x="1452" y="1518"/>
      <point x="1451" y="1531"/>
      <point x="1443" y="1541" type="curve" smooth="yes"/>
      <point x="1442" y="1541"/>
      <point x="1435" y="1550"/>
      <point x="1397" y="1598" type="curve" smooth="yes"/>
      <point x="1389" y="1608"/>
      <point x="1378" y="1613"/>
      <point x="1366" y="1613" type="curve" smooth="yes"/>
      <point x="1353" y="1613"/>
      <point x="1342" y="1608"/>
      <point x="1331" y="1597" type="curve" smooth="yes"/>
      <point x="1293" y="1560"/>
      <point x="1219" y="1483"/>
      <point x="1166" y="1429" type="curve"/>
      <point x="1092" y="1459"/>
      <point x="1013" y="1486"/>
      <point x="933" y="1508" type="curve" smooth="yes"/>
      <point x="924" y="1511"/>
      <point x="916" y="1512"/>
      <point x="909" y="1512" type="curve" smooth="yes"/>
      <point x="887" y="1512"/>
      <point x="874" y="1502"/>
      <point x="860" y="1477" type="curve" smooth="yes"/>
      <point x="782" y="1337" type="line" smooth="yes"/>
      <point x="777" y="1328"/>
      <point x="774" y="1317"/>
      <point x="773" y="1310" type="curve" smooth="yes"/>
      <point x="771" y="1294"/>
      <point x="776" y="1283"/>
      <point x="788" y="1277" type="curve"/>
      <point x="847" y="1253"/>
      <point x="901" y="1229"/>
      <point x="950" y="1205" type="curve"/>
      <point x="921" y="1175"/>
      <point x="870" y="1123"/>
      <point x="846" y="1100" type="curve" smooth="yes"/>
      <point x="836" y="1090"/>
      <point x="830" y="1077"/>
      <point x="828" y="1064" type="curve" smooth="yes"/>
      <point x="826" y="1053"/>
      <point x="829" y="1039"/>
      <point x="835" y="1030" type="curve"/>
      <point x="881" y="973" type="line" smooth="yes"/>
      <point x="889" y="963"/>
      <point x="900" y="958"/>
      <point x="912" y="958" type="curve" smooth="yes"/>
      <point x="925" y="958"/>
      <point x="936" y="963"/>
      <point x="947" y="974" type="curve" smooth="yes"/>
      <point x="992" y="1019"/>
      <point x="1062" y="1088"/>
      <point x="1097" y="1123" type="curve"/>
      <point x="1256" y="1021"/>
      <point x="1318" y="923"/>
      <point x="1340" y="811" type="curve"/>
      <point x="1263" y="874"/>
      <point x="1074" y="903"/>
      <point x="929" y="903" type="curve" smooth="yes"/>
      <point x="479" y="903"/>
      <point x="221" y="721"/>
      <point x="182" y="444" type="curve" smooth="yes"/>
      <point x="135" y="110"/>
      <point x="379" y="-40"/>
    </contour>
  </outline>
</glyph>
<glyph name="divide" format="1">
  <advance width="1195"/>
  <unicode hex="00F7"/>
  <outline>
    <contour>
      <point x="647" y="757" type="curve" smooth="yes"/>
      <point x="773" y="757" type="line" smooth="yes"/>
      <point x="813" y="757"/>
      <point x="850" y="791"/>
      <point x="856" y="834" type="curve" smooth="yes"/>
      <point x="876" y="978" type="line" smooth="yes"/>
      <point x="882" y="1021"/>
      <point x="855" y="1055"/>
      <point x="815" y="1055" type="curve" smooth="yes"/>
      <point x="689" y="1055" type="line" smooth="yes"/>
      <point x="649" y="1055"/>
      <point x="612" y="1021"/>
      <point x="606" y="978" type="curve" smooth="yes"/>
      <point x="586" y="834" type="line" smooth="yes"/>
      <point x="580" y="791"/>
      <point x="607" y="757"/>
    </contour>
    <contour>
      <point x="238" y="428" type="curve" smooth="yes"/>
      <point x="1079" y="428" type="line" smooth="yes"/>
      <point x="1119" y="428"/>
      <point x="1144" y="452"/>
      <point x="1150" y="495" type="curve" smooth="yes"/>
      <point x="1163" y="587" type="line" smooth="yes"/>
      <point x="1169" y="630"/>
      <point x="1151" y="654"/>
      <point x="1111" y="654" type="curve" smooth="yes"/>
      <point x="270" y="654" type="line" smooth="yes"/>
      <point x="230" y="654"/>
      <point x="204" y="630"/>
      <point x="198" y="587" type="curve" smooth="yes"/>
      <point x="185" y="495" type="line" smooth="yes"/>
      <point x="179" y="452"/>
      <point x="198" y="428"/>
    </contour>
    <contour>
      <point x="541" y="1" type="curve" smooth="yes"/>
      <point x="667" y="1" type="line" smooth="yes"/>
      <point x="707" y="1"/>
      <point x="744" y="35"/>
      <point x="750" y="78" type="curve" smooth="yes"/>
      <point x="770" y="222" type="line" smooth="yes"/>
      <point x="776" y="265"/>
      <point x="749" y="299"/>
      <point x="709" y="299" type="curve" smooth="yes"/>
      <point x="583" y="299" type="line" smooth="yes"/>
      <point x="543" y="299"/>
      <point x="506" y="265"/>
      <point x="500" y="222" type="curve" smooth="yes"/>
      <point x="480" y="78" type="line" smooth="yes"/>
      <point x="474" y="35"/>
      <point x="501" y="1"/>
    </contour>
  </outline>
</glyph>
<glyph name="oslash" format="1">
  <advance width="1793"/>
  <unicode hex="00F8"/>
  <outline>
    <contour>
      <point x="927" y="215" type="curve" smooth="yes"/>
      <point x="912" y="215"/>
      <point x="896" y="216"/>
      <point x="883" y="217" type="curve"/>
      <point x="1162" y="760" type="line"/>
      <point x="1240" y="713"/>
      <point x="1275" y="623"/>
      <point x="1259" y="507" type="curve" smooth="yes"/>
      <point x="1231" y="308"/>
      <point x="1107" y="215"/>
    </contour>
    <contour>
      <point x="773" y="248" type="line"/>
      <point x="695" y="291"/>
      <point x="659" y="376"/>
      <point x="678" y="507" type="curve"/>
      <point x="702" y="681"/>
      <point x="826" y="798"/>
      <point x="1009" y="798" type="curve" smooth="yes"/>
      <point x="1025" y="798"/>
      <point x="1040" y="797"/>
      <point x="1054" y="795" type="curve"/>
    </contour>
    <contour>
      <point x="640" y="-202" type="line" smooth="yes"/>
      <point x="656" y="-202"/>
      <point x="675" y="-189"/>
      <point x="685" y="-169" type="curve" smooth="yes"/>
      <point x="753" y="-37" type="line"/>
      <point x="800" y="-40"/>
      <point x="846" y="-41"/>
      <point x="890" y="-41" type="curve" smooth="yes"/>
      <point x="1223" y="-41"/>
      <point x="1676" y="16"/>
      <point x="1745" y="507" type="curve" smooth="yes"/>
      <point x="1796" y="868"/>
      <point x="1555" y="994"/>
      <point x="1302" y="1035" type="curve"/>
      <point x="1368" y="1164" type="line" smooth="yes"/>
      <point x="1376" y="1179"/>
      <point x="1370" y="1197"/>
      <point x="1357" y="1197" type="curve" smooth="yes"/>
      <point x="1288" y="1197" type="line" smooth="yes"/>
      <point x="1271" y="1197"/>
      <point x="1254" y="1184"/>
      <point x="1244" y="1164" type="curve" smooth="yes"/>
      <point x="1184" y="1048" type="line"/>
      <point x="1136" y="1052"/>
      <point x="1091" y="1053"/>
      <point x="1046" y="1053" type="curve" smooth="yes"/>
      <point x="736" y="1053"/>
      <point x="259" y="992"/>
      <point x="191" y="507" type="curve" smooth="yes"/>
      <point x="139" y="138"/>
      <point x="373" y="16"/>
      <point x="634" y="-24" type="curve"/>
      <point x="560" y="-167" type="line" smooth="yes"/>
      <point x="552" y="-182"/>
      <point x="558" y="-200"/>
      <point x="571" y="-200" type="curve" smooth="yes"/>
    </contour>
    <contour>
      <point x="897" y="1006" type="move" name="top"/>
    </contour>
  </outline>
</glyph>
<glyph name="thorn" format="1">
  <advance width="1831"/>
  <unicode hex="00FE"/>
  <outline>
    <contour>
      <point x="954" y="213" type="curve" smooth="yes"/>
      <point x="769" y="213"/>
      <point x="684" y="347"/>
      <point x="705" y="498" type="curve" smooth="yes"/>
      <point x="726" y="650"/>
      <point x="847" y="781"/>
      <point x="1032" y="781" type="curve" smooth="yes"/>
      <point x="1208" y="781"/>
      <point x="1292" y="648"/>
      <point x="1271" y="498" type="curve" smooth="yes"/>
      <point x="1249" y="341"/>
      <point x="1127" y="213"/>
    </contour>
    <contour>
      <point x="164" y="-318" type="curve" smooth="yes"/>
      <point x="528" y="-318" type="line" smooth="yes"/>
      <point x="566" y="-318"/>
      <point x="597" y="-289"/>
      <point x="603" y="-246" type="curve" smooth="yes"/>
      <point x="647" y="62" type="line" smooth="yes"/>
      <point x="649" y="73"/>
      <point x="657" y="81"/>
      <point x="665" y="81" type="curve" smooth="yes"/>
      <point x="669" y="81"/>
      <point x="672" y="79"/>
      <point x="674" y="77" type="curve" smooth="yes"/>
      <point x="763" y="-2"/>
      <point x="911" y="-41"/>
      <point x="1073" y="-41" type="curve" smooth="yes"/>
      <point x="1380" y="-41"/>
      <point x="1729" y="119"/>
      <point x="1784" y="511" type="curve" smooth="yes"/>
      <point x="1836" y="883"/>
      <point x="1524" y="1053"/>
      <point x="1195" y="1053" type="curve" smooth="yes"/>
      <point x="1047" y="1053"/>
      <point x="914" y="1012"/>
      <point x="787" y="931" type="curve" smooth="yes"/>
      <point x="781" y="927"/>
      <point x="779" y="926"/>
      <point x="775" y="926" type="curve" smooth="yes"/>
      <point x="765" y="926"/>
      <point x="766" y="943"/>
      <point x="770" y="975" type="curve" smooth="yes"/>
      <point x="824" y="1356" type="line" smooth="yes"/>
      <point x="831" y="1406"/>
      <point x="807" y="1438"/>
      <point x="768" y="1438" type="curve" smooth="yes"/>
      <point x="414" y="1438" type="line" smooth="yes"/>
      <point x="376" y="1438"/>
      <point x="343" y="1406"/>
      <point x="337" y="1363" type="curve" smooth="yes"/>
      <point x="111" y="-246" type="line" smooth="yes"/>
      <point x="105" y="-289"/>
      <point x="126" y="-318"/>
    </contour>
  </outline>
</glyph>
<glyph name="dcroat" format="1">
  <advance width="1824"/>
  <unicode hex="0111"/>
  <outline>
    <contour>
      <point x="941" y="231" type="curve" smooth="yes"/>
      <point x="763" y="231"/>
      <point x="680" y="362"/>
      <point x="701" y="513" type="curve" smooth="yes"/>
      <point x="723" y="667"/>
      <point x="843" y="794"/>
      <point x="1019" y="794" type="curve" smooth="yes"/>
      <point x="1202" y="794"/>
      <point x="1287" y="665"/>
      <point x="1266" y="513" type="curve" smooth="yes"/>
      <point x="1245" y="361"/>
      <point x="1125" y="231"/>
    </contour>
    <contour>
      <point x="776" y="-41" type="curve" smooth="yes"/>
      <point x="1000" y="-41"/>
      <point x="1239" y="41"/>
      <point x="1382" y="201" type="curve" smooth="yes"/>
      <point x="1388" y="207"/>
      <point x="1395" y="211"/>
      <point x="1401" y="212" type="curve"/>
      <point x="1408" y="211"/>
      <point x="1414" y="206"/>
      <point x="1418" y="198" type="curve"/>
      <point x="1419" y="192"/>
      <point x="1469" y="71"/>
      <point x="1471" y="65" type="curve" smooth="yes"/>
      <point x="1487" y="26"/>
      <point x="1522" y="0"/>
      <point x="1561" y="0" type="curve" smooth="yes"/>
      <point x="1615" y="0" type="line" smooth="yes"/>
      <point x="1653" y="0"/>
      <point x="1685" y="33"/>
      <point x="1691" y="76" type="curve" smooth="yes"/>
      <point x="1839" y="1130" type="line"/>
      <point x="1939" y="1130" type="line" smooth="yes"/>
      <point x="1976" y="1130"/>
      <point x="1994" y="1156"/>
      <point x="2000" y="1199" type="curve" smooth="yes"/>
      <point x="2006" y="1241" type="line" smooth="yes"/>
      <point x="2012" y="1284"/>
      <point x="2001" y="1310"/>
      <point x="1964" y="1310" type="curve" smooth="yes"/>
      <point x="1864" y="1310" type="line"/>
      <point x="1871" y="1360" type="line" smooth="yes"/>
      <point x="1877" y="1403"/>
      <point x="1853" y="1436"/>
      <point x="1815" y="1436" type="curve" smooth="yes"/>
      <point x="1464" y="1436" type="line" smooth="yes"/>
      <point x="1426" y="1436"/>
      <point x="1392" y="1403"/>
      <point x="1386" y="1360" type="curve" smooth="yes"/>
      <point x="1379" y="1310" type="line"/>
      <point x="1111" y="1310" type="line" smooth="yes"/>
      <point x="1074" y="1310"/>
      <point x="1056" y="1284"/>
      <point x="1050" y="1241" type="curve" smooth="yes"/>
      <point x="1044" y="1199" type="line" smooth="yes"/>
      <point x="1038" y="1156"/>
      <point x="1049" y="1130"/>
      <point x="1086" y="1130" type="curve" smooth="yes"/>
      <point x="1353" y="1130" type="line"/>
      <point x="1325" y="930" type="line" smooth="yes"/>
      <point x="1324" y="920"/>
      <point x="1316" y="911"/>
      <point x="1309" y="911" type="curve"/>
      <point x="1306" y="912"/>
      <point x="1303" y="913"/>
      <point x="1300" y="916" type="curve" smooth="yes"/>
      <point x="1212" y="1005"/>
      <point x="1064" y="1053"/>
      <point x="901" y="1053" type="curve" smooth="yes"/>
      <point x="596" y="1053"/>
      <point x="245" y="889"/>
      <point x="190" y="499" type="curve" smooth="yes"/>
      <point x="138" y="129"/>
      <point x="450" y="-41"/>
    </contour>
  </outline>
</glyph>
<glyph name="Hbar" format="1">
  <advance width="2223"/>
  <unicode hex="0126"/>
  <outline>
    <contour>
      <point x="908" y="906" type="line" smooth="yes"/>
      <point x="892" y="906"/>
      <point x="879" y="922"/>
      <point x="881" y="939" type="curve" smooth="yes"/>
      <point x="903" y="1089" type="line"/>
      <point x="1612" y="1089" type="line"/>
      <point x="1591" y="940" type="line" smooth="yes"/>
      <point x="1589" y="924"/>
      <point x="1573" y="908"/>
      <point x="1558" y="906" type="curve"/>
    </contour>
    <contour>
      <point x="218" y="0" type="curve" smooth="yes"/>
      <point x="684" y="0" type="line" smooth="yes"/>
      <point x="724" y="0"/>
      <point x="759" y="33"/>
      <point x="765" y="76" type="curve" smooth="yes"/>
      <point x="830" y="538" type="line" smooth="yes"/>
      <point x="832" y="555"/>
      <point x="850" y="571"/>
      <point x="866" y="571" type="curve" smooth="yes"/>
      <point x="1507" y="571" type="line" smooth="yes"/>
      <point x="1523" y="571"/>
      <point x="1536" y="554"/>
      <point x="1534" y="537" type="curve" smooth="yes"/>
      <point x="1469" y="76" type="line" smooth="yes"/>
      <point x="1463" y="33"/>
      <point x="1488" y="0"/>
      <point x="1528" y="0" type="curve" smooth="yes"/>
      <point x="2004" y="0" type="line" smooth="yes"/>
      <point x="2044" y="0"/>
      <point x="2079" y="33"/>
      <point x="2085" y="76" type="curve" smooth="yes"/>
      <point x="2228" y="1089" type="line"/>
      <point x="2320" y="1089" type="line" smooth="yes"/>
      <point x="2359" y="1089"/>
      <point x="2373" y="1121"/>
      <point x="2379" y="1164" type="curve" smooth="yes"/>
      <point x="2384" y="1200" type="line" smooth="yes"/>
      <point x="2390" y="1243"/>
      <point x="2385" y="1275"/>
      <point x="2346" y="1275" type="curve" smooth="yes"/>
      <point x="2254" y="1275" type="line"/>
      <point x="2266" y="1363" type="line" smooth="yes"/>
      <point x="2272" y="1406"/>
      <point x="2246" y="1438"/>
      <point x="2206" y="1438" type="curve" smooth="yes"/>
      <point x="1732" y="1438" type="line" smooth="yes"/>
      <point x="1692" y="1438"/>
      <point x="1657" y="1406"/>
      <point x="1651" y="1363" type="curve" smooth="yes"/>
      <point x="1638" y="1275" type="line"/>
      <point x="929" y="1275" type="line"/>
      <point x="941" y="1363" type="line" smooth="yes"/>
      <point x="947" y="1406"/>
      <point x="922" y="1438"/>
      <point x="882" y="1438" type="curve" smooth="yes"/>
      <point x="421" y="1438" type="line" smooth="yes"/>
      <point x="381" y="1438"/>
      <point x="345" y="1406"/>
      <point x="339" y="1363" type="curve" smooth="yes"/>
      <point x="327" y="1275" type="line"/>
      <point x="230" y="1275" type="line" smooth="yes"/>
      <point x="192" y="1275"/>
      <point x="178" y="1243"/>
      <point x="172" y="1200" type="curve" smooth="yes"/>
      <point x="167" y="1164" type="line" smooth="yes"/>
      <point x="161" y="1121"/>
      <point x="166" y="1089"/>
      <point x="204" y="1089" type="curve" smooth="yes"/>
      <point x="301" y="1089" type="line"/>
      <point x="158" y="76" type="line" smooth="yes"/>
      <point x="152" y="33"/>
      <point x="178" y="0"/>
    </contour>
  </outline>
</glyph>
<glyph name="dotlessi" format="1">
  <advance width="767"/>
  <unicode hex="0131"/>
  <outline>
    <contour>
      <point x="207" y="0" type="curve" smooth="yes"/>
      <point x="561" y="0" type="line" smooth="yes"/>
      <point x="599" y="0"/>
      <point x="633" y="33"/>
      <point x="639" y="76" type="curve" smooth="yes"/>
      <point x="759" y="931" type="line" smooth="yes"/>
      <point x="765" y="974"/>
      <point x="740" y="1006"/>
      <point x="702" y="1006" type="curve" smooth="yes"/>
      <point x="348" y="1006" type="line" smooth="yes"/>
      <point x="310" y="1006"/>
      <point x="276" y="974"/>
      <point x="270" y="931" type="curve" smooth="yes"/>
      <point x="150" y="76" type="line" smooth="yes"/>
      <point x="144" y="33"/>
      <point x="169" y="0"/>
    </contour>
    <contour>
      <point x="384" y="1006" type="move" name="top"/>
    </contour>
    <contour>
      <point x="690" y="10" type="move" name="ogonek"/>
    </contour>
  </outline>
</glyph>
<glyph name="Lslash" format="1">
  <advance width="1854"/>
  <unicode hex="0141"/>
  <outline>
    <contour>
      <point x="219" y="0" type="curve" smooth="yes"/>
      <point x="1672" y="0" type="line" smooth="yes"/>
      <point x="1712" y="0"/>
      <point x="1747" y="33"/>
      <point x="1753" y="76" type="curve" smooth="yes"/>
      <point x="1781" y="274" type="line" smooth="yes"/>
      <point x="1787" y="317"/>
      <point x="1761" y="350"/>
      <point x="1721" y="350" type="curve" smooth="yes"/>
      <point x="888" y="350" type="line" smooth="yes"/>
      <point x="869" y="350"/>
      <point x="856" y="367"/>
      <point x="859" y="387" type="curve" smooth="yes"/>
      <point x="913" y="775" type="line"/>
      <point x="1114" y="816" type="line" smooth="yes"/>
      <point x="1148" y="823"/>
      <point x="1180" y="847"/>
      <point x="1185" y="885" type="curve" smooth="yes"/>
      <point x="1206" y="1028" type="line" smooth="yes"/>
      <point x="1211" y="1063"/>
      <point x="1192" y="1098"/>
      <point x="1162" y="1098" type="curve" smooth="yes"/>
      <point x="1159" y="1098"/>
      <point x="1157" y="1098"/>
      <point x="1154" y="1097" type="curve" smooth="yes"/>
      <point x="953" y="1056" type="line"/>
      <point x="996" y="1363" type="line" smooth="yes"/>
      <point x="1002" y="1406"/>
      <point x="977" y="1438"/>
      <point x="937" y="1438" type="curve" smooth="yes"/>
      <point x="421" y="1438" type="line" smooth="yes"/>
      <point x="381" y="1438"/>
      <point x="345" y="1406"/>
      <point x="339" y="1363" type="curve" smooth="yes"/>
      <point x="277" y="921" type="line"/>
      <point x="188" y="903" type="line" smooth="yes"/>
      <point x="154" y="896"/>
      <point x="124" y="872"/>
      <point x="118" y="832" type="curve" smooth="yes"/>
      <point x="98" y="693" type="line" smooth="yes"/>
      <point x="93" y="656"/>
      <point x="111" y="621"/>
      <point x="141" y="621" type="curve" smooth="yes"/>
      <point x="144" y="621"/>
      <point x="146" y="621"/>
      <point x="149" y="622" type="curve" smooth="yes"/>
      <point x="238" y="640" type="line"/>
      <point x="159" y="76" type="line" smooth="yes"/>
      <point x="153" y="33"/>
      <point x="179" y="0"/>
    </contour>
  </outline>
</glyph>
<glyph name="lslash" format="1">
  <advance width="838"/>
  <unicode hex="0142"/>
  <outline>
    <contour>
      <point x="258" y="0" type="curve" smooth="yes"/>
      <point x="616" y="0" type="line" smooth="yes"/>
      <point x="655" y="0"/>
      <point x="688" y="33"/>
      <point x="694" y="76" type="curve" smooth="yes"/>
      <point x="797" y="808" type="line"/>
      <point x="929" y="844" type="line"/>
      <point x="949" y="844"/>
      <point x="968" y="867"/>
      <point x="972" y="896" type="curve" smooth="yes"/>
      <point x="995" y="1056" type="line" smooth="yes"/>
      <point x="999" y="1083"/>
      <point x="986" y="1104"/>
      <point x="966" y="1104" type="curve"/>
      <point x="834" y="1068" type="line"/>
      <point x="876" y="1369" type="line" smooth="yes"/>
      <point x="882" y="1412"/>
      <point x="858" y="1444"/>
      <point x="819" y="1444" type="curve" smooth="yes"/>
      <point x="461" y="1444" type="line" smooth="yes"/>
      <point x="422" y="1444"/>
      <point x="388" y="1412"/>
      <point x="382" y="1369" type="curve" smooth="yes"/>
      <point x="320" y="931" type="line"/>
      <point x="200" y="898" type="line"/>
      <point x="181" y="894"/>
      <point x="163" y="873"/>
      <point x="159" y="843" type="curve" smooth="yes"/>
      <point x="138" y="695" type="line" smooth="yes"/>
      <point x="134" y="666"/>
      <point x="143" y="638"/>
      <point x="160" y="638" type="curve" smooth="yes"/>
      <point x="164" y="638" type="line" smooth="yes"/>
      <point x="284" y="671" type="line"/>
      <point x="200" y="76" type="line" smooth="yes"/>
      <point x="194" y="33"/>
      <point x="219" y="0"/>
    </contour>
  </outline>
</glyph>
<glyph name="Eng" format="1">
  <advance width="2357"/>
  <unicode hex="014A"/>
  <outline>
    <contour>
      <point x="1210" y="-725" type="curve" smooth="yes"/>
      <point x="1670" y="-720"/>
      <point x="2127" y="-605"/>
      <point x="2216" y="27" type="curve" smooth="yes"/>
      <point x="2403" y="1361" type="line" smooth="yes"/>
      <point x="2409" y="1404"/>
      <point x="2384" y="1436"/>
      <point x="2344" y="1436" type="curve" smooth="yes"/>
      <point x="1938" y="1436" type="line" smooth="yes"/>
      <point x="1898" y="1436"/>
      <point x="1863" y="1404"/>
      <point x="1857" y="1361" type="curve" smooth="yes"/>
      <point x="1776" y="787" type="line" smooth="yes"/>
      <point x="1774" y="774"/>
      <point x="1758" y="766"/>
      <point x="1751" y="774" type="curve" smooth="yes"/>
      <point x="1175" y="1406" type="line" smooth="yes"/>
      <point x="1149" y="1433"/>
      <point x="1108" y="1452"/>
      <point x="1067" y="1452" type="curve" smooth="yes"/>
      <point x="419" y="1452" type="line" smooth="yes"/>
      <point x="379" y="1452"/>
      <point x="344" y="1419"/>
      <point x="338" y="1376" type="curve" smooth="yes"/>
      <point x="155" y="76" type="line" smooth="yes"/>
      <point x="149" y="33"/>
      <point x="175" y="0"/>
      <point x="215" y="0" type="curve" smooth="yes"/>
      <point x="630" y="0" type="line" smooth="yes"/>
      <point x="670" y="0"/>
      <point x="706" y="33"/>
      <point x="712" y="76" type="curve" smooth="yes"/>
      <point x="826" y="888" type="line" smooth="yes"/>
      <point x="828" y="901"/>
      <point x="844" y="909"/>
      <point x="852" y="901" type="curve" smooth="yes"/>
      <point x="974" y="770"/>
      <point x="1576" y="137"/>
      <point x="1670" y="28" type="curve"/>
      <point x="1665" y="-7" type="line"/>
      <point x="1623" y="-278"/>
      <point x="1491" y="-353"/>
      <point x="1261" y="-360" type="curve" smooth="yes"/>
      <point x="1242" y="-360"/>
      <point x="1225" y="-377"/>
      <point x="1222" y="-401" type="curve" smooth="yes"/>
      <point x="1182" y="-685" type="line" smooth="yes"/>
      <point x="1179" y="-707"/>
      <point x="1192" y="-725"/>
    </contour>
  </outline>
</glyph>
<glyph name="OE" format="1">
  <advance width="3274"/>
  <unicode hex="0152"/>
  <outline>
    <contour>
      <point x="1324" y="345" type="line" smooth="yes"/>
      <point x="1065" y="345"/>
      <point x="890" y="425"/>
      <point x="932" y="722" type="curve" smooth="yes"/>
      <point x="972" y="1009"/>
      <point x="1159" y="1096"/>
      <point x="1430" y="1096" type="curve" smooth="yes"/>
      <point x="1603" y="1096" type="line" smooth="yes"/>
      <point x="1619" y="1096"/>
      <point x="1633" y="1079"/>
      <point x="1631" y="1062" type="curve" smooth="yes"/>
      <point x="1535" y="379" type="line" smooth="yes"/>
      <point x="1533" y="362"/>
      <point x="1515" y="345"/>
      <point x="1499" y="345" type="curve" smooth="yes"/>
    </contour>
    <contour>
      <point x="1319" y="-1" type="curve" smooth="yes"/>
      <point x="1555" y="-1"/>
      <point x="1315" y="0"/>
      <point x="3075" y="0" type="curve" smooth="yes"/>
      <point x="3115" y="0"/>
      <point x="3150" y="34"/>
      <point x="3156" y="77" type="curve" smooth="yes"/>
      <point x="3183" y="268" type="line" smooth="yes"/>
      <point x="3189" y="311"/>
      <point x="3163" y="345"/>
      <point x="3123" y="345" type="curve" smooth="yes"/>
      <point x="2217" y="345" type="line" smooth="yes"/>
      <point x="2201" y="345"/>
      <point x="2189" y="362"/>
      <point x="2191" y="379" type="curve" smooth="yes"/>
      <point x="2216" y="557" type="line" smooth="yes"/>
      <point x="2218" y="574"/>
      <point x="2237" y="591"/>
      <point x="2253" y="591" type="curve" smooth="yes"/>
      <point x="2931" y="591" type="line" smooth="yes"/>
      <point x="2971" y="591"/>
      <point x="3006" y="625"/>
      <point x="3012" y="668" type="curve" smooth="yes"/>
      <point x="3030" y="795" type="line" smooth="yes"/>
      <point x="3036" y="838"/>
      <point x="3010" y="872"/>
      <point x="2970" y="872" type="curve" smooth="yes"/>
      <point x="2291" y="872" type="line" smooth="yes"/>
      <point x="2275" y="872"/>
      <point x="2263" y="891"/>
      <point x="2265" y="908" type="curve" smooth="yes"/>
      <point x="2285" y="1053" type="line" smooth="yes"/>
      <point x="2288" y="1073"/>
      <point x="2305" y="1089"/>
      <point x="2324" y="1089" type="curve" smooth="yes"/>
      <point x="3167" y="1089" type="line" smooth="yes"/>
      <point x="3207" y="1089"/>
      <point x="3242" y="1123"/>
      <point x="3248" y="1166" type="curve" smooth="yes"/>
      <point x="3275" y="1361" type="line" smooth="yes"/>
      <point x="3281" y="1403"/>
      <point x="3255" y="1438"/>
      <point x="3216" y="1438" type="curve" smooth="yes"/>
      <point x="1455" y="1438" type="line" smooth="yes"/>
      <point x="963" y="1438"/>
      <point x="302" y="1292"/>
      <point x="222" y="722" type="curve" smooth="yes"/>
      <point x="131" y="75"/>
      <point x="828" y="-1"/>
    </contour>
    <contour>
      <point x="1637" y="1438" type="move" name="top"/>
    </contour>
  </outline>
</glyph>
<glyph name="tbar" format="1">
  <advance width="1466"/>
  <unicode hex="0167"/>
  <outline>
    <contour>
      <point x="936" y="-41" type="curve" smooth="yes"/>
      <point x="1051" y="-41"/>
      <point x="1162" y="-25"/>
      <point x="1253" y="-2" type="curve" smooth="yes"/>
      <point x="1291" y="8"/>
      <point x="1325" y="46"/>
      <point x="1329" y="88" type="curve"/>
      <point x="1348" y="232" type="line"/>
      <point x="1351" y="266"/>
      <point x="1334" y="290"/>
      <point x="1306" y="290" type="curve" smooth="yes"/>
      <point x="1301" y="290"/>
      <point x="1295" y="289"/>
      <point x="1289" y="287" type="curve" smooth="yes"/>
      <point x="1224" y="269"/>
      <point x="1144" y="254"/>
      <point x="1070" y="254" type="curve" smooth="yes"/>
      <point x="948" y="254"/>
      <point x="852" y="295"/>
      <point x="871" y="433" type="curve" smooth="yes"/>
      <point x="877" y="469" type="line"/>
      <point x="1121" y="469" type="line" smooth="yes"/>
      <point x="1160" y="469"/>
      <point x="1184" y="488"/>
      <point x="1190" y="531" type="curve" smooth="yes"/>
      <point x="1198" y="589" type="line" smooth="yes"/>
      <point x="1204" y="632"/>
      <point x="1185" y="647"/>
      <point x="1146" y="647" type="curve" smooth="yes"/>
      <point x="902" y="647" type="line"/>
      <point x="918" y="762" type="line" smooth="yes"/>
      <point x="921" y="782"/>
      <point x="937" y="797"/>
      <point x="955" y="797" type="curve" smooth="yes"/>
      <point x="1290" y="797" type="line" smooth="yes"/>
      <point x="1329" y="797"/>
      <point x="1362" y="830"/>
      <point x="1368" y="873" type="curve" smooth="yes"/>
      <point x="1376" y="931" type="line" smooth="yes"/>
      <point x="1382" y="974"/>
      <point x="1358" y="1006"/>
      <point x="1319" y="1006" type="curve" smooth="yes"/>
      <point x="984" y="1006" type="line" smooth="yes"/>
      <point x="966" y="1006"/>
      <point x="954" y="1022"/>
      <point x="957" y="1042" type="curve" smooth="yes"/>
      <point x="1004" y="1374" type="line" smooth="yes"/>
      <point x="1010" y="1417"/>
      <point x="986" y="1450"/>
      <point x="948" y="1450" type="curve" smooth="yes"/>
      <point x="596" y="1450" type="line" smooth="yes"/>
      <point x="558" y="1450"/>
      <point x="526" y="1417"/>
      <point x="519" y="1374" type="curve"/>
      <point x="446" y="1042" type="line"/>
      <point x="443" y="1022"/>
      <point x="428" y="1006"/>
      <point x="410" y="1006" type="curve" smooth="yes"/>
      <point x="296" y="1006" type="line" smooth="yes"/>
      <point x="257" y="1006"/>
      <point x="224" y="974"/>
      <point x="218" y="931" type="curve" smooth="yes"/>
      <point x="210" y="873" type="line" smooth="yes"/>
      <point x="204" y="830"/>
      <point x="228" y="797"/>
      <point x="267" y="797" type="curve" smooth="yes"/>
      <point x="380" y="797" type="line" smooth="yes"/>
      <point x="398" y="797"/>
      <point x="410" y="782"/>
      <point x="407" y="762" type="curve" smooth="yes"/>
      <point x="391" y="647" type="line"/>
      <point x="280" y="647" type="line" smooth="yes"/>
      <point x="241" y="647"/>
      <point x="218" y="632"/>
      <point x="212" y="589" type="curve" smooth="yes"/>
      <point x="203" y="531" type="line" smooth="yes"/>
      <point x="197" y="488"/>
      <point x="216" y="469"/>
      <point x="255" y="469" type="curve" smooth="yes"/>
      <point x="366" y="469" type="line"/>
      <point x="364" y="455" type="line" smooth="yes"/>
      <point x="309" y="63"/>
      <point x="619" y="-41"/>
    </contour>
  </outline>
</glyph>
<glyph name="dotlessj" format="1">
  <advance width="1064"/>
  <unicode hex="0237"/>
  <outline>
    <contour>
      <point x="920" y="11" type="curve"/>
      <point x="1049" y="931" type="line" smooth="yes"/>
      <point x="1055" y="974"/>
      <point x="1031" y="1006"/>
      <point x="992" y="1006" type="curve" smooth="yes"/>
      <point x="632" y="1006" type="line" smooth="yes"/>
      <point x="593" y="1006"/>
      <point x="560" y="974"/>
      <point x="554" y="931" type="curve" smooth="yes"/>
      <point x="425" y="14" type="line" smooth="yes"/>
      <point x="408" y="-110"/>
      <point x="311" y="-146"/>
      <point x="205" y="-146" type="curve" smooth="yes"/>
      <point x="170" y="-146"/>
      <point x="123" y="-139"/>
      <point x="93" y="-139" type="curve" smooth="yes"/>
      <point x="60" y="-139"/>
      <point x="31" y="-168"/>
      <point x="26" y="-206" type="curve" smooth="yes"/>
      <point x="6" y="-344" type="line" smooth="yes"/>
      <point x="0" y="-388"/>
      <point x="23" y="-424"/>
      <point x="61" y="-429" type="curve" smooth="yes"/>
      <point x="119" y="-438"/>
      <point x="193" y="-446"/>
      <point x="268" y="-446" type="curve" smooth="yes"/>
      <point x="577" y="-446"/>
      <point x="871" y="-334"/>
    </contour>
    <contour>
      <point x="532" y="1006" type="move" name="top"/>
    </contour>
  </outline>
</glyph>
<glyph name="circumflex" format="1">
  <advance width="867"/>
  <unicode hex="02C6"/>
  <outline>
    <contour>
      <point x="274" y="1168" type="curve" smooth="yes"/>
      <point x="322" y="1168" type="line" smooth="yes"/>
      <point x="368" y="1168"/>
      <point x="413" y="1190"/>
      <point x="458" y="1223" type="curve" smooth="yes"/>
      <point x="580" y="1315" type="line" smooth="yes"/>
      <point x="590" y="1323"/>
      <point x="603" y="1326"/>
      <point x="614" y="1326" type="curve" smooth="yes"/>
      <point x="625" y="1326"/>
      <point x="635" y="1323"/>
      <point x="644" y="1315" type="curve" smooth="yes"/>
      <point x="740" y="1223" type="line" smooth="yes"/>
      <point x="775" y="1190"/>
      <point x="815" y="1168"/>
      <point x="861" y="1168" type="curve" smooth="yes"/>
      <point x="909" y="1168" type="line" smooth="yes"/>
      <point x="927" y="1168"/>
      <point x="941" y="1190"/>
      <point x="944" y="1212" type="curve" smooth="yes"/>
      <point x="946" y="1223"/>
      <point x="944" y="1234"/>
      <point x="939" y="1244" type="curve" smooth="yes"/>
      <point x="807" y="1463" type="line" smooth="yes"/>
      <point x="779" y="1510"/>
      <point x="732" y="1539"/>
      <point x="684" y="1539" type="curve" smooth="yes"/>
      <point x="601" y="1539" type="line" smooth="yes"/>
      <point x="555" y="1539"/>
      <point x="500" y="1510"/>
      <point x="459" y="1463" type="curve" smooth="yes"/>
      <point x="264" y="1244" type="line" smooth="yes"/>
      <point x="255" y="1234"/>
      <point x="252" y="1223"/>
      <point x="250" y="1212" type="curve" smooth="yes"/>
      <point x="247" y="1190"/>
      <point x="255" y="1168"/>
    </contour>
    <contour>
      <point x="597.076" y="1006" type="move" name="_top"/>
    </contour>
  </outline>
</glyph>
<glyph name="caron" format="1">
  <advance width="923"/>
  <unicode hex="02C7"/>
  <outline>
    <contour>
      <point x="583" y="1174" type="curve" smooth="yes"/>
      <point x="666" y="1174" type="line" smooth="yes"/>
      <point x="712" y="1174"/>
      <point x="767" y="1203"/>
      <point x="808" y="1250" type="curve" smooth="yes"/>
      <point x="1003" y="1469" type="line" smooth="yes"/>
      <point x="1012" y="1479"/>
      <point x="1016" y="1490"/>
      <point x="1018" y="1501" type="curve" smooth="yes"/>
      <point x="1021" y="1523"/>
      <point x="1012" y="1545"/>
      <point x="994" y="1545" type="curve" smooth="yes"/>
      <point x="945" y="1545" type="line" smooth="yes"/>
      <point x="899" y="1545"/>
      <point x="854" y="1523"/>
      <point x="810" y="1490" type="curve" smooth="yes"/>
      <point x="687" y="1398" type="line" smooth="yes"/>
      <point x="677" y="1390"/>
      <point x="665" y="1387"/>
      <point x="654" y="1387" type="curve" smooth="yes"/>
      <point x="643" y="1387"/>
      <point x="633" y="1390"/>
      <point x="623" y="1398" type="curve"/>
      <point x="527" y="1490" type="line" smooth="yes"/>
      <point x="492" y="1523"/>
      <point x="452" y="1545"/>
      <point x="406" y="1545" type="curve" smooth="yes"/>
      <point x="359" y="1545" type="line" smooth="yes"/>
      <point x="341" y="1545"/>
      <point x="326" y="1523"/>
      <point x="323" y="1501" type="curve" smooth="yes"/>
      <point x="321" y="1490"/>
      <point x="323" y="1479"/>
      <point x="329" y="1469" type="curve" smooth="yes"/>
      <point x="460" y="1250" type="line" smooth="yes"/>
      <point x="488" y="1203"/>
      <point x="536" y="1174"/>
    </contour>
    <contour>
      <point x="670.409" y="1006" type="move" name="_top"/>
    </contour>
  </outline>
</glyph>
<glyph name="dotaccent" format="1">
  <advance width="561"/>
  <unicode hex="02D9"/>
  <outline>
    <contour>
      <point x="115" y="49" type="curve" smooth="yes"/>
      <point x="313" y="49" type="line" smooth="yes"/>
      <point x="353" y="49"/>
      <point x="389" y="83"/>
      <point x="395" y="126" type="curve" smooth="yes"/>
      <point x="422" y="314" type="line" smooth="yes"/>
      <point x="428" y="357"/>
      <point x="401" y="391"/>
      <point x="361" y="391" type="curve" smooth="yes"/>
      <point x="163" y="391" type="line" smooth="yes"/>
      <point x="123" y="391"/>
      <point x="87" y="357"/>
      <point x="81" y="314" type="curve" smooth="yes"/>
      <point x="54" y="126" type="line" smooth="yes"/>
      <point x="48" y="83"/>
      <point x="75" y="49"/>
    </contour>
    <contour>
      <point x="238" y="1006" type="move" name="_top"/>
    </contour>
  </outline>
</glyph>
<glyph name="uni0307" format="1">
  <advance width="561"/>
  <unicode hex="0307"/>
  <outline>
    <contour>
      <point x="310" y="872" type="curve" smooth="yes"/>
      <point x="508" y="872" type="line" smooth="yes"/>
      <point x="548" y="872"/>
      <point x="585" y="906"/>
      <point x="591" y="949" type="curve" smooth="yes"/>
      <point x="617" y="1137" type="line" smooth="yes"/>
      <point x="623" y="1180"/>
      <point x="596" y="1214"/>
      <point x="556" y="1214" type="curve" smooth="yes"/>
      <point x="358" y="1214" type="line" smooth="yes"/>
      <point x="318" y="1214"/>
      <point x="282" y="1180"/>
      <point x="276" y="1137" type="curve" smooth="yes"/>
      <point x="249" y="949" type="line" smooth="yes"/>
      <point x="243" y="906"/>
      <point x="270" y="872"/>
    </contour>
    <contour>
      <point x="433" y="1006" type="move" name="_top"/>
    </contour>
  </outline>
</glyph>
<glyph name="uni030F" format="1">
  <advance width="1411"/>
  <unicode hex="030F"/>
  <outline>
    <contour>
      <point x="1143" y="1170" type="curve" smooth="yes"/>
      <point x="1232" y="1170" type="line" smooth="yes"/>
      <point x="1259" y="1170"/>
      <point x="1272" y="1175"/>
      <point x="1276" y="1202" type="curve" smooth="yes"/>
      <point x="1277" y="1211"/>
      <point x="1278" y="1223"/>
      <point x="1277" y="1237" type="curve" smooth="yes"/>
      <point x="1264" y="1563" type="line" smooth="yes"/>
      <point x="1263" y="1606"/>
      <point x="1247" y="1618"/>
      <point x="1206" y="1618" type="curve" smooth="yes"/>
      <point x="964" y="1618" type="line" smooth="yes"/>
      <point x="945" y="1618"/>
      <point x="936" y="1606"/>
      <point x="934" y="1590" type="curve" smooth="yes"/>
      <point x="932" y="1579"/>
      <point x="935" y="1565"/>
      <point x="940" y="1553" type="curve" smooth="yes"/>
      <point x="1096" y="1209" type="line" smooth="yes"/>
      <point x="1104" y="1191"/>
      <point x="1108" y="1170"/>
    </contour>
    <contour>
      <point x="683" y="1170" type="curve" smooth="yes"/>
      <point x="773" y="1170" type="line" smooth="yes"/>
      <point x="800" y="1170"/>
      <point x="812" y="1175"/>
      <point x="816" y="1202" type="curve" smooth="yes"/>
      <point x="817" y="1211"/>
      <point x="818" y="1223"/>
      <point x="817" y="1237" type="curve" smooth="yes"/>
      <point x="805" y="1563" type="line" smooth="yes"/>
      <point x="804" y="1606"/>
      <point x="787" y="1618"/>
      <point x="746" y="1618" type="curve" smooth="yes"/>
      <point x="504" y="1618" type="line" smooth="yes"/>
      <point x="485" y="1618"/>
      <point x="476" y="1606"/>
      <point x="474" y="1590" type="curve" smooth="yes"/>
      <point x="472" y="1579"/>
      <point x="475" y="1565"/>
      <point x="480" y="1553" type="curve" smooth="yes"/>
      <point x="636" y="1209" type="line" smooth="yes"/>
      <point x="644" y="1191"/>
      <point x="648" y="1170"/>
    </contour>
    <contour>
      <point x="875.394" y="1006" type="move" name="_top"/>
    </contour>
  </outline>
</glyph>
<glyph name="uni0311" format="1">
  <advance width="1258"/>
  <unicode hex="0311"/>
  <outline>
    <contour>
      <point x="428" y="1192" type="curve"/>
      <point x="661" y="1192" type="line"/>
      <point x="678" y="1298"/>
      <point x="727" y="1346"/>
      <point x="801" y="1346" type="curve" smooth="yes"/>
      <point x="876" y="1346"/>
      <point x="914" y="1297"/>
      <point x="901" y="1192" type="curve"/>
      <point x="1133" y="1192" type="line"/>
      <point x="1170" y="1474"/>
      <point x="978" y="1506"/>
      <point x="824" y="1506" type="curve" smooth="yes"/>
      <point x="671" y="1506"/>
      <point x="470" y="1474"/>
    </contour>
  </outline>
</glyph>
<glyph name="uni0326" format="1">
  <advance width="894"/>
  <unicode hex="0326"/>
  <outline>
    <contour>
      <point x="195" y="-642" type="curve" smooth="yes"/>
      <point x="284" y="-642" type="line" smooth="yes"/>
      <point x="319" y="-642"/>
      <point x="329" y="-621"/>
      <point x="341" y="-603" type="curve"/>
      <point x="594" y="-259" type="line" smooth="yes"/>
      <point x="602" y="-247"/>
      <point x="609" y="-233"/>
      <point x="611" y="-222" type="curve" smooth="yes"/>
      <point x="613" y="-206"/>
      <point x="608" y="-194"/>
      <point x="589" y="-194" type="curve" smooth="yes"/>
      <point x="347" y="-194" type="line" smooth="yes"/>
      <point x="306" y="-194"/>
      <point x="286" y="-206"/>
      <point x="273" y="-249" type="curve" smooth="yes"/>
      <point x="169" y="-575" type="line" smooth="yes"/>
      <point x="164" y="-589"/>
      <point x="161" y="-601"/>
      <point x="160" y="-610" type="curve" smooth="yes"/>
      <point x="156" y="-637"/>
      <point x="168" y="-642"/>
    </contour>
    <contour>
      <point x="385.329" y="0" type="move" name="_bottom"/>
    </contour>
  </outline>
</glyph>
<glyph name="emdash" format="1">
  <advance width="1899"/>
  <unicode hex="2014"/>
  <outline>
    <contour>
      <point x="240" y="422" type="curve" smooth="yes"/>
      <point x="1775" y="422" type="line" smooth="yes"/>
      <point x="1810" y="422"/>
      <point x="1844" y="456"/>
      <point x="1850" y="498" type="curve" smooth="yes"/>
      <point x="1875" y="676" type="line" smooth="yes"/>
      <point x="1881" y="716"/>
      <point x="1856" y="748"/>
      <point x="1821" y="748" type="curve" smooth="yes"/>
      <point x="286" y="748" type="line" smooth="yes"/>
      <point x="252" y="748"/>
      <point x="220" y="717"/>
      <point x="214" y="677" type="curve" smooth="yes"/>
      <point x="189" y="495" type="line" smooth="yes"/>
      <point x="183" y="454"/>
      <point x="206" y="422"/>
    </contour>
  </outline>
</glyph>
<glyph name="quotedblleft" format="1">
  <advance width="982"/>
  <unicode hex="201C"/>
  <outline>
    <contour>
      <point x="800" y="801" type="curve" smooth="yes"/>
      <point x="1043" y="801" type="line" smooth="yes"/>
      <point x="1083" y="801"/>
      <point x="1104" y="833"/>
      <point x="1110" y="876" type="curve" smooth="yes"/>
      <point x="1138" y="1079" type="line" smooth="yes"/>
      <point x="1143" y="1117"/>
      <point x="1127" y="1146"/>
      <point x="1092" y="1146" type="curve" smooth="yes"/>
      <point x="1020" y="1146" type="line" smooth="yes"/>
      <point x="1006" y="1146"/>
      <point x="1006" y="1157"/>
      <point x="1008" y="1173" type="curve" smooth="yes"/>
      <point x="1011" y="1197"/>
      <point x="1037" y="1274"/>
      <point x="1107" y="1317" type="curve" smooth="yes"/>
      <point x="1151" y="1344"/>
      <point x="1174" y="1338"/>
      <point x="1182" y="1392" type="curve" smooth="yes"/>
      <point x="1188" y="1436" type="line" smooth="yes"/>
      <point x="1192" y="1467"/>
      <point x="1167" y="1482"/>
      <point x="1139" y="1482" type="curve" smooth="yes"/>
      <point x="1134" y="1482"/>
      <point x="1130" y="1482"/>
      <point x="1125" y="1481" type="curve" smooth="yes"/>
      <point x="993" y="1458"/>
      <point x="816" y="1347"/>
      <point x="783" y="1110" type="curve" smooth="yes"/>
      <point x="750" y="878" type="line" smooth="yes"/>
      <point x="744" y="835"/>
      <point x="760" y="801"/>
    </contour>
    <contour>
      <point x="305" y="801" type="curve" smooth="yes"/>
      <point x="549" y="801" type="line" smooth="yes"/>
      <point x="589" y="801"/>
      <point x="609" y="833"/>
      <point x="615" y="876" type="curve" smooth="yes"/>
      <point x="644" y="1079" type="line" smooth="yes"/>
      <point x="649" y="1117"/>
      <point x="632" y="1146"/>
      <point x="597" y="1146" type="curve" smooth="yes"/>
      <point x="526" y="1146" type="line" smooth="yes"/>
      <point x="512" y="1146"/>
      <point x="511" y="1157"/>
      <point x="513" y="1173" type="curve" smooth="yes"/>
      <point x="516" y="1197"/>
      <point x="542" y="1274"/>
      <point x="612" y="1317" type="curve" smooth="yes"/>
      <point x="656" y="1344"/>
      <point x="679" y="1338"/>
      <point x="687" y="1392" type="curve" smooth="yes"/>
      <point x="694" y="1436" type="line" smooth="yes"/>
      <point x="698" y="1467"/>
      <point x="673" y="1482"/>
      <point x="645" y="1482" type="curve" smooth="yes"/>
      <point x="640" y="1482"/>
      <point x="635" y="1482"/>
      <point x="630" y="1481" type="curve" smooth="yes"/>
      <point x="498" y="1458"/>
      <point x="321" y="1347"/>
      <point x="288" y="1110" type="curve" smooth="yes"/>
      <point x="255" y="878" type="line" smooth="yes"/>
      <point x="249" y="835"/>
      <point x="265" y="801"/>
    </contour>
  </outline>
</glyph>
<glyph name="quotedblright" format="1">
  <advance width="1106"/>
  <unicode hex="201D"/>
  <outline>
    <contour>
      <point x="793" y="803" type="curve" smooth="yes"/>
      <point x="925" y="826"/>
      <point x="1104" y="938"/>
      <point x="1137" y="1175" type="curve" smooth="yes"/>
      <point x="1169" y="1407" type="line" smooth="yes"/>
      <point x="1175" y="1450"/>
      <point x="1160" y="1484"/>
      <point x="1120" y="1484" type="curve" smooth="yes"/>
      <point x="876" y="1484" type="line" smooth="yes"/>
      <point x="836" y="1484"/>
      <point x="816" y="1452"/>
      <point x="810" y="1409" type="curve" smooth="yes"/>
      <point x="781" y="1206" type="line" smooth="yes"/>
      <point x="776" y="1168"/>
      <point x="793" y="1139"/>
      <point x="828" y="1139" type="curve" smooth="yes"/>
      <point x="899" y="1139" type="line" smooth="yes"/>
      <point x="913" y="1139"/>
      <point x="913" y="1128"/>
      <point x="911" y="1112" type="curve" smooth="yes"/>
      <point x="908" y="1088"/>
      <point x="882" y="1011"/>
      <point x="812" y="968" type="curve" smooth="yes"/>
      <point x="768" y="941"/>
      <point x="745" y="947"/>
      <point x="737" y="893" type="curve" smooth="yes"/>
      <point x="731" y="848" type="line" smooth="yes"/>
      <point x="727" y="817"/>
      <point x="751" y="802"/>
      <point x="779" y="802" type="curve" smooth="yes"/>
      <point x="784" y="802"/>
      <point x="788" y="802"/>
    </contour>
    <contour>
      <point x="319" y="803" type="curve" smooth="yes"/>
      <point x="451" y="826"/>
      <point x="629" y="938"/>
      <point x="662" y="1175" type="curve" smooth="yes"/>
      <point x="694" y="1407" type="line" smooth="yes"/>
      <point x="700" y="1450"/>
      <point x="685" y="1484"/>
      <point x="645" y="1484" type="curve" smooth="yes"/>
      <point x="401" y="1484" type="line" smooth="yes"/>
      <point x="361" y="1484"/>
      <point x="341" y="1452"/>
      <point x="335" y="1409" type="curve" smooth="yes"/>
      <point x="306" y="1206" type="line" smooth="yes"/>
      <point x="301" y="1168"/>
      <point x="317" y="1139"/>
      <point x="352" y="1139" type="curve" smooth="yes"/>
      <point x="425" y="1139" type="line" smooth="yes"/>
      <point x="439" y="1139"/>
      <point x="439" y="1128"/>
      <point x="437" y="1112" type="curve" smooth="yes"/>
      <point x="434" y="1088"/>
      <point x="408" y="1011"/>
      <point x="338" y="968" type="curve" smooth="yes"/>
      <point x="294" y="941"/>
      <point x="270" y="947"/>
      <point x="262" y="893" type="curve" smooth="yes"/>
      <point x="256" y="848" type="line" smooth="yes"/>
      <point x="252" y="817"/>
      <point x="277" y="802"/>
      <point x="305" y="802" type="curve" smooth="yes"/>
      <point x="310" y="802"/>
      <point x="314" y="802"/>
    </contour>
  </outline>
</glyph>
<glyph name="dagger" format="1">
  <advance width="1798"/>
  <unicode hex="2020"/>
  <outline>
    <contour>
      <point x="744" y="0" type="curve" smooth="yes"/>
      <point x="1053" y="0" type="line" smooth="yes"/>
      <point x="1093" y="0"/>
      <point x="1124" y="29"/>
      <point x="1130" y="72" type="curve" smooth="yes"/>
      <point x="1295" y="1243" type="line" smooth="yes"/>
      <point x="1298" y="1263"/>
      <point x="1310" y="1274"/>
      <point x="1329" y="1274" type="curve" smooth="yes"/>
      <point x="1641" y="1274" type="line" smooth="yes"/>
      <point x="1681" y="1274"/>
      <point x="1713" y="1308"/>
      <point x="1719" y="1351" type="curve" smooth="yes"/>
      <point x="1734" y="1459" type="line" smooth="yes"/>
      <point x="1740" y="1502"/>
      <point x="1718" y="1536"/>
      <point x="1678" y="1536" type="curve" smooth="yes"/>
      <point x="1337" y="1536" type="line"/>
      <point x="1388" y="1901" type="line" smooth="yes"/>
      <point x="1394" y="1944"/>
      <point x="1372" y="1973"/>
      <point x="1332" y="1973" type="curve" smooth="yes"/>
      <point x="1022" y="1973" type="line" smooth="yes"/>
      <point x="982" y="1973"/>
      <point x="951" y="1944"/>
      <point x="945" y="1901" type="curve" smooth="yes"/>
      <point x="894" y="1536" type="line"/>
      <point x="549" y="1536" type="line" smooth="yes"/>
      <point x="509" y="1536"/>
      <point x="478" y="1502"/>
      <point x="472" y="1459" type="curve" smooth="yes"/>
      <point x="457" y="1351" type="line" smooth="yes"/>
      <point x="451" y="1308"/>
      <point x="473" y="1274"/>
      <point x="513" y="1274" type="curve" smooth="yes"/>
      <point x="826" y="1274" type="line" smooth="yes"/>
      <point x="845" y="1274"/>
      <point x="854" y="1263"/>
      <point x="851" y="1243" type="curve" smooth="yes"/>
      <point x="687" y="72" type="line" smooth="yes"/>
      <point x="681" y="29"/>
      <point x="704" y="0"/>
    </contour>
  </outline>
</glyph>
<glyph name="guilsinglright" format="1">
  <advance width="697"/>
  <unicode hex="203A"/>
  <outline>
    <contour>
      <point x="131" y="29" type="curve" smooth="yes"/>
      <point x="145" y="29"/>
      <point x="165" y="36"/>
      <point x="188" y="49" type="curve"/>
      <point x="579" y="297" type="line"/>
      <point x="651" y="344"/>
      <point x="682" y="394"/>
      <point x="691" y="459" type="curve" smooth="yes"/>
      <point x="712" y="613" type="line" smooth="yes"/>
      <point x="721" y="677"/>
      <point x="702" y="716"/>
      <point x="644" y="763" type="curve" smooth="yes"/>
      <point x="323" y="1016" type="line" smooth="yes"/>
      <point x="304" y="1031"/>
      <point x="286" y="1036"/>
      <point x="272" y="1036" type="curve" smooth="yes"/>
      <point x="237" y="1036"/>
      <point x="216" y="1006"/>
      <point x="213" y="986" type="curve" smooth="yes"/>
      <point x="199" y="883" type="line" smooth="yes"/>
      <point x="190" y="820"/>
      <point x="194" y="794"/>
      <point x="235" y="743" type="curve"/>
      <point x="441" y="564" type="line"/>
      <point x="451" y="553"/>
      <point x="454" y="545"/>
      <point x="452" y="530" type="curve" smooth="yes"/>
      <point x="450" y="515"/>
      <point x="446" y="509"/>
      <point x="432" y="497" type="curve"/>
      <point x="175" y="320" type="line"/>
      <point x="118" y="268"/>
      <point x="108" y="241"/>
      <point x="99" y="177" type="curve" smooth="yes"/>
      <point x="86" y="79" type="line" smooth="yes"/>
      <point x="83" y="60"/>
      <point x="96" y="29"/>
    </contour>
  </outline>
</glyph>
